<svg width="60" height="60" viewBox="0 0 60 60" fill="none" xmlns="http://www.w3.org/2000/svg">
<g clip-path="url(#clip0_672_43364)">
<path d="M58.4528 36.4202C57.263 20.1628 43.3504 9.25921 39.2691 6.39444C38.7231 6.01124 37.9669 6.28534 37.7838 6.92671L36.2091 12.4379C36.2091 12.4379 31.22 6.61733 21.2418 1.90265C20.4102 1.50972 19.548 2.39964 19.9616 3.22112L21.6496 6.5728C12.7062 2.0619 5.48946 0.497685 2.61262 0.0138178C1.94067 -0.0991509 1.36727 0.499677 1.50766 1.16647C2.05294 3.75843 3.69063 9.7664 8.06008 16.3206L7.99985 20.5294L16.1511 34.7509L13.4022 38.6832C18.4417 51.4349 25.5859 59.0068 37.0469 59.0707C45.812 59.1194 52.7541 54.7709 56.1242 47.299L56.6773 46.9484C58.0669 43.7388 58.7255 40.1464 58.4528 36.4202Z" fill="#FFE077"/>
<path d="M18.6265 14.9136L21.6491 20.2032L16.2356 20.9765C15.5662 21.0722 15.1972 21.8059 15.5197 22.4003L21.8172 34.01L45.5346 23.8906C45.5346 23.8906 32.7778 14.2264 19.5317 13.4569C18.7598 13.4121 18.2429 14.2424 18.6265 14.9136Z" fill="white"/>
<path d="M54.6513 38.6456C54.6513 42.3498 53.4987 45.7847 51.5324 48.6112C48.3765 53.1479 43.1248 55.0237 37.1796 55.0237C27.5303 55.0237 20.7832 48.295 20.7832 38.6455C20.7832 32.7022 22.6753 27.452 27.2095 24.2958C30.0369 22.3277 33.4734 21.1738 37.1795 21.1738C46.8289 21.1739 54.6513 28.9963 54.6513 38.6456Z" fill="#FFC263"/>
<path d="M52.6299 37.0479C51.9031 29.7976 46.0277 23.9222 38.7774 23.1954C34.9759 22.8143 31.4275 23.8108 28.5565 25.741C27.6624 26.3422 26.5557 25.2316 27.1688 24.3457L27.2098 24.2959C22.0212 27.9108 18.8784 34.2701 19.9001 41.2727C20.9965 48.7863 27.0392 54.8289 34.5527 55.9253C41.5553 56.9471 47.9177 53.7998 51.5325 48.6112C51.5175 48.6217 51.4916 48.6416 51.4766 48.652C50.5907 49.2651 49.4832 48.163 50.0843 47.2687C52.0144 44.3978 53.011 40.8494 52.6299 37.0479Z" fill="#FFAA5A"/>
<path d="M37.18 52.2348C44.6851 52.2348 50.7692 46.1507 50.7692 38.6456C50.7692 31.1405 44.6851 25.0564 37.18 25.0564C29.6749 25.0564 23.5908 31.1405 23.5908 38.6456C23.5908 46.1507 29.6749 52.2348 37.18 52.2348Z" fill="#FFF4D6"/>
<path d="M37.1801 50.2935C43.613 50.2935 48.8279 45.0785 48.8279 38.6456C48.8279 32.2127 43.613 26.9978 37.1801 26.9978C30.7471 26.9978 25.5322 32.2127 25.5322 38.6456C25.5322 45.0785 30.7471 50.2935 37.1801 50.2935Z" fill="white"/>
<path d="M46.8858 39.6163H37.1793C36.9215 39.6163 36.675 39.5139 36.493 39.3319L30.6692 33.508C30.29 33.1288 30.29 32.5146 30.6692 32.1354C31.0484 31.7562 31.6626 31.7562 32.0418 32.1354L37.5814 37.675H46.8859C47.4224 37.675 47.8566 38.1096 47.8566 38.6456C47.8565 39.1816 47.4224 39.6163 46.8858 39.6163Z" fill="#4E3D4D"/>
<path d="M37.1797 30.8804C36.6432 30.8804 36.209 30.4458 36.209 29.9098V28.9391C36.209 28.4031 36.6432 27.9684 37.1797 27.9684C37.7161 27.9684 38.1503 28.4031 38.1503 28.9391V29.9098C38.1503 30.4458 37.7163 30.8804 37.1797 30.8804Z" fill="#FF8B57"/>
<path d="M37.1797 49.3228C36.6432 49.3228 36.209 48.8882 36.209 48.3521V47.3815C36.209 46.8455 36.6432 46.4108 37.1797 46.4108C37.7161 46.4108 38.1503 46.8455 38.1503 47.3815V48.3521C38.1503 48.8883 37.7163 49.3228 37.1797 49.3228Z" fill="#FF8B57"/>
<path d="M28.4443 39.6163H27.4736C26.9371 39.6163 26.5029 39.1816 26.5029 38.6456C26.5029 38.1096 26.9371 37.675 27.4736 37.675H28.4443C28.9807 37.675 29.4149 38.1096 29.4149 38.6456C29.4149 39.1816 28.9807 39.6163 28.4443 39.6163Z" fill="#FF8B57"/>
<path d="M37.1796 40.5869C38.2518 40.5869 39.1209 39.7178 39.1209 38.6456C39.1209 37.5734 38.2518 36.7043 37.1796 36.7043C36.1074 36.7043 35.2383 37.5734 35.2383 38.6456C35.2383 39.7178 36.1074 40.5869 37.1796 40.5869Z" fill="#FFAA5A"/>
<path d="M56.6771 46.9485L56.6221 46.9367C55.603 46.7635 54.5987 47.2611 54.0915 48.1618C50.6789 54.2206 44.1128 58.2639 36.6144 58.0507C28.5125 57.8203 21.4551 52.3311 18.7978 44.674C17.7225 41.5754 17.5601 38.6146 17.9806 35.8421C18.2157 34.2929 17.895 32.7122 17.0887 31.3685L8.06002 16.3206L5.19338 17.0373C4.63815 17.1762 4.32291 17.7588 4.51217 18.2989C5.45108 20.9783 8.40537 28.5017 13.884 34.7631L9.24139 35.5369C8.63318 35.6382 8.26498 36.2812 8.49455 36.8536C14.4201 51.6265 25.5861 59.936 37.0468 59.9998C42.1424 60.0281 46.7614 58.2403 50.3993 55.2717C53.1022 52.9905 55.3023 50.1232 56.6771 46.9485Z" fill="#FFD05B"/>
</g>
<defs>
<clipPath id="clip0_672_43364">
<rect width="60" height="60" fill="white"/>
</clipPath>
</defs>
</svg>
