<svg width="40" height="41" viewBox="0 0 40 41" fill="none" xmlns="http://www.w3.org/2000/svg">
<g clip-path="url(#clip0_1025_14416)">
<path d="M20 40.5C19.881 40.5 19.762 40.4819 19.6471 40.4456C15.0723 39.0009 11.1552 36.192 8.31922 32.3225C5.48336 28.4529 3.98438 23.8718 3.98438 19.0743V7.14062C3.98438 6.49344 4.50906 5.96875 5.15625 5.96875C8.54102 5.96875 11.6184 4.11281 13.1942 1.12516C13.397 0.740703 13.796 0.5 14.2307 0.5H25.7692C26.2039 0.5 26.603 0.740625 26.8058 1.12516C28.3816 4.11281 31.459 5.96875 34.8367 5.96875C35.4839 5.96875 36.0156 6.49344 36.0156 7.14062V19.0743C36.0156 23.8718 34.5166 28.4529 31.6808 32.3224C28.8448 36.192 24.9277 39.0009 20.3529 40.4455C20.238 40.4819 20.119 40.5 20 40.5Z" fill="#9DDFF6"/>
<path d="M34.8367 5.96875C31.459 5.96875 28.3816 4.11281 26.8058 1.12516C26.603 0.740625 26.204 0.5 25.7693 0.5H20V40.5C20.119 40.5 20.238 40.4819 20.3529 40.4456C24.9277 39.0009 28.8448 36.192 31.6808 32.3225C34.5166 28.4529 36.0156 23.8718 36.0156 19.0743V7.14062C36.0156 6.49344 35.4839 5.96875 34.8367 5.96875Z" fill="#6BA7FF"/>
<path d="M20 35.5142C19.8466 35.5142 19.6933 35.4841 19.549 35.424C12.9413 32.6687 8.67188 26.2511 8.67188 19.0744V11.0801C8.67188 10.5739 8.99688 10.1249 9.47773 9.9668C11.9651 9.14906 14.1557 7.64523 15.8127 5.61781C16.0353 5.34547 16.3684 5.1875 16.7201 5.1875H23.2798C23.6316 5.1875 23.9648 5.34547 24.1873 5.61781C25.8442 7.64555 28.0348 9.14961 30.5223 9.96758C31.0031 10.1257 31.328 10.5747 31.328 11.0809V19.0744C31.328 26.2511 27.0586 32.6687 20.4509 35.4239C20.3067 35.4841 20.1534 35.5142 20 35.5142Z" fill="#F5F5FF"/>
<path d="M30.5223 9.96758C28.0349 9.14961 25.8443 7.64555 24.1873 5.61781C23.9648 5.34547 23.6316 5.1875 23.2798 5.1875H20V35.5142C20.1534 35.5142 20.3067 35.4841 20.451 35.424C27.0587 32.6687 31.3281 26.2511 31.3281 19.0744V11.0809C31.3281 10.5747 31.0032 10.1257 30.5223 9.96758Z" fill="#E2E7FA"/>
<path d="M18.1771 25.2468C17.8771 25.2468 17.5772 25.1324 17.3485 24.9035L13.7026 21.2576C13.245 20.8 13.245 20.058 13.7026 19.6004C14.1602 19.1427 14.9022 19.1427 15.3599 19.6004L18.1771 22.4175L24.6402 15.9546C25.0978 15.4969 25.8398 15.4969 26.2975 15.9546C26.7551 16.4122 26.7551 17.1542 26.2975 17.6118L19.0058 24.9035C18.7769 25.1324 18.477 25.2468 18.1771 25.2468Z" fill="#6B61B1"/>
<path d="M24.6402 15.9546L20 20.5947V23.9092L26.2973 17.6119C26.755 17.1542 26.755 16.4123 26.2973 15.9546C25.8398 15.4969 25.0977 15.4969 24.6402 15.9546Z" fill="#453D81"/>
</g>
<defs>
<clipPath id="clip0_1025_14416">
<rect width="40" height="40" fill="white" transform="translate(0 0.5)"/>
</clipPath>
</defs>
</svg>
