<svg width="40" height="41" viewBox="0 0 40 41" fill="none" xmlns="http://www.w3.org/2000/svg">
<g clip-path="url(#clip0_1_22)">
<path d="M28.2812 22.8438V24.0156H7.03125V19.3281H24.7656C26.711 19.3281 28.2812 20.8984 28.2812 22.8438Z" fill="#E7E7F2"/>
<path d="M28.2812 22.8438V24.0156H21.1719V19.3281H24.7656C26.711 19.3281 28.2812 20.8984 28.2812 22.8438Z" fill="#CECEE6"/>
<path d="M11.7188 34.6406H14.0625V39.3281H11.7188V34.6406Z" fill="#465A61"/>
<path d="M28.2812 34.6406H30.625V39.3281H28.2812V34.6406Z" fill="#3B4A51"/>
<path d="M35.3125 34.6406V35.8125H7.61719L0 1.17961L2.27336 0.640624C4.78117 0.0312494 7.3125 1.55469 7.92188 4.08586L13.1484 28.7031H29.4531C32.6875 28.7031 35.3125 31.4062 35.3125 34.6406Z" fill="#76E2F8"/>
<path d="M32.9688 0.5C29.1015 0.5 25.9375 3.66398 25.9375 7.53125V12.2969C25.9375 16.164 29.1015 19.3281 32.9688 19.3281C36.836 19.3281 40 16.164 40 12.2969V7.53125C40 3.66398 36.836 0.5 32.9688 0.5Z" fill="#596C76"/>
<path d="M40 7.53125V12.2969C40 16.164 36.836 19.3281 32.9688 19.3281V0.5C36.836 0.5 40 3.66398 40 7.53125Z" fill="#465A61"/>
<path d="M37.6562 7.53125L35.3125 9.875H30.625L28.2812 7.53125C28.2812 4.95305 30.3907 2.84375 32.9688 2.84375C35.5468 2.84375 37.6562 4.95305 37.6562 7.53125Z" fill="#F2F2F2"/>
<path d="M37.6562 7.53125L35.3125 9.875H32.9688V2.84375C35.5468 2.84375 37.6562 4.95305 37.6562 7.53125Z" fill="#E7E7F2"/>
<path d="M28.2812 7.53125V12.2969C28.2812 14.8749 30.3907 16.9844 32.9688 16.9844C35.5468 16.9844 37.6562 14.8749 37.6562 12.2969V7.53125H28.2812Z" fill="#76E2F8"/>
<path d="M37.6562 7.53125V12.2969C37.6562 14.8749 35.5468 16.9844 32.9688 16.9844V7.53125H37.6562Z" fill="#4BB9EC"/>
<path d="M35.3125 34.6406V35.8125H21.1719V28.7031H29.4531C32.6875 28.7031 35.3125 31.4062 35.3125 34.6406Z" fill="#4BB9EC"/>
<path d="M7.03125 38.1562H35.3125V40.5H7.03125V38.1562Z" fill="#596C76"/>
<path d="M21.1719 38.1562H35.3125V40.5H21.1719V38.1562Z" fill="#465A61"/>
</g>
<defs>
<clipPath id="clip0_1_22">
<rect width="40" height="40" fill="white" transform="translate(0 0.5)"/>
</clipPath>
</defs>
</svg>
