<svg width="12" height="18" viewBox="0 0 12 18" fill="none" xmlns="http://www.w3.org/2000/svg">
<path d="M0.0859375 1.73405V16.2353C0.0859375 16.4794 0.135418 16.7153 0.233007 16.9365C0.325943 17.1472 0.458129 17.3346 0.625898 17.4934C0.950816 17.8009 1.37556 17.9702 1.82193 17.9702C2.20361 17.9702 2.56688 17.8468 2.8725 17.6134L5.99997 15.2246L9.12738 17.6133C9.433 17.8468 9.79631 17.9701 10.178 17.9701C10.6244 17.9701 11.0491 17.8008 11.374 17.4933C11.5418 17.3345 11.674 17.1472 11.7669 16.9365C11.8645 16.7153 11.914 16.4794 11.914 16.2352V1.73405C11.914 0.777878 11.1361 0 10.1799 0H1.81999C0.863816 0 0.0859375 0.777908 0.0859375 1.73405ZM10.6363 1.73405V16.2353C10.6363 16.5058 10.4143 16.6925 10.178 16.6925C10.0842 16.6925 9.98829 16.6631 9.90296 16.5979L6.27696 13.8285C6.19518 13.766 6.09759 13.7348 5.99997 13.7348C5.90235 13.7348 5.80476 13.766 5.72298 13.8285L2.09698 16.5979C2.01171 16.6631 1.91567 16.6924 1.82193 16.6924C1.58562 16.6924 1.36366 16.5058 1.36366 16.2353V1.73405C1.36366 1.48203 1.56797 1.27772 1.81999 1.27772H10.1799C10.432 1.27772 10.6363 1.48203 10.6363 1.73405Z" fill="#222222"/>
</svg>
