<svg width="24" height="24" viewBox="0 0 24 24" fill="none" xmlns="http://www.w3.org/2000/svg">
<g clip-path="url(#clip0_2289_56626)">
<path d="M23.5312 9.6797H19.6875V8.6875C19.6875 8.42861 19.4776 8.21875 19.2188 8.21875H9.09375C8.83491 8.21875 8.625 8.42861 8.625 8.6875C8.625 8.94639 8.83491 9.15625 9.09375 9.15625H18.75V12.75C18.75 15.9069 17.0645 18.841 14.3429 20.4375H5.34459C2.62298 18.841 0.9375 15.9069 0.9375 12.75V9.1563H4.07812C4.33697 9.1563 4.54688 8.94644 4.54688 8.68755C4.54688 8.42866 4.33697 8.2188 4.07812 8.2188H0.46875C0.209906 8.2188 0 8.42866 0 8.68755V12.75C0 14.5219 0.47625 16.2593 1.37728 17.7742C1.98492 18.796 2.77336 19.6982 3.69666 20.4375H0.46875C0.209906 20.4375 0 20.6474 0 20.9063C0 22.6122 1.38783 24 3.09375 24H17.7188C19.4247 24 20.8125 22.6122 20.8125 20.9063C20.8125 20.6474 20.6026 20.4375 20.3438 20.4375H15.9908C16.8406 19.7571 17.5758 18.9383 18.1613 18.0156H19.4844C21.9743 18.0156 24 15.9899 24 13.5V10.1485C24 9.88956 23.7901 9.6797 23.5312 9.6797ZM19.8237 21.375C19.6091 22.3393 18.7468 23.0625 17.7188 23.0625H3.09375C2.06573 23.0625 1.20347 22.3393 0.988828 21.375H5.21902H14.4685H19.8237ZM19.6875 12.75V12.4922H21.1875V13.5C21.1875 14.4391 20.4235 15.2031 19.4844 15.2031H19.3779C19.5825 14.406 19.6875 13.5818 19.6875 12.75ZM23.0625 13.5C23.0625 15.473 21.4574 17.0781 19.4844 17.0781H18.6866C18.8363 16.7725 18.9699 16.4595 19.0868 16.1406H19.4844C20.9405 16.1406 22.125 14.956 22.125 13.5V12.0235C22.125 11.7646 21.9151 11.5547 21.6562 11.5547H19.6875V10.6172H23.0625V13.5Z" fill="#00264D"/>
<path d="M10.2914 2.59422L10.0475 2.28798C9.68945 1.83855 9.68893 1.21028 10.0462 0.760188C10.2072 0.557406 10.1732 0.262563 9.97046 0.101641C9.76763 -0.0593748 9.47284 -0.0253905 9.31187 0.177391C8.68177 0.971266 8.68271 2.07934 9.31416 2.87209L9.55806 3.17833C10.0259 3.76567 10.0266 4.58669 9.55974 5.17492L9.30981 5.48983C9.14884 5.69261 9.18277 5.98745 9.38556 6.14837C9.47176 6.21677 9.57456 6.25 9.67665 6.25C9.81474 6.25 9.95157 6.18925 10.0441 6.07263L10.2941 5.75772C11.0338 4.82575 11.0327 3.52488 10.2914 2.59422Z" fill="#00264D"/>
<path d="M12.8896 3.64817L12.6457 3.34199C12.2877 2.8925 12.2872 2.26424 12.6444 1.81414C12.8054 1.61136 12.7715 1.31652 12.5687 1.1556C12.3659 0.99458 12.0711 1.02856 11.9101 1.23135C11.28 2.02522 11.2809 3.1333 11.9124 3.9261L12.1563 4.23233C12.6241 4.81972 12.6248 5.64078 12.1579 6.22897L11.908 6.54383C11.7471 6.74661 11.781 7.04146 11.9838 7.20238C12.07 7.27077 12.1728 7.30396 12.2749 7.30396C12.413 7.30396 12.5499 7.24316 12.6424 7.12658L12.8922 6.81172C13.632 5.8798 13.6309 4.57892 12.8896 3.64817Z" fill="#00264D"/>
<path d="M7.69314 3.64793L7.44925 3.34174C7.09122 2.8923 7.0907 2.26399 7.44793 1.8139C7.6089 1.61112 7.57497 1.31627 7.37218 1.1553C7.16936 0.994334 6.87456 1.02837 6.71359 1.23105C6.08354 2.02493 6.08448 3.13305 6.71593 3.9258L6.95982 4.23204C7.42764 4.81943 7.42834 5.64049 6.96151 6.22863L6.71157 6.54349C6.55061 6.74627 6.5845 7.04111 6.78728 7.20208C6.87348 7.27047 6.97623 7.30371 7.07837 7.30371C7.21647 7.30371 7.35329 7.24296 7.44582 7.12638L7.69581 6.81147C8.4355 5.87955 8.43442 4.57868 7.69314 3.64793Z" fill="#00264D"/>
<path d="M7.04439 8.35585C6.9572 8.26866 6.83626 8.21851 6.71298 8.21851C6.5897 8.21851 6.46876 8.26866 6.38158 8.35585C6.29443 8.44351 6.24423 8.56397 6.24423 8.68726C6.24423 8.81054 6.29439 8.93147 6.38158 9.01913C6.46876 9.10632 6.5897 9.15601 6.71298 9.15601C6.83626 9.15601 6.9572 9.10632 7.04439 9.01913C7.132 8.93147 7.18173 8.81101 7.18173 8.68726C7.18173 8.56397 7.132 8.44304 7.04439 8.35585Z" fill="#00264D"/>
<path d="M16.9688 12.2812C16.7099 12.2812 16.5 12.4911 16.5 12.75C16.5 14.49 15.7943 16.1999 14.5637 17.4414C14.3814 17.6252 14.3828 17.922 14.5667 18.1043C14.6581 18.1949 14.7774 18.2401 14.8967 18.2401C15.0173 18.2401 15.138 18.1938 15.2296 18.1013C16.6328 16.6857 17.4375 14.7352 17.4375 12.75C17.4375 12.4911 17.2276 12.2812 16.9688 12.2812Z" fill="#00264D"/>
<path d="M13.7757 18.7141C13.6485 18.4886 13.3626 18.409 13.1372 18.5361L13.1265 18.5422C12.901 18.6694 12.8213 18.9553 12.9485 19.1808C13.0346 19.3335 13.1935 19.4193 13.3572 19.4193C13.4352 19.4193 13.5143 19.3998 13.5871 19.3587L13.5978 19.3527C13.8233 19.2255 13.9029 18.9396 13.7757 18.7141Z" fill="#00264D"/>
</g>
<defs>
<clipPath id="clip0_2289_56626">
<rect width="24" height="24" fill="white"/>
</clipPath>
</defs>
</svg>
