<svg width="25" height="24" viewBox="0 0 25 24" fill="none" xmlns="http://www.w3.org/2000/svg">
<g clip-path="url(#clip0_1418_19571)">
<path d="M12.2176 6.10384C12.2176 2.73813 9.47946 0 6.11381 0C-1.97265 0.306882 -1.97044 11.9021 6.1139 12.2077C9.47946 12.2077 12.2176 9.46954 12.2176 6.10384ZM0.949023 6.10384C0.949023 3.25597 3.26594 0.939052 6.11381 0.939052C12.9562 1.1987 12.9543 11.0101 6.11376 11.2687C3.26594 11.2687 0.949023 8.95175 0.949023 6.10384Z" fill="#00264D"/>
<path d="M17.9459 11.8322C14.5802 11.8322 11.842 14.5703 11.842 17.936C12.1489 26.0225 23.7441 26.0203 24.0497 17.9359C24.0497 14.5703 21.3116 11.8322 17.9459 11.8322ZM17.9459 23.1008C15.098 23.1008 12.7811 20.7839 12.7811 17.936C13.0407 11.0936 22.852 11.0955 23.1107 17.936C23.1107 20.7839 20.7937 23.1008 17.9459 23.1008Z" fill="#00264D"/>
<path d="M14.2333 5.4968C14.4167 5.68015 14.714 5.68015 14.8974 5.4968C15.0807 5.31345 15.0807 5.01615 14.8974 4.83275L14.7598 4.69523H17.4764V10.4235C17.4995 11.0458 18.3926 11.0453 18.4155 10.4235V4.22575C18.4155 3.96643 18.2052 3.75623 17.9459 3.75623H14.7598L14.8974 3.6187C15.0807 3.43535 15.0807 3.13805 14.8974 2.95465C14.714 2.7713 14.4167 2.7713 14.2333 2.95465L13.2943 3.8937C13.1109 4.07705 13.1109 4.37436 13.2943 4.55775L14.2333 5.4968Z" fill="#00264D"/>
<path d="M9.82645 18.5431C9.37007 18.1194 8.73893 18.7512 9.16244 19.2071L9.29992 19.3446H6.58334V13.6163C6.56024 12.994 5.66715 12.9945 5.64429 13.6163V19.8141C5.64429 20.0734 5.85449 20.2837 6.11381 20.2837H9.29992L9.1624 20.4212C8.7387 20.8776 9.37054 21.5087 9.82645 21.0852L10.7655 20.1462C10.9473 19.9713 10.9473 19.657 10.7655 19.4821L9.82645 18.5431Z" fill="#00264D"/>
<path d="M6.58336 9.15577V8.71408C6.6838 8.68065 6.78165 8.63675 6.8755 8.58252C8.07542 7.90415 7.83127 6.06882 6.49932 5.72104L5.97138 5.57962C5.44002 5.44064 5.34199 4.70889 5.82165 4.43839C5.96664 4.35468 6.1344 4.33214 6.29418 4.37496L6.9541 4.55178C7.20459 4.61883 7.46204 4.47023 7.52913 4.21978C7.59627 3.96934 7.44762 3.71185 7.19713 3.64475L6.58336 3.48033V3.05188C6.56026 2.42957 5.66718 2.43004 5.64431 3.05188V3.49357C5.54388 3.527 5.44603 3.5709 5.35213 3.62508C4.98993 3.83421 4.73109 4.17076 4.62338 4.57277C4.40035 5.40505 4.89603 6.26358 5.72831 6.48665L6.25625 6.62807C6.58839 6.7171 6.7862 7.05966 6.69718 7.39181C6.6544 7.55149 6.55097 7.68554 6.40593 7.76926C6.26089 7.85297 6.09309 7.87551 5.93345 7.83278L5.27353 7.65596C4.66648 7.51707 4.43575 8.38002 5.03046 8.56299L5.64422 8.72747V9.15577C5.66741 9.77808 6.5605 9.77761 6.58336 9.15577Z" fill="#00264D"/>
<path d="M19.0903 19.7842C18.3896 20.2794 17.4621 20.0416 16.9768 19.3446H18.2589C18.8812 19.3215 18.8808 18.4284 18.2589 18.4056H16.5802C16.5233 18.1055 16.5233 17.7665 16.5802 17.4665H18.2589C18.8812 17.4434 18.8808 16.5503 18.2589 16.5275H16.9768C17.4621 15.8304 18.3896 15.5927 19.0904 16.0878C19.3047 16.2337 19.5968 16.1782 19.7427 15.9637C19.8886 15.7494 19.833 15.4573 19.6186 15.3114C18.2932 14.3816 16.5311 15.057 15.899 16.5275H15.5983C14.976 16.5506 14.9764 17.4436 15.5983 17.4665H15.6297C15.5879 17.7713 15.5879 18.1008 15.6297 18.4056H15.5983C14.976 18.4287 14.9764 19.3217 15.5983 19.3446H15.899C16.5311 20.8152 18.2934 21.4904 19.6186 20.5606C19.833 20.4147 19.8886 20.1227 19.7427 19.9083C19.5968 19.6938 19.3048 19.6384 19.0903 19.7842Z" fill="#00264D"/>
</g>
<defs>
<clipPath id="clip0_1418_19571">
<rect width="24" height="24" fill="white" transform="translate(0.0498047)"/>
</clipPath>
</defs>
</svg>
