<svg width="25" height="24" viewBox="0 0 25 24" fill="none" xmlns="http://www.w3.org/2000/svg">
<path d="M17.2998 5.625H15.0498V2.625H15.4248C15.5243 2.625 15.6196 2.58549 15.69 2.51516C15.7603 2.44484 15.7998 2.34946 15.7998 2.25V0.75C15.7998 0.650544 15.7603 0.555161 15.69 0.484835C15.6196 0.414509 15.5243 0.375 15.4248 0.375H8.6748C8.57535 0.375 8.47997 0.414509 8.40964 0.484835C8.33931 0.555161 8.2998 0.650544 8.2998 0.75V2.25C8.2998 2.34946 8.33931 2.44484 8.40964 2.51516C8.47997 2.58549 8.57535 2.625 8.6748 2.625H9.0498V5.625H6.7998C6.20326 5.62563 5.63133 5.86289 5.20951 6.28471C4.78769 6.70653 4.55044 7.27846 4.5498 7.875V21.375C4.55044 21.9715 4.78769 22.5435 5.20951 22.9653C5.63133 23.3871 6.20326 23.6244 6.7998 23.625H17.2998C17.8963 23.6244 18.4683 23.3871 18.8901 22.9653C19.3119 22.5435 19.5492 21.9715 19.5498 21.375V7.875C19.5492 7.27846 19.3119 6.70653 18.8901 6.28471C18.4683 5.86289 17.8963 5.62563 17.2998 5.625ZM9.0498 1.125H15.0498V1.875H9.0498V1.125ZM14.2998 2.625V5.625H13.9248V2.625H14.2998ZM13.1748 2.625V5.625H10.9248V2.625H13.1748ZM10.1748 2.625V5.625H9.7998V2.625H10.1748ZM18.7998 21.375C18.7993 21.7727 18.6411 22.1539 18.3599 22.4351C18.0787 22.7163 17.6975 22.8745 17.2998 22.875H6.7998C6.40214 22.8745 6.02091 22.7163 5.73972 22.4351C5.45853 22.1539 5.30033 21.7727 5.2998 21.375V7.875C5.30033 7.47733 5.45853 7.09611 5.73972 6.81492C6.02091 6.53372 6.40214 6.37552 6.7998 6.375H17.2998C17.6975 6.37552 18.0787 6.53372 18.3599 6.81492C18.6411 7.09611 18.7993 7.47733 18.7998 7.875V21.375Z" fill="#00264D"/>
<path d="M12.7998 8.625H11.2998C11.2003 8.625 11.105 8.66451 11.0346 8.73483C10.9643 8.80516 10.9248 8.90054 10.9248 9V20.25C10.9248 20.3495 10.9643 20.4448 11.0346 20.5152C11.105 20.5855 11.2003 20.625 11.2998 20.625H12.7998C12.8993 20.625 12.9946 20.5855 13.065 20.5152C13.1353 20.4448 13.1748 20.3495 13.1748 20.25V9C13.1748 8.90054 13.1353 8.80516 13.065 8.73483C12.9946 8.66451 12.8993 8.625 12.7998 8.625ZM12.4248 19.875H11.6748V9.375H12.4248V19.875Z" fill="#00264D"/>
<path d="M9.0498 8.625H7.5498C7.45035 8.625 7.35497 8.66451 7.28464 8.73483C7.21431 8.80516 7.1748 8.90054 7.1748 9V20.25C7.1748 20.3495 7.21431 20.4448 7.28464 20.5152C7.35497 20.5855 7.45035 20.625 7.5498 20.625H9.0498C9.14926 20.625 9.24464 20.5855 9.31497 20.5152C9.3853 20.4448 9.4248 20.3495 9.4248 20.25V9C9.4248 8.90054 9.3853 8.80516 9.31497 8.73483C9.24464 8.66451 9.14926 8.625 9.0498 8.625ZM8.6748 19.875H7.9248V9.375H8.6748V19.875Z" fill="#00264D"/>
<path d="M16.5498 8.625H15.0498C14.9503 8.625 14.855 8.66451 14.7846 8.73483C14.7143 8.80516 14.6748 8.90054 14.6748 9V20.25C14.6748 20.3495 14.7143 20.4448 14.7846 20.5152C14.855 20.5855 14.9503 20.625 15.0498 20.625H16.5498C16.6493 20.625 16.7446 20.5855 16.815 20.5152C16.8853 20.4448 16.9248 20.3495 16.9248 20.25V9C16.9248 8.90054 16.8853 8.80516 16.815 8.73483C16.7446 8.66451 16.6493 8.625 16.5498 8.625ZM16.1748 19.875H15.4248V9.375H16.1748V19.875Z" fill="#00264D"/>
<path d="M6.4248 7.875C6.63191 7.875 6.7998 7.70711 6.7998 7.5C6.7998 7.29289 6.63191 7.125 6.4248 7.125C6.2177 7.125 6.0498 7.29289 6.0498 7.5C6.0498 7.70711 6.2177 7.875 6.4248 7.875Z" fill="#00264D"/>
<path d="M17.6748 7.875C17.8819 7.875 18.0498 7.70711 18.0498 7.5C18.0498 7.29289 17.8819 7.125 17.6748 7.125C17.4677 7.125 17.2998 7.29289 17.2998 7.5C17.2998 7.70711 17.4677 7.875 17.6748 7.875Z" fill="#00264D"/>
<path d="M6.4248 22.125C6.63191 22.125 6.7998 21.9571 6.7998 21.75C6.7998 21.5429 6.63191 21.375 6.4248 21.375C6.2177 21.375 6.0498 21.5429 6.0498 21.75C6.0498 21.9571 6.2177 22.125 6.4248 22.125Z" fill="#00264D"/>
<path d="M17.6748 22.125C17.8819 22.125 18.0498 21.9571 18.0498 21.75C18.0498 21.5429 17.8819 21.375 17.6748 21.375C17.4677 21.375 17.2998 21.5429 17.2998 21.75C17.2998 21.9571 17.4677 22.125 17.6748 22.125Z" fill="#00264D"/>
</svg>
