<svg width="25" height="24" viewBox="0 0 25 24" fill="none" xmlns="http://www.w3.org/2000/svg">
<g clip-path="url(#clip0_1418_19913)">
<path d="M6.1668 9.41967H13.548C13.9096 9.41967 14.2038 9.12548 14.2038 8.76384V1.38267C14.2038 1.02103 13.9096 0.726797 13.548 0.726797H6.1668C5.80516 0.726797 5.51098 1.02103 5.51098 1.38267V1.536H4.25149V1.24978C4.25149 0.560625 3.69087 0 3.00171 0C2.31255 0 1.75193 0.560625 1.75193 1.24978V14.1718C1.75193 14.366 1.90934 14.5234 2.10349 14.5234C2.29765 14.5234 2.45505 14.366 2.45505 14.1718V1.24978C2.45505 0.948328 2.70026 0.703125 3.00171 0.703125C3.30316 0.703125 3.54837 0.948328 3.54837 1.24978V1.88756V3.58172V6.56475V8.25891V21.3011H2.45505V15.7756C2.45505 15.5815 2.29765 15.4241 2.10349 15.4241C1.90934 15.4241 1.75193 15.5815 1.75193 15.7756V21.3011H1.39793C0.654539 21.3011 0.0498047 21.9053 0.0498047 22.6479V23.4412C0.0498047 23.7471 0.298711 23.996 0.604664 23.996H5.39876C5.70541 23.996 5.95493 23.7471 5.95493 23.4412V22.6479C5.95493 21.9053 5.3502 21.3011 4.6068 21.3011H4.25145V8.61047H5.51088V8.7638C5.51093 9.12548 5.80516 9.41967 6.1668 9.41967ZM5.25185 22.6479V23.2929H0.75293V22.6479C0.75293 22.293 1.04229 22.0042 1.39793 22.0042H2.10349H3.89993H4.60685C4.96249 22.0042 5.25185 22.293 5.25185 22.6479ZM4.25149 3.93333H5.51093V6.21323H4.25149V3.93333ZM6.21405 1.42992H13.5007V8.71655H6.21405V8.25891V6.56475V3.58177V1.88761V1.42992ZM5.51093 2.23917V3.2302H4.25149V2.23917H5.51093ZM4.25149 7.90734V6.91631H5.51093V7.90734H4.25149Z" fill="#00264D"/>
<path d="M24.0498 14.8137C24.0498 14.0206 23.4081 13.3752 22.6193 13.3752H21.2752L20.815 12.4043C20.5371 11.8182 20.3271 11.4183 19.954 11.209C19.6096 11.0158 19.2165 11.0172 18.5012 11.0193L12.6043 11.0194L12.5571 11.0193C11.8429 11.017 11.4496 11.0158 11.1053 11.2091C10.7324 11.4183 10.5224 11.8182 10.2446 12.4043L9.78434 13.3752H8.4403C7.65148 13.3752 7.00977 14.0205 7.00977 14.8137C7.00977 15.6004 7.64098 16.2412 8.4208 16.2517L8.01378 17.1104C7.78695 17.5876 7.7712 17.6535 7.77341 18.1174C7.77359 18.1581 7.77378 21.3153 7.77378 21.3153C7.77378 21.581 7.77416 21.9901 8.15248 22.141V23.1211C8.15248 23.6058 8.54684 24.0001 9.03153 24.0001H10.6619C11.1459 24.0001 11.5396 23.6058 11.5396 23.1211V22.1997H14.7398C14.934 22.1997 15.0914 22.0422 15.0914 21.8481C15.0914 21.6539 14.934 21.4965 14.7398 21.4965H8.50405C8.49547 21.4965 8.48759 21.4964 8.48038 21.4962C8.47691 21.4375 8.47667 18.1558 8.47648 18.1141C8.47494 17.7781 8.47494 17.7781 8.64898 17.4119L9.19869 16.2522H21.8608L22.4107 17.4123C22.5836 17.7758 22.5836 17.7758 22.5818 18.108C22.5815 18.1514 22.5813 21.4375 22.5779 21.4963C22.5711 21.4965 16.3396 21.4966 16.3396 21.4966C16.1454 21.4966 15.9881 21.654 15.9881 21.8482C15.9881 22.0423 16.1454 22.1997 16.3396 22.1997H19.5185V23.1211C19.5185 23.6059 19.9129 24.0002 20.3976 24.0002H22.028C22.5127 24.0002 22.907 23.6058 22.907 23.1211V22.1408C23.2841 21.9897 23.2844 21.5809 23.2844 21.3154C23.2844 21.3154 23.2847 18.1539 23.2849 18.1116C23.2873 17.6558 23.2694 17.5809 23.0459 17.1108L22.6387 16.2518C23.4185 16.2412 24.0498 15.6004 24.0498 14.8137ZM7.71289 14.8137C7.71289 14.4083 8.03919 14.0784 8.4403 14.0784H9.45106L8.75394 15.5491H8.44034C8.03919 15.5491 7.71289 15.2192 7.71289 14.8137ZM10.8365 22.1997V23.121C10.8365 23.2164 10.7566 23.2969 10.6619 23.2969H9.03158C8.93619 23.2969 8.85566 23.2164 8.85566 23.121V22.1997H10.8365ZM10.88 12.7054C11.1266 12.1851 11.2747 11.9203 11.4494 11.8223C11.6324 11.7196 11.9793 11.7205 12.5549 11.7224L18.4561 11.7226L18.5034 11.7224C19.0795 11.7205 19.4269 11.7196 19.6101 11.8223C19.7849 11.9203 19.933 12.1852 20.1796 12.7054L21.5276 15.5491H9.53202L10.88 12.7054ZM22.204 23.1211C22.204 23.2165 22.1234 23.297 22.028 23.297H20.3976C20.3023 23.297 20.2217 23.2164 20.2217 23.1211V22.1997H22.204V23.1211ZM22.6193 15.5491H22.3057L21.6085 14.0784H22.6193C23.0204 14.0784 23.3467 14.4083 23.3467 14.8137C23.3467 15.2192 23.0204 15.5491 22.6193 15.5491Z" fill="#00264D"/>
<path d="M13.7473 18.7236H17.3123C17.5065 18.7236 17.6639 18.5662 17.6639 18.3721C17.6639 18.1779 17.5065 18.0205 17.3123 18.0205H13.7473C13.5531 18.0205 13.3958 18.1779 13.3958 18.3721C13.3958 18.5662 13.5531 18.7236 13.7473 18.7236Z" fill="#00264D"/>
<path d="M13.7473 20.3127H17.3123C17.5065 20.3127 17.6639 20.1553 17.6639 19.9612C17.6639 19.767 17.5065 19.6096 17.3123 19.6096H13.7473C13.5531 19.6096 13.3958 19.767 13.3958 19.9612C13.3958 20.1553 13.5531 20.3127 13.7473 20.3127Z" fill="#00264D"/>
<path d="M21.4308 18.8356C21.4308 18.0212 20.7688 17.3586 19.9551 17.3586C19.1407 17.3586 18.4781 18.0212 18.4781 18.8356C18.4781 19.65 19.1407 20.3127 19.9551 20.3127C20.7688 20.3126 21.4308 19.65 21.4308 18.8356ZM19.1813 18.8356C19.1813 18.4089 19.5284 18.0618 19.9551 18.0618C20.3811 18.0618 20.7277 18.4089 20.7277 18.8356C20.7277 19.2624 20.3811 19.6095 19.9551 19.6095C19.5284 19.6095 19.1813 19.2623 19.1813 18.8356Z" fill="#00264D"/>
<path d="M9.62866 18.8356C9.62866 19.6501 10.2907 20.3127 11.1043 20.3127C11.9188 20.3127 12.5813 19.6501 12.5813 18.8356C12.5813 18.0212 11.9187 17.3586 11.1043 17.3586C10.2907 17.3586 9.62866 18.0212 9.62866 18.8356ZM11.8782 18.8356C11.8782 19.2624 11.5311 19.6095 11.1044 19.6095C10.6784 19.6095 10.3318 19.2624 10.3318 18.8356C10.3318 18.4089 10.6784 18.0618 11.1044 18.0618C11.5311 18.0617 11.8782 18.4089 11.8782 18.8356Z" fill="#00264D"/>
<path d="M9.95497 2.13086H8.51221C8.32091 2.13086 8.16064 2.29108 8.16064 2.48242V7.66403C8.16064 7.85819 8.31805 8.01559 8.51221 8.01559C8.70636 8.01559 8.86377 7.85819 8.86377 7.66403V5.76297C9.20164 5.76109 9.7048 5.75852 9.95497 5.75852C10.9709 5.75852 11.7974 4.94486 11.7974 3.94469C11.7974 2.94452 10.9709 2.13086 9.95497 2.13086ZM9.95497 5.05539C9.7063 5.05539 9.21032 5.05792 8.87179 5.0598C8.86986 4.71273 8.86733 4.19833 8.86733 3.94469C8.86733 3.73122 8.86588 3.19464 8.8648 2.83398H9.95493C10.5725 2.83398 11.0943 3.34262 11.0943 3.94469C11.0943 4.54675 10.5725 5.05539 9.95497 5.05539Z" fill="#00264D"/>
</g>
<defs>
<clipPath id="clip0_1418_19913">
<rect width="24" height="24" fill="white" transform="translate(0.0498047)"/>
</clipPath>
</defs>
</svg>
