<svg width="25" height="24" viewBox="0 0 25 24" fill="none" xmlns="http://www.w3.org/2000/svg">
<path d="M17.4771 14.2333C17.0944 13.8348 16.6328 13.6217 16.1435 13.6217C15.6582 13.6217 15.1926 13.8308 14.7941 14.2293L13.5473 15.4722C13.4448 15.417 13.3422 15.3657 13.2435 15.3144C13.1015 15.2434 12.9673 15.1763 12.8529 15.1053C11.685 14.3635 10.6237 13.3968 9.60572 12.1461C9.11253 11.5227 8.7811 10.9979 8.54042 10.4653C8.86396 10.1694 9.16382 9.8616 9.45579 9.56568C9.56627 9.4552 9.67674 9.34078 9.78722 9.23031C10.6158 8.40174 10.6158 7.32854 9.78722 6.49997L8.71008 5.42283C8.58777 5.30052 8.46151 5.17426 8.34314 5.048C8.10641 4.80338 7.85784 4.55086 7.60137 4.31413C7.21865 3.93535 6.76097 3.73413 6.27961 3.73413C5.79825 3.73413 5.33267 3.93535 4.93812 4.31413C4.93417 4.31807 4.93417 4.31807 4.93022 4.32202L3.58873 5.67535C3.0837 6.18038 2.79567 6.79589 2.73254 7.51004C2.63785 8.66214 2.97717 9.73534 3.23758 10.4376C3.87676 12.1619 4.83159 13.7598 6.25594 15.4722C7.98409 17.5357 10.0634 19.1652 12.4386 20.3134C13.3461 20.7435 14.5574 21.2524 15.9107 21.3393C15.9936 21.3432 16.0804 21.3471 16.1593 21.3471C17.0707 21.3471 17.8362 21.0197 18.4359 20.3686C18.4398 20.3608 18.4477 20.3568 18.4517 20.3489C18.6569 20.1003 18.8936 19.8754 19.1422 19.6348C19.3118 19.473 19.4854 19.3033 19.6551 19.1258C20.0457 18.7194 20.2509 18.2459 20.2509 17.7606C20.2509 17.2714 20.0417 16.8018 19.6432 16.4073L17.4771 14.2333ZM18.8896 18.388C18.8857 18.388 18.8857 18.3919 18.8896 18.388C18.7358 18.5537 18.5779 18.7036 18.4083 18.8693C18.1518 19.114 17.8914 19.3704 17.6468 19.6584C17.2483 20.0846 16.7788 20.2858 16.1633 20.2858C16.1041 20.2858 16.0409 20.2858 15.9818 20.2818C14.8099 20.2069 13.7209 19.7492 12.9042 19.3586C10.671 18.2775 8.71008 16.7427 7.08056 14.7975C5.73512 13.1759 4.83553 11.6766 4.23975 10.0668C3.87281 9.08432 3.73866 8.31888 3.79785 7.59684C3.8373 7.13521 4.01485 6.75249 4.34234 6.42501L5.68777 5.07957C5.88111 4.89807 6.08628 4.79943 6.2875 4.79943C6.53607 4.79943 6.73729 4.94937 6.86355 5.07562C6.8675 5.07957 6.87144 5.08352 6.87539 5.08746C7.11607 5.31236 7.34491 5.54515 7.58559 5.79372C7.7079 5.91998 7.83416 6.04623 7.96042 6.17644L9.03756 7.25358C9.45579 7.67181 9.45579 8.05847 9.03756 8.4767C8.92314 8.59112 8.81266 8.70555 8.69824 8.81602C8.36681 9.15534 8.05117 9.47099 7.7079 9.77874C7.70001 9.78663 7.69212 9.79058 7.68818 9.79847C7.34886 10.1378 7.41199 10.4692 7.48301 10.6941C7.48695 10.7059 7.4909 10.7178 7.49484 10.7296C7.77498 11.4083 8.16954 12.0474 8.76926 12.8089L8.77321 12.8129C9.86218 14.1544 11.0103 15.1999 12.2769 16.0009C12.4386 16.1035 12.6044 16.1863 12.7622 16.2653C12.9042 16.3363 13.0384 16.4033 13.1528 16.4744C13.1686 16.4823 13.1844 16.4941 13.2001 16.502C13.3343 16.5691 13.4605 16.6006 13.5907 16.6006C13.9182 16.6006 14.1234 16.3955 14.1905 16.3284L15.5399 14.979C15.674 14.8448 15.8871 14.6831 16.1356 14.6831C16.3803 14.6831 16.5815 14.837 16.7038 14.9711C16.7077 14.9751 16.7077 14.9751 16.7117 14.979L18.8857 17.153C19.2921 17.5555 19.2921 17.9697 18.8896 18.388Z" fill="#00264D"/>
<path d="M12.8056 7.09974C13.8394 7.27335 14.7784 7.7626 15.5281 8.51226C16.2777 9.26191 16.763 10.201 16.9406 11.2347C16.984 11.4951 17.2089 11.6766 17.4653 11.6766C17.4969 11.6766 17.5245 11.6727 17.5561 11.6687C17.8481 11.6214 18.0414 11.3452 17.994 11.0532C17.781 9.80246 17.1892 8.66219 16.2856 7.75865C15.3821 6.85512 14.2418 6.26328 12.9911 6.05022C12.6991 6.00288 12.4269 6.19621 12.3756 6.48423C12.3243 6.77226 12.5137 7.0524 12.8056 7.09974Z" fill="#00264D"/>
<path d="M21.3753 10.8993C21.0242 8.83971 20.0536 6.96557 18.5622 5.47414C17.0707 3.98272 15.1966 3.01211 13.137 2.66095C12.849 2.60966 12.5767 2.80694 12.5254 3.09496C12.4781 3.38694 12.6714 3.65918 12.9634 3.71047C14.802 4.02217 16.4789 4.89414 17.8125 6.2238C19.1461 7.5574 20.0141 9.23427 20.3258 11.0729C20.3692 11.3333 20.5941 11.5148 20.8506 11.5148C20.8821 11.5148 20.9098 11.5109 20.9413 11.5069C21.2294 11.4635 21.4266 11.1873 21.3753 10.8993Z" fill="#00264D"/>
</svg>
