<svg width="25" height="24" viewBox="0 0 25 24" fill="none" xmlns="http://www.w3.org/2000/svg">
<g clip-path="url(#clip0_1418_19249)">
<path d="M12.4571 19.3388C12.3699 19.2512 12.249 19.2015 12.1258 19.2015C12.0026 19.2015 11.8817 19.2512 11.7945 19.3388C11.7069 19.426 11.6572 19.5464 11.6572 19.6701C11.6572 19.7933 11.7069 19.9142 11.7945 20.0014C11.8817 20.0885 12.0026 20.1387 12.1258 20.1387C12.249 20.1387 12.3694 20.0885 12.4571 20.0014C12.5442 19.9142 12.5944 19.7933 12.5944 19.6701C12.5944 19.5464 12.5442 19.426 12.4571 19.3388Z" fill="#00264D"/>
<path d="M12.9541 11.6326C12.7994 11.4252 12.5058 11.3825 12.2984 11.5372C12.2251 11.5919 12.1376 11.6209 12.0456 11.6209C11.9545 11.6209 11.8678 11.5924 11.7947 11.5385C11.5866 11.3848 11.2932 11.429 11.1395 11.6372C10.9858 11.8453 11.03 12.1388 11.2381 12.2924C11.4735 12.4662 11.7527 12.558 12.0456 12.558C12.3411 12.558 12.6223 12.4647 12.8587 12.2883C13.0662 12.1335 13.1089 11.84 12.9541 11.6326Z" fill="#00264D"/>
<path d="M10.0551 5.13754C9.96794 5.04993 9.84751 5.00024 9.72381 5.00024C9.60058 5.00024 9.47969 5.04993 9.39255 5.13754C9.30541 5.22468 9.25525 5.3451 9.25525 5.46881C9.25525 5.59204 9.30541 5.71293 9.39255 5.80007C9.47969 5.88721 9.60058 5.93737 9.72381 5.93737C9.84751 5.93737 9.96794 5.88721 10.0551 5.80007C10.1427 5.71246 10.1924 5.59204 10.1924 5.46881C10.1924 5.34557 10.1427 5.22468 10.0551 5.13754Z" fill="#00264D"/>
<path d="M23.5743 23.0592H20.6691V21.3507C20.6691 19.4183 19.4497 17.6743 17.6346 17.0109L14.4569 15.8497C14.3171 15.7975 14.2268 15.6878 14.2268 15.5701V14.2501C14.2268 14.2133 14.2221 14.1776 14.214 14.1432L15.6294 13.3316C15.6379 13.3267 15.6463 13.3215 15.6546 13.3161C16.2679 12.9111 16.6706 12.1908 16.7318 11.3894C16.7328 11.3776 16.7332 11.3656 16.7332 11.3537V9.6113C16.7332 9.59565 16.7323 9.58013 16.7308 9.5649C16.9976 9.48582 17.2488 9.34126 17.4589 9.13112L17.6642 8.9259C18.6684 7.92165 18.6684 6.28763 17.6642 5.28333L14.5006 2.11974C14.2607 1.1918 13.5787 0.461209 12.6656 0.159006C11.5708 -0.203338 10.3841 0.0782406 9.56867 0.893678L6.72781 3.73454C5.10139 5.36101 5.10139 8.00747 6.72781 9.63394L7.36193 10.2681V11.3537C7.36193 11.3656 7.3624 11.3776 7.36329 11.3895C7.42484 12.1942 7.82468 12.9144 8.43298 13.3162C8.44137 13.3217 8.44995 13.3269 8.45867 13.332L9.87982 14.1444C9.87195 14.1785 9.86736 14.2137 9.86736 14.2502V15.5701C9.86736 15.6878 9.77698 15.7975 9.6401 15.8486L6.46025 17.0109C4.64534 17.6742 3.42593 19.4183 3.42593 21.3506V23.0593H0.520809C0.262012 23.0593 0.0522461 23.2691 0.0522461 23.5278C0.0522461 23.7866 0.262012 23.9964 0.520809 23.9964H23.5743C23.8331 23.9964 24.0428 23.7866 24.0428 23.5278C24.0428 23.2691 23.8331 23.0592 23.5743 23.0592ZM13.7685 4.80835C14.1475 4.42937 14.4024 3.96371 14.519 3.46355L17.0015 5.94601C17.6404 6.58491 17.6404 7.62441 17.0015 8.26327L16.7963 8.46849C16.4877 8.77712 15.9857 8.77707 15.677 8.46849L12.8927 5.68416L13.7685 4.80835ZM7.84306 9.40852C7.83884 9.40843 7.83471 9.40787 7.83045 9.40787C7.82932 9.40787 7.82829 9.40801 7.82717 9.40805L7.39048 8.97132C6.12945 7.71029 6.12945 5.65833 7.39048 4.39726L10.2313 1.55644C10.6323 1.15552 11.163 0.941397 11.7084 0.941397C11.8843 0.941397 12.0617 0.964084 12.2368 1.00951C12.3959 1.64663 12.2132 2.31685 11.7452 2.78494L10.5526 3.97749C10.3696 4.16049 10.3696 4.45716 10.5526 4.64016C10.6441 4.73166 10.764 4.77741 10.8839 4.77741C11.0038 4.77741 11.1238 4.73166 11.2152 4.64016L12.4078 3.44762C12.9036 2.95177 13.186 2.30513 13.2256 1.63163C13.4047 1.84847 13.5352 2.10666 13.603 2.39222C13.7538 3.02813 13.5679 3.68363 13.1059 4.14573L7.84306 9.40852ZM8.93792 12.5265C8.57984 12.284 8.34214 11.8407 8.29901 11.3349V10.2779L12.23 6.34683L15.0144 9.13121C15.239 9.35579 15.5105 9.50508 15.7977 9.57999C15.7969 9.59044 15.7961 9.6008 15.7961 9.6114V11.3349C15.7535 11.8304 15.5071 12.2845 15.1494 12.5267L12.6337 13.9692C12.6251 13.9741 12.6167 13.9793 12.6085 13.9847C12.2573 14.2167 11.8379 14.2167 11.4866 13.9846C11.4782 13.9791 11.4696 13.9739 11.4609 13.9688L8.93792 12.5265ZM19.732 23.0593H17.764V23.0592V20.9116C17.764 19.9686 16.9968 19.2014 16.0537 19.2014H13.8827C13.6239 19.2014 13.4142 19.4112 13.4142 19.6699C13.4142 19.9287 13.6239 20.1385 13.8827 20.1385H16.0537C16.48 20.1385 16.8269 20.4853 16.8269 20.9116V23.0592H7.26814V20.9116C7.26814 20.4854 7.61496 20.1385 8.04129 20.1385H10.2045C10.4633 20.1385 10.6731 19.9287 10.6731 19.6699C10.6731 19.4112 10.4633 19.2014 10.2045 19.2014H8.04129C7.09826 19.2014 6.33101 19.9686 6.33101 20.9116V23.0592H4.36306V21.3505C4.36306 19.8101 5.33515 18.4199 6.78195 17.8911L9.96481 16.7277C10.4749 16.5373 10.8045 16.0829 10.8045 15.5701V14.6731L10.9835 14.7754C11.3124 14.989 11.68 15.0958 12.0476 15.0958C12.4152 15.0958 12.7829 14.989 13.1119 14.7752L13.2897 14.6733V15.5701C13.2897 16.0831 13.6193 16.5374 14.1323 16.7288L17.3129 17.8912C18.7598 18.42 19.732 19.8102 19.732 21.3507V23.0593Z" fill="#00264D"/>
<path d="M1.57621 13.4938L1.20547 13.0283C0.91602 12.6649 0.915551 12.157 1.20444 11.7931L1.58005 11.3199C1.74097 11.1172 1.70704 10.8225 1.50435 10.6616C1.30166 10.5008 1.00686 10.5346 0.846036 10.7373L0.470426 11.2105C-0.0911361 11.918 -0.0903392 12.9057 0.472442 13.6122L0.843176 14.0776C1.13263 14.441 1.1331 14.949 0.844254 15.3128C0.683333 15.5155 0.71727 15.8103 0.919958 15.9712C1.00607 16.0395 1.10886 16.0727 1.21096 16.0727C1.349 16.0727 1.48579 16.012 1.57827 15.8955C2.13988 15.188 2.13904 14.2004 1.57621 13.4938Z" fill="#00264D"/>
<path d="M4.96718 11.6341L4.59645 11.1686C4.30699 10.8053 4.30657 10.2973 4.59542 9.93342L4.97102 9.46022C5.13195 9.25753 5.09801 8.96278 4.89532 8.80191C4.69268 8.64099 4.39788 8.67492 4.23701 8.87761L3.8614 9.35081C3.29984 10.0583 3.30068 11.0459 3.86342 11.7525L4.23415 12.2179C4.5236 12.5813 4.52403 13.0892 4.23518 13.4531C4.07426 13.6557 4.1082 13.9505 4.31088 14.1114C4.39699 14.1797 4.49979 14.2129 4.60188 14.2129C4.73993 14.2129 4.87671 14.1522 4.9692 14.0357C5.53076 13.3283 5.52992 12.3407 4.96718 11.6341Z" fill="#00264D"/>
<path d="M20.2363 13.4937L19.8656 13.0282C19.5762 12.6649 19.5757 12.1569 19.8646 11.793L20.2402 11.3198C20.4011 11.1171 20.3672 10.8224 20.1645 10.6615C19.9618 10.5006 19.667 10.5345 19.5062 10.7372L19.1306 11.2104C18.569 11.9179 18.5698 12.9055 19.1326 13.6121L19.5033 14.0775C19.7928 14.4409 19.7932 14.9489 19.5043 15.3128C19.3434 15.5154 19.3774 15.8102 19.5801 15.9711C19.6662 16.0394 19.769 16.0726 19.871 16.0726C20.0091 16.0726 20.1459 16.0119 20.2384 15.8954C20.7999 15.1879 20.7991 14.2003 20.2363 13.4937Z" fill="#00264D"/>
<path d="M23.6272 11.6341L23.2564 11.1686C22.967 10.8053 22.9666 10.2973 23.2554 9.93342L23.631 9.46022C23.7919 9.25753 23.758 8.96278 23.5553 8.80191C23.3527 8.64099 23.0579 8.67492 22.897 8.87761L22.5214 9.35081C21.9599 10.0583 21.9607 11.046 22.5234 11.7525L22.8942 12.2179C23.1836 12.5813 23.1841 13.0893 22.8952 13.4531C22.7343 13.6558 22.7682 13.9506 22.9709 14.1114C23.0571 14.1798 23.1598 14.213 23.2619 14.213C23.4 14.213 23.5368 14.1523 23.6292 14.0357C24.1908 13.3283 24.1899 12.3407 23.6272 11.6341Z" fill="#00264D"/>
</g>
<defs>
<clipPath id="clip0_1418_19249">
<rect width="24" height="24" fill="white" transform="translate(0.0498047)"/>
</clipPath>
</defs>
</svg>
