<svg width="25" height="24" viewBox="0 0 25 24" fill="none" xmlns="http://www.w3.org/2000/svg">
<path d="M19.8901 4.22299C19.5409 3.89577 19.0804 3.71401 18.6019 3.71477H7.76242L7.47482 2.5875C7.1972 1.49772 6.21554 0.735171 5.09084 0.735474C4.87733 0.735474 4.70435 0.908458 4.70435 1.12197V5.49966C4.70465 5.96538 4.82622 6.4231 5.05697 6.82743C5.69235 7.93611 6.8721 8.62064 8.14997 8.6223H12.8444L11.9866 10.1436C11.9192 10.2632 11.9203 10.4098 11.9895 10.5285C12.0589 10.647 12.1859 10.7197 12.3234 10.72H13.5037C14.6042 10.7185 15.6376 10.1897 16.2827 9.29791C16.2939 9.28233 16.3038 9.266 16.3128 9.24891L16.4791 8.92653H20.1665C20.1919 8.92653 20.2173 8.92593 20.2424 8.92517C20.9951 8.90597 21.6593 8.42663 21.9146 7.71791C22.1929 7.00269 22.004 6.18978 21.4386 5.67067L19.8901 4.22299ZM18.6161 5.21735H19.8217L20.2958 5.66039H18.6161C18.4938 5.66039 18.3946 5.5612 18.3946 5.43887C18.3946 5.31669 18.4938 5.21735 18.6161 5.21735ZM13.5036 9.94705H12.9848L14.1603 7.86216H16.1587L15.6394 8.86771C15.1385 9.54544 14.3461 9.94584 13.5036 9.94705ZM21.1908 7.44634C21.0458 7.86247 20.6569 8.14432 20.2163 8.15234C20.1998 8.15294 20.1831 8.1534 20.1665 8.1534H16.8781L16.9489 8.01625C16.9973 7.93021 17.0083 7.83313 17.0118 7.66922C17.016 7.48051 17.0029 7.38842 16.9593 7.30359C16.893 7.17219 16.7582 7.08918 16.6111 7.08918H13.9344C13.795 7.08918 13.6663 7.16448 13.5978 7.28605L13.2801 7.84931H8.14967C7.14896 7.84795 6.22537 7.31206 5.72774 6.44381C5.56352 6.15621 5.47703 5.83081 5.47688 5.49966V1.55322C6.08913 1.69702 6.57043 2.16925 6.72557 2.77878L7.08742 4.19683C7.13097 4.368 7.2852 4.48776 7.46182 4.48776H18.3264C17.855 4.63125 17.5599 5.09804 17.6325 5.58554C17.705 6.07274 18.1235 6.43338 18.6163 6.43338H21.0801C21.2782 6.73353 21.3196 7.11065 21.1908 7.44634Z" fill="#00264D"/>
<path d="M15.9408 5.11316H8.43468C8.22132 5.11316 8.04834 5.28629 8.04834 5.49965C8.04834 5.71316 8.22132 5.88615 8.43468 5.88615H15.9408C16.1543 5.88615 16.3273 5.71316 16.3273 5.49965C16.3273 5.28629 16.1543 5.11316 15.9408 5.11316Z" fill="#00264D"/>
<path d="M3.04396 2.44165C2.83046 2.44165 2.65747 2.61479 2.65747 2.82814C2.65747 3.04165 2.83046 3.21464 3.04396 3.21464H3.58983C3.80334 3.21464 3.97633 3.04165 3.97633 2.82814C3.97633 2.61479 3.80334 2.44165 3.58983 2.44165H3.04396Z" fill="#00264D"/>
<path d="M3.93069 4.40308H2.32741C2.11405 4.40308 1.94092 4.57606 1.94092 4.78957C1.94092 5.00293 2.11405 5.17606 2.32741 5.17606H3.93069C4.1442 5.17606 4.31719 5.00293 4.31719 4.78957C4.31719 4.57606 4.1442 4.40308 3.93069 4.40308Z" fill="#00264D"/>
<path d="M3.69218 6.36462H2.90725C2.69389 6.36462 2.52075 6.53761 2.52075 6.75112C2.52075 6.96448 2.69389 7.13761 2.90725 7.13761H3.69218C3.90554 7.13761 4.07867 6.96448 4.07867 6.75112C4.07867 6.53761 3.90554 6.36462 3.69218 6.36462Z" fill="#00264D"/>
<path d="M7.56178 17.5292C6.7897 17.5289 6.16324 18.1546 6.16309 18.9268C6.16278 19.6989 6.78864 20.3252 7.56087 20.3252C8.33295 20.3254 8.95912 19.6993 8.95912 18.9273C8.95851 18.1558 8.33326 17.5304 7.56178 17.5292ZM7.56178 19.4556C7.26995 19.4559 7.03285 19.2196 7.0327 18.9276C7.03255 18.6356 7.26904 18.3989 7.56087 18.3988C7.85286 18.3986 8.0895 18.6353 8.0895 18.9273C8.08935 19.2188 7.85316 19.4551 7.56178 19.4556Z" fill="#00264D"/>
<path d="M16.4172 17.5292C15.645 17.5289 15.0187 18.1546 15.0186 18.9268C15.0184 19.699 15.6441 20.3252 16.4163 20.3252C17.1886 20.3254 17.8144 19.6993 17.8144 18.9273C17.8138 18.1558 17.1887 17.5304 16.4172 17.5292ZM16.4172 19.4556C16.1253 19.4559 15.8883 19.2196 15.8882 18.9276C15.8879 18.6356 16.1244 18.3989 16.4163 18.3988C16.7082 18.3986 16.9451 18.6353 16.9448 18.9273C16.9448 19.2188 16.7086 19.4551 16.4172 19.4556Z" fill="#00264D"/>
<path d="M18.9268 14.9919H18.508C18.1856 14.9914 17.8738 15.1061 17.6284 15.3149L16.9508 13.3298C16.9491 13.3248 16.9473 13.3197 16.9454 13.3148C16.7651 12.85 16.3189 12.5432 15.8205 12.5411H14.4449C14.4059 11.9055 13.8794 11.4096 13.2427 11.4088H10.9325C10.2957 11.4096 9.76922 11.9055 9.7302 12.5411H8.17501C7.67662 12.5432 7.2304 12.85 7.05015 13.3145C7.04819 13.3195 7.04637 13.3248 7.04471 13.3298L6.36336 15.3259C6.11613 15.1103 5.79919 14.9916 5.47121 14.9919H5.05221C4.64137 14.9922 4.30856 15.3252 4.30811 15.7357V16.2734C4.30856 16.6839 4.64137 17.0169 5.05221 17.0172H5.12237C4.80876 17.3282 4.6326 17.7519 4.63275 18.1938V19.6611C4.63381 20.5779 5.37671 21.3206 6.29334 21.3217H6.36532V22.4156C6.36593 22.8681 6.73246 23.235 7.18503 23.2354H8.3365C8.78907 23.235 9.15591 22.8683 9.15636 22.4156V21.3216H14.8391V22.4156C14.8396 22.8681 15.2064 23.235 15.6589 23.2354H16.8105C17.263 23.235 17.6299 22.8681 17.6302 22.4156V21.3216H17.7022C18.6188 21.3206 19.3617 20.5778 19.3628 19.6611V18.1935C19.3629 17.7518 19.1867 17.3282 18.873 17.0171H18.9268C19.3375 17.0167 19.6703 16.6838 19.6708 16.2732V15.7357C19.6703 15.3249 19.3375 14.9922 18.9268 14.9919ZM18.508 15.8614H18.8012V16.1474H18.0605C18.1413 15.9731 18.3158 15.8614 18.508 15.8614ZM10.9325 12.2786H13.2427C13.3996 12.2789 13.5356 12.3881 13.5697 12.5412H10.6054C10.6396 12.3881 10.7755 12.2789 10.9325 12.2786ZM7.86442 13.6203C7.91613 13.494 8.03876 13.4116 8.17501 13.4108H15.8205C15.9567 13.4116 16.0794 13.494 16.1311 13.6203L17.1251 16.5335H16.3302C16.3059 15.7797 15.688 15.1815 14.934 15.1815C14.18 15.1815 13.5622 15.7797 13.5378 16.5335H6.87021L7.86442 13.6203ZM15.4594 16.5335H14.4083C14.4297 16.2589 14.6586 16.047 14.934 16.047C15.2092 16.047 15.4381 16.2589 15.4594 16.5335ZM5.17772 15.8614H5.47106C5.66325 15.8614 5.8379 15.9731 5.91849 16.1474H5.17772V15.8614ZM8.28675 22.366H7.23493V21.3216H8.28675V22.366ZM16.7606 22.366H15.7088V21.3216H16.7606V22.366ZM18.4931 19.6611C18.4925 20.0977 18.1387 20.4516 17.7022 20.4519H6.29334C5.85665 20.4516 5.50282 20.0977 5.50236 19.6611V18.1935C5.50267 17.7568 5.85665 17.4029 6.29334 17.4025H17.7022C18.1387 17.4029 18.4925 17.7568 18.4931 18.1935V19.6611Z" fill="#00264D"/>
</svg>
