<svg width="24" height="24" viewBox="0 0 24 24" fill="none" xmlns="http://www.w3.org/2000/svg">
<g clip-path="url(#clip0_1397_20815)">
<path d="M5.22369 15.75C5.00441 15.75 4.79005 15.816 4.60773 15.9396C4.4254 16.0632 4.2833 16.2389 4.19939 16.4445C4.11547 16.65 4.09351 16.8762 4.13629 17.0945C4.17907 17.3127 4.28467 17.5132 4.43972 17.6705C4.59477 17.8278 4.79232 17.935 5.00739 17.9784C5.22246 18.0218 5.44538 17.9995 5.64797 17.9144C5.85055 17.8292 6.02371 17.685 6.14553 17.5C6.26736 17.315 6.33238 17.0975 6.33238 16.875C6.33205 16.5767 6.21514 16.2908 6.00729 16.0799C5.79944 15.869 5.51763 15.7503 5.22369 15.75ZM5.22369 17.25C5.15059 17.25 5.07914 17.228 5.01837 17.1868C4.95759 17.1456 4.91022 17.087 4.88225 17.0185C4.85428 16.95 4.84696 16.8746 4.86122 16.8018C4.87548 16.7291 4.91068 16.6623 4.96236 16.6098C5.01405 16.5574 5.0799 16.5217 5.15159 16.5072C5.22328 16.4927 5.29758 16.5002 5.36511 16.5285C5.43264 16.5569 5.49036 16.605 5.53097 16.6667C5.57158 16.7283 5.59325 16.8008 5.59325 16.875C5.59314 16.9744 5.55417 17.0697 5.48489 17.14C5.4156 17.2103 5.32167 17.2499 5.22369 17.25Z" fill="#00264D"/>
<path d="M18.8978 15.75C18.6785 15.75 18.4641 15.816 18.2818 15.9396C18.0995 16.0632 17.9574 16.2389 17.8735 16.4445C17.7895 16.65 17.7676 16.8762 17.8104 17.0945C17.8531 17.3127 17.9587 17.5132 18.1138 17.6705C18.2688 17.8278 18.4664 17.935 18.6815 17.9784C18.8965 18.0218 19.1194 17.9995 19.322 17.9144C19.5246 17.8292 19.6978 17.685 19.8196 17.5C19.9414 17.315 20.0065 17.0975 20.0065 16.875C20.0061 16.5767 19.8892 16.2908 19.6814 16.0799C19.4735 15.869 19.1917 15.7503 18.8978 15.75ZM18.8978 17.25C18.8247 17.25 18.7532 17.228 18.6924 17.1868C18.6317 17.1456 18.5843 17.087 18.5563 17.0185C18.5284 16.95 18.521 16.8746 18.5353 16.8018C18.5496 16.7291 18.5848 16.6623 18.6364 16.6098C18.6881 16.5574 18.754 16.5217 18.8257 16.5072C18.8973 16.4927 18.9717 16.5002 19.0392 16.5285C19.1067 16.5569 19.1644 16.605 19.205 16.6667C19.2456 16.7283 19.2673 16.8008 19.2673 16.875C19.2672 16.9744 19.2282 17.0697 19.159 17.14C19.0897 17.2103 18.9957 17.2499 18.8978 17.25Z" fill="#00264D"/>
<path d="M21.8542 11.25H19.9098L18.7125 7.30172C18.6321 7.03284 18.4684 6.79744 18.2457 6.63049C18.023 6.46353 17.7531 6.37393 17.4763 6.375H15.1212L14.8214 5.15906C14.8014 5.07794 14.7553 5.00591 14.6903 4.95444C14.6254 4.90298 14.5453 4.87501 14.4629 4.875H11.5526C11.4702 4.87501 11.3901 4.90298 11.3252 4.95444C11.2602 5.00591 11.2141 5.07794 11.1941 5.15906L10.8943 6.375H8.0759C7.81463 6.376 7.55972 6.4568 7.34434 6.60688C7.12896 6.75695 6.9631 6.96934 6.86835 7.21641L5.33973 11.25H3.56074C2.77676 11.251 2.02143 11.5491 1.4428 12.0859C0.864178 12.6226 0.503985 13.3593 0.43283 14.1516C0.424116 14.1836 0.419611 14.2167 0.419434 14.25V15.9375C0.419813 16.2855 0.556211 16.6191 0.798703 16.8652C1.0412 17.1112 1.36998 17.2496 1.71291 17.25H2.66362C2.75245 17.8747 3.06017 18.446 3.53036 18.8592C4.00056 19.2724 4.60176 19.4999 5.22378 19.4999C5.84581 19.4999 6.447 19.2724 6.9172 18.8592C7.3874 18.446 7.69511 17.8747 7.78394 17.25H16.3375C16.4264 17.8747 16.7341 18.446 17.2043 18.8592C17.6745 19.2724 18.2757 19.4999 18.8977 19.4999C19.5197 19.4999 20.1209 19.2724 20.5911 18.8592C21.0613 18.446 21.369 17.8747 21.4579 17.25H22.039C22.3819 17.2496 22.7107 17.1112 22.9532 16.8652C23.1957 16.6191 23.3321 16.2855 23.3325 15.9375V12.75C23.3321 12.3523 23.1762 11.971 22.8991 11.6898C22.622 11.4085 22.2462 11.2504 21.8542 11.25ZM19.1365 11.25H14.0933V8.25H18.2269L19.1365 11.25ZM11.8413 5.625H14.1742L14.359 6.375H11.6565L11.8413 5.625ZM7.55851 7.48547C7.59913 7.37963 7.67021 7.28865 7.76248 7.22436C7.85476 7.16007 7.96397 7.12545 8.0759 7.125H17.4763C17.5909 7.12463 17.7028 7.16056 17.7964 7.22777C17.8899 7.29499 17.9605 7.39015 17.9983 7.5H7.55297L7.55851 7.48547ZM1.15856 14.625H1.52813V15H1.15856V14.625ZM5.22378 18.75C4.85832 18.75 4.50106 18.64 4.19718 18.434C3.89331 18.228 3.65647 17.9351 3.51661 17.5925C3.37675 17.2499 3.34016 16.8729 3.41146 16.5092C3.48276 16.1455 3.65875 15.8114 3.91717 15.5492C4.17559 15.287 4.50485 15.1084 4.86329 15.036C5.22173 14.9637 5.59327 15.0008 5.93091 15.1427C6.26856 15.2846 6.55715 15.525 6.76019 15.8333C6.96323 16.1416 7.07161 16.5042 7.07161 16.875C7.07112 17.3721 6.87628 17.8488 6.52985 18.2003C6.18342 18.5518 5.71371 18.7495 5.22378 18.75ZM13.3542 16.5H7.78394C7.69511 15.8753 7.3874 15.304 6.9172 14.8908C6.447 14.4776 5.84581 14.2501 5.22378 14.2501C4.60176 14.2501 4.00056 14.4776 3.53036 14.8908C3.06017 15.304 2.75245 15.8753 2.66362 16.5H1.71291C1.56593 16.4999 1.425 16.4406 1.32106 16.3351C1.21713 16.2296 1.15869 16.0866 1.15856 15.9375V15.75H1.89769C1.99571 15.75 2.08971 15.7105 2.15902 15.6402C2.22832 15.5698 2.26726 15.4745 2.26726 15.375V14.25C2.26726 14.1505 2.22832 14.0552 2.15902 13.9848C2.08971 13.9145 1.99571 13.875 1.89769 13.875H1.2237C1.34922 13.3416 1.648 12.8666 2.07194 12.5265C2.49588 12.1863 3.02029 12.0009 3.56074 12H13.3542V16.5ZM13.3542 11.25H6.13153L7.2684 8.25H13.3542V11.25ZM18.8977 18.75C18.5322 18.75 18.175 18.64 17.8711 18.434C17.5672 18.228 17.3304 17.9351 17.1905 17.5925C17.0507 17.2499 17.0141 16.8729 17.0854 16.5092C17.1567 16.1455 17.3327 15.8114 17.5911 15.5492C17.8495 15.287 18.1788 15.1084 18.5372 15.036C18.8956 14.9637 19.2672 15.0008 19.6048 15.1427C19.9425 15.2846 20.2311 15.525 20.4341 15.8333C20.6371 16.1416 20.7455 16.5042 20.7455 16.875C20.745 17.3721 20.5502 17.8488 20.2038 18.2003C19.8573 18.5518 19.3876 18.7495 18.8977 18.75ZM22.5933 15H22.2238V14.625H22.5933V15ZM22.5933 13.875H21.8542C21.7562 13.875 21.6622 13.9145 21.5929 13.9848C21.5236 14.0552 21.4847 14.1505 21.4847 14.25V15.375C21.4847 15.4745 21.5236 15.5698 21.5929 15.6402C21.6622 15.7105 21.7562 15.75 21.8542 15.75H22.5933V15.9375C22.5932 16.0866 22.5348 16.2296 22.4308 16.3351C22.3269 16.4406 22.186 16.4999 22.039 16.5H21.4579C21.369 15.8753 21.0613 15.304 20.5911 14.8908C20.1209 14.4776 19.5197 14.2501 18.8977 14.2501C18.2757 14.2501 17.6745 14.4776 17.2043 14.8908C16.7341 15.304 16.4264 15.8753 16.3375 16.5H14.0933V12H21.8542C22.0502 12.0003 22.238 12.0794 22.3766 12.22C22.5151 12.3606 22.5931 12.5512 22.5933 12.75V13.875Z" fill="#00264D"/>
<path d="M11.1369 13.125H12.6152C12.7132 13.125 12.8072 13.0855 12.8765 13.0152C12.9458 12.9448 12.9847 12.8495 12.9847 12.75C12.9847 12.6505 12.9458 12.5552 12.8765 12.4848C12.8072 12.4145 12.7132 12.375 12.6152 12.375H11.1369C11.0389 12.375 10.9449 12.4145 10.8756 12.4848C10.8063 12.5552 10.7673 12.6505 10.7673 12.75C10.7673 12.8495 10.8063 12.9448 10.8756 13.0152C10.9449 13.0855 11.0389 13.125 11.1369 13.125Z" fill="#00264D"/>
<path d="M16.3107 12.375H14.8325C14.7344 12.375 14.6404 12.4145 14.5711 12.4848C14.5018 12.5552 14.4629 12.6505 14.4629 12.75C14.4629 12.8495 14.5018 12.9448 14.5711 13.0152C14.6404 13.0855 14.7344 13.125 14.8325 13.125H16.3107C16.4087 13.125 16.5027 13.0855 16.572 13.0152C16.6413 12.9448 16.6803 12.8495 16.6803 12.75C16.6803 12.6505 16.6413 12.5552 16.572 12.4848C16.5027 12.4145 16.4087 12.375 16.3107 12.375Z" fill="#00264D"/>
</g>
<defs>
<clipPath id="clip0_1397_20815">
<rect width="23.6522" height="24" fill="white" transform="translate(0.0498047)"/>
</clipPath>
</defs>
</svg>
