<svg width="25" height="24" viewBox="0 0 25 24" fill="none" xmlns="http://www.w3.org/2000/svg">
<g clip-path="url(#clip0_1418_19555)">
<path d="M20.7997 18.5809V5.99995C20.7997 3.51349 19.2762 3.08899 15.0317 3.01596L15.7317 1.26149C17.0747 1.48447 17.7497 1.79999 17.7997 2C17.7997 2.27614 18.0235 2.50001 18.2997 2.50001C18.5758 2.50001 18.7997 2.27614 18.7997 2C18.7997 0.260014 14.5562 0 12.0248 0C10.0038 0 5.2998 0.194998 5.2998 2C5.2998 2.27614 5.52368 2.50001 5.79982 2.50001C6.07595 2.50001 6.29983 2.27614 6.29983 2C6.34984 1.79999 7.01982 1.481 8.3648 1.25751L9.06778 3.01451C4.82482 3.08899 3.2998 3.51349 3.2998 5.99995V18.5809C3.2998 20.0809 4.4248 21.5578 5.71427 21.9163L4.01427 23.0883C3.78702 23.2453 3.73002 23.5568 3.887 23.7841C4.04399 24.0113 4.35547 24.0683 4.58276 23.9114L7.35474 21.9999H16.7447L19.5157 23.9114C19.7429 24.0683 20.0544 24.0114 20.2114 23.7841C20.3684 23.5568 20.3115 23.2453 20.0842 23.0883L18.3392 21.8848C20.1292 21.4728 20.7997 19.9879 20.7997 18.5809ZM12.0248 0.999977C12.921 0.996461 13.8168 1.03869 14.7088 1.12649L13.9588 3.00396C13.3658 2.99998 12.7367 2.99998 12.0498 2.99998C11.3628 2.99998 10.7337 2.99998 10.1403 3.00396L9.38826 1.12396C10.2644 1.03804 11.1444 0.996648 12.0248 0.999977ZM19.7997 18.5809C19.7997 19.4844 19.4747 20.9998 17.2997 20.9998H6.29978C5.42679 20.9998 4.29978 19.8268 4.29978 18.5809V5.99995C4.29978 4.18698 5.02376 3.99995 12.0497 3.99995C19.0757 3.99995 19.7997 4.18698 19.7997 5.99995V18.5809Z" fill="#00264D"/>
<path d="M6.93381 14.4999H17.1247C17.9852 14.4999 18.7982 13.7174 18.7982 12.8894V7.32899C18.7997 6.45651 17.9577 6 17.1247 6H6.93381C5.9868 6 5.2998 6.55898 5.2998 7.32899V12.8894C5.2998 13.7174 6.09381 14.4999 6.93381 14.4999ZM6.29978 7.32899C6.29978 7.08951 6.68828 6.99998 6.93376 6.99998H17.1247C17.4067 6.99998 17.7982 7.11449 17.7982 7.32899L17.7997 12.8894C17.7997 13.1574 17.4247 13.4999 17.1247 13.4999H6.93381C6.64379 13.4999 6.29983 13.169 6.29983 12.8894V7.32899H6.29978Z" fill="#00264D"/>
<path d="M16.7998 15.9998C15.6953 15.9998 14.7998 16.8952 14.7998 17.9998C14.7998 19.1043 15.6953 19.9998 16.7998 19.9998C17.9044 19.9998 18.7998 19.1044 18.7998 17.9998C18.7998 16.8952 17.9044 15.9998 16.7998 15.9998ZM16.7998 18.9997C16.2475 18.9997 15.7998 18.552 15.7998 17.9998C15.7998 17.4475 16.2475 16.9998 16.7998 16.9998C17.3521 16.9998 17.7998 17.4475 17.7998 17.9998C17.7998 18.552 17.3521 18.9997 16.7998 18.9997Z" fill="#00264D"/>
<path d="M7.2998 15.9998C6.19525 15.9998 5.2998 16.8952 5.2998 17.9998C5.2998 19.1043 6.19525 19.9998 7.2998 19.9998C8.40436 19.9998 9.2998 19.1044 9.2998 17.9998C9.29976 16.8952 8.40436 15.9998 7.2998 15.9998ZM7.2998 18.9997C6.74753 18.9997 6.29983 18.552 6.29983 17.9998C6.29983 17.4475 6.74753 16.9998 7.2998 16.9998C7.85208 16.9998 8.29978 17.4475 8.29978 17.9998C8.29978 18.552 7.85208 18.9997 7.2998 18.9997Z" fill="#00264D"/>
</g>
<defs>
<clipPath id="clip0_1418_19555">
<rect width="24" height="24" fill="white" transform="translate(0.0498047)"/>
</clipPath>
</defs>
</svg>
