<svg width="20" height="19" viewBox="0 0 20 19" fill="none" xmlns="http://www.w3.org/2000/svg">
<path d="M9.85449 18.9443C14.9521 18.9443 19.1357 14.752 19.1357 9.6543C19.1357 4.56543 14.9434 0.373047 9.85449 0.373047C4.75684 0.373047 0.573242 4.56543 0.573242 9.6543C0.573242 14.752 4.76562 18.9443 9.85449 18.9443ZM5.54785 9.6543C5.54785 9.05664 5.97852 8.61719 6.56738 8.61719H8.81738V6.36719C8.81738 5.77832 9.25684 5.33887 9.85449 5.33887C10.4521 5.33887 10.8916 5.77832 10.8916 6.36719V8.61719H13.1504C13.7305 8.61719 14.1699 9.05664 14.1699 9.6543C14.1699 10.252 13.7305 10.6914 13.1504 10.6914H10.8916V12.9414C10.8916 13.5303 10.4521 13.9609 9.85449 13.9609C9.25684 13.9609 8.81738 13.5303 8.81738 12.9414V10.6914H6.56738C5.97852 10.6914 5.54785 10.252 5.54785 9.6543Z" fill="#1254FF"/>
</svg>
