<svg width="11" height="14" viewBox="0 0 11 14" fill="none" xmlns="http://www.w3.org/2000/svg">
<path d="M5.49998 0C2.67775 0 0.381714 2.33729 0.381714 5.21023C0.381714 6.81722 1.19448 8.76774 2.79751 11.0076C3.97062 12.6468 5.1266 13.8158 5.17525 13.8648C5.26466 13.9549 5.38229 14 5.50006 14C5.61442 14 5.72885 13.9574 5.81755 13.8719C5.86631 13.825 7.02522 12.7033 8.20054 11.0867C9.80485 8.88004 10.6183 6.90292 10.6183 5.2102C10.6183 2.33729 8.32216 0 5.49998 0ZM5.49998 7.45955C4.12021 7.45955 2.99772 6.33704 2.99772 4.95729C2.99772 3.57755 4.12024 2.45504 5.49998 2.45504C6.87972 2.45504 8.00224 3.57755 8.00224 4.95729C8.00224 6.33704 6.8797 7.45955 5.49998 7.45955Z" fill="#698096"/>
</svg>
