<svg width="25" height="24" viewBox="0 0 25 24" fill="none" xmlns="http://www.w3.org/2000/svg">
<path d="M12.8486 2.58376C12.7441 2.47814 12.6197 2.39427 12.4826 2.33698C12.3455 2.2797 12.1984 2.25014 12.0499 2.25001C11.7515 2.25001 11.4653 2.36854 11.2544 2.57951C11.0434 2.79049 10.9249 3.07664 10.9249 3.37501V3.82876C10.4464 3.89537 9.97468 4.00328 9.51487 4.15126C9.17717 3.62054 8.72257 3.17409 8.18583 2.84605C7.6491 2.518 7.04445 2.31706 6.41812 2.25858C5.7918 2.20011 5.1604 2.28565 4.57222 2.50867C3.98403 2.73169 3.45465 3.08627 3.02454 3.5453C2.59444 4.00434 2.27502 4.55565 2.09071 5.15709C1.9064 5.75853 1.86208 6.39415 1.96114 7.01535C2.06021 7.63655 2.30003 8.22686 2.66227 8.74113C3.02451 9.25541 3.49957 9.68003 4.05112 9.98251C3.88324 10.6418 3.79883 11.3196 3.79987 12C3.80093 13.1836 4.05667 14.3532 4.54972 15.4292C5.04277 16.5052 5.76159 17.4626 6.65737 18.2363C6.36561 18.3942 6.12099 18.6267 5.94844 18.91C5.7759 19.1934 5.68163 19.5174 5.67524 19.8491C5.66885 20.1808 5.75059 20.5082 5.91209 20.798C6.0736 21.0878 6.3091 21.3295 6.59455 21.4986C6.88001 21.6676 7.2052 21.7579 7.53694 21.7602C7.86868 21.7625 8.19509 21.6767 8.48286 21.5116C8.77062 21.3465 9.00944 21.1081 9.17493 20.8206C9.34042 20.533 9.42667 20.2068 9.42487 19.875C9.42487 19.875 9.42487 19.8375 9.42487 19.8188C11.1279 20.3921 12.9718 20.3921 14.6749 19.8188C14.6749 19.8188 14.6749 19.8563 14.6749 19.875C14.6731 20.2068 14.7593 20.533 14.9248 20.8206C15.0903 21.1081 15.3291 21.3465 15.6169 21.5116C15.9046 21.6767 16.231 21.7625 16.5628 21.7602C16.8945 21.7579 17.2197 21.6676 17.5052 21.4986C17.7906 21.3295 18.0261 21.0878 18.1876 20.798C18.3491 20.5082 18.4309 20.1808 18.4245 19.8491C18.4181 19.5174 18.3238 19.1934 18.1513 18.91C17.9787 18.6267 17.7341 18.3942 17.4424 18.2363C18.3381 17.4626 19.057 16.5052 19.55 15.4292C20.0431 14.3532 20.2988 13.1836 20.2999 12C20.3009 11.3196 20.2165 10.6418 20.0486 9.98251C20.6002 9.68003 21.0752 9.25541 21.4375 8.74113C21.7997 8.22686 22.0395 7.63655 22.1386 7.01535C22.2377 6.39415 22.1933 5.75853 22.009 5.15709C21.8247 4.55565 21.5053 4.00434 21.0752 3.5453C20.6451 3.08627 20.1157 2.73169 19.5275 2.50867C18.9393 2.28565 18.3079 2.20011 17.6816 2.25858C17.0553 2.31706 16.4506 2.518 15.9139 2.84605C15.3772 3.17409 14.9226 3.62054 14.5849 4.15126C14.1251 4.00328 13.6533 3.89537 13.1749 3.82876V3.37501C13.1746 3.07858 13.0574 2.79423 12.8486 2.58376ZM11.6749 3.37501C11.6749 3.27555 11.7144 3.18017 11.7847 3.10985C11.855 3.03952 11.9504 3.00001 12.0499 3.00001C12.0997 3.0007 12.149 3.01134 12.1947 3.0313C12.2404 3.05127 12.2817 3.08015 12.3161 3.11626C12.3512 3.1495 12.379 3.18967 12.3977 3.23421C12.4164 3.27875 12.4257 3.3267 12.4249 3.37501V3.75001C12.3011 3.75001 12.1774 3.75001 12.0499 3.75001C11.9224 3.75001 11.7986 3.75001 11.6749 3.75001V3.37501ZM2.67487 6.37501C2.67504 5.65967 2.9025 4.96289 3.32441 4.38522C3.74633 3.80755 4.34087 3.37888 5.02225 3.16107C5.70362 2.94327 6.43658 2.94759 7.11534 3.17342C7.7941 3.39925 8.38355 3.83491 8.79862 4.41751C7.75445 4.86836 6.81415 5.52911 6.03615 6.35872C5.25815 7.18834 4.65906 8.16908 4.27612 9.24001C3.78749 8.93816 3.38398 8.51661 3.10377 8.01526C2.82357 7.51391 2.67594 6.94935 2.67487 6.37501ZM7.54987 21C7.2515 21 6.96535 20.8815 6.75437 20.6705C6.54339 20.4595 6.42487 20.1734 6.42487 19.875C6.42583 19.6125 6.51858 19.3585 6.68705 19.1572C6.85553 18.9558 7.08912 18.8198 7.34737 18.7725C7.74318 19.0506 8.16223 19.294 8.59987 19.5C8.65957 19.6688 8.6781 19.8495 8.65392 20.0269C8.62975 20.2044 8.56356 20.3735 8.46086 20.5202C8.35816 20.6669 8.22192 20.787 8.06347 20.8704C7.90502 20.9539 7.72894 20.9983 7.54987 21ZM17.6749 19.875C17.679 20.0412 17.6462 20.2063 17.5789 20.3584C17.5116 20.5104 17.4115 20.6456 17.2856 20.7543C17.1598 20.863 17.0114 20.9425 16.8512 20.987C16.691 21.0315 16.5229 21.0399 16.3591 21.0116C16.1952 20.9834 16.0396 20.9192 15.9036 20.8236C15.7675 20.728 15.6543 20.6035 15.5722 20.4589C15.49 20.3144 15.4409 20.1534 15.4284 19.9876C15.4159 19.8218 15.4403 19.6553 15.4999 19.5C15.9372 19.2964 16.3563 19.0555 16.7524 18.78C17.0094 18.827 17.242 18.962 17.4103 19.1618C17.5786 19.3616 17.6722 19.6138 17.6749 19.875ZM18.0499 3.00001C18.7823 3.00221 19.4942 3.24264 20.078 3.685C20.6618 4.12736 21.0858 4.74764 21.2861 5.45219C21.4864 6.15674 21.452 6.90733 21.1882 7.59063C20.9244 8.27393 20.4454 8.85286 19.8236 9.24001C19.4407 8.16908 18.8416 7.18834 18.0636 6.35872C17.2856 5.52911 16.3453 4.86836 15.3011 4.41751C15.6131 3.97926 16.0254 3.62195 16.5036 3.37538C16.9817 3.1288 17.5119 3.0001 18.0499 3.00001ZM19.5499 12C19.5499 13.4834 19.11 14.9334 18.2859 16.1668C17.4618 17.4002 16.2904 18.3615 14.92 18.9291C13.5495 19.4968 12.0415 19.6453 10.5867 19.3559C9.13183 19.0665 7.79546 18.3522 6.74657 17.3033C5.69767 16.2544 4.98337 14.918 4.69398 13.4632C4.40459 12.0083 4.55311 10.5003 5.12077 9.12988C5.68843 7.75944 6.64972 6.5881 7.88309 5.76399C9.11646 4.93988 10.5665 4.50001 12.0499 4.50001C14.039 4.50001 15.9466 5.29019 17.3532 6.69671C18.7597 8.10323 19.5499 10.0109 19.5499 12Z" fill="#00264D"/>
<path d="M5.2998 12C5.2998 13.335 5.69569 14.6401 6.43738 15.7501C7.17908 16.8601 8.23329 17.7253 9.46669 18.2362C10.7001 18.7471 12.0573 18.8808 13.3667 18.6203C14.676 18.3599 15.8788 17.717 16.8228 16.773C17.7668 15.829 18.4097 14.6262 18.6701 13.3169C18.9306 12.0075 18.7969 10.6503 18.286 9.41689C17.7751 8.18349 16.9099 7.12928 15.7999 6.38758C14.6899 5.64588 13.3848 5.25 12.0498 5.25C10.2596 5.25 8.5427 5.96116 7.27683 7.22703C6.01096 8.4929 5.2998 10.2098 5.2998 12ZM12.4248 6.01875C13.8846 6.10717 15.2618 6.72569 16.2976 7.75805C17.3334 8.79042 17.9565 10.1656 18.0498 11.625H16.9248V12.375H18.0498C17.9609 13.8378 17.3397 15.2174 16.3035 16.2537C15.2672 17.2899 13.8876 17.9111 12.4248 18V16.875H11.6748V18C10.2154 17.9067 8.84023 17.2836 7.80786 16.2478C6.77549 15.212 6.15698 13.8348 6.06855 12.375H7.1748V11.625H6.06855C6.16137 10.1686 6.78183 8.7959 7.81377 7.76396C8.84571 6.73202 10.2184 6.11157 11.6748 6.01875V7.125H12.4248V6.01875Z" fill="#00264D"/>
<path d="M11.6748 12C11.6745 12.0494 11.684 12.0983 11.7026 12.144C11.7213 12.1897 11.7488 12.2312 11.7836 12.2662L13.2836 13.7662L13.8161 13.2338L12.4248 11.8463V8.25H11.6748V12Z" fill="#00264D"/>
</svg>
