<svg width="17" height="17" viewBox="0 0 17 17" fill="none" xmlns="http://www.w3.org/2000/svg">
<g clip-path="url(#clip0_2828_65224)">
<path d="M16.0424 13.2291C16.6516 13.8384 16.6516 14.8296 16.0424 15.4388C16.0415 15.4398 16.0405 15.4406 16.0395 15.4416L14.9705 16.4974C14.8486 16.6176 14.6899 16.6777 14.5314 16.6777C14.37 16.6777 14.2089 16.6157 14.0866 16.4919C13.8441 16.2463 13.8466 15.8506 14.0922 15.608L14.7177 14.9902H4.68752C3.30898 14.9902 2.18753 13.8687 2.18753 12.4902V2.44494L1.56399 3.06018C1.31827 3.30261 0.922514 3.29992 0.680083 3.05419C0.437652 2.80847 0.440337 2.41272 0.686064 2.17029L1.74197 1.12866C2.34951 0.529297 3.33804 0.529297 3.94558 1.12866L5.00149 2.17029C5.24721 2.41272 5.2499 2.80847 5.00747 3.05419C4.88515 3.1781 4.7239 3.24023 4.56252 3.24023C4.40395 3.24023 4.24538 3.18029 4.12356 3.06018L3.43752 2.3833V12.4902C3.43752 13.1794 3.99831 13.7402 4.68752 13.7402H14.781L14.0922 13.0599C13.8466 12.8174 13.844 12.4216 14.0866 12.176C14.3291 11.9305 14.7249 11.928 14.9705 12.1705L16.0395 13.2263C16.0405 13.2273 16.0415 13.2281 16.0424 13.2291ZM14.625 0.677734H6.53127C6.1852 0.677734 5.90505 0.958984 5.90627 1.30505C5.90761 1.64929 6.18703 1.92773 6.53127 1.92773H14.625C14.9702 1.92773 15.25 2.20752 15.25 2.55273V10.6777C15.25 11.022 15.5284 11.3015 15.8727 11.3027C16.2187 11.3039 16.5 11.0238 16.5 10.6777V2.55273C16.5 1.51721 15.6605 0.677734 14.625 0.677734ZM9.68751 11.393C10.0327 11.393 10.3125 11.1133 10.3125 10.768V7.98631C10.3125 7.03856 9.54152 6.26757 8.59376 6.26757C8.1786 6.26757 7.79738 6.41552 7.50002 6.66149C7.20265 6.41552 6.82143 6.26757 6.40627 6.26757C6.16787 6.26757 5.94057 6.31652 5.73403 6.40465C5.62282 6.30285 5.47512 6.24022 5.31252 6.24022C4.96731 6.24022 4.68752 6.52001 4.68752 6.86522V10.7715C4.68752 11.1167 4.96731 11.3965 5.31252 11.3965C5.65773 11.3965 5.93752 11.1167 5.93752 10.7715V7.98631C5.93752 7.72789 6.14785 7.51756 6.40627 7.51756C6.66469 7.51756 6.87502 7.72789 6.87502 7.98631V10.7715C6.87502 11.1167 7.1548 11.3965 7.50002 11.3965C7.84523 11.3965 8.12501 11.1167 8.12501 10.7715V7.98631C8.12501 7.72789 8.33534 7.51756 8.59376 7.51756C8.85219 7.51756 9.06251 7.72789 9.06251 7.98631V10.768C9.06251 11.1133 9.3423 11.393 9.68751 11.393ZM12.5234 4.05273C12.5201 4.05273 12.517 4.05322 12.5137 4.05322C12.5105 4.05322 12.5073 4.05273 12.504 4.05273C11.7092 4.05273 11.0625 4.70019 11.0625 5.49596C11.0625 5.84105 11.3423 6.12096 11.6875 6.12096C12.0327 6.12096 12.3125 5.84105 12.3125 5.49596C12.3125 5.39123 12.4003 5.30273 12.504 5.30273C12.5073 5.30273 12.5105 5.30224 12.5138 5.30224C12.517 5.30224 12.5201 5.30273 12.5234 5.30273C12.6229 5.30273 12.7076 5.38402 12.7145 5.48302C12.7022 5.5288 12.6063 5.81188 12.0075 6.47069C11.636 6.87914 11.271 7.21178 11.2675 7.21495C11.0762 7.38854 11.0115 7.66197 11.1045 7.90282C11.1975 8.14378 11.4292 8.30272 11.6875 8.30272H13.375C13.7202 8.30272 14 8.02293 14 7.67772C14 7.33251 13.7202 7.05272 13.375 7.05272H13.16C13.715 6.3994 13.965 5.9132 13.965 5.49596C13.965 4.70019 13.3182 4.05273 12.5234 4.05273Z" fill="#698096"/>
</g>
<defs>
<clipPath id="clip0_2828_65224">
<rect width="16" height="16" fill="white" transform="translate(0.5 0.677734)"/>
</clipPath>
</defs>
</svg>
