<svg width="14" height="14" viewBox="0 0 14 14" fill="none" xmlns="http://www.w3.org/2000/svg">
<path d="M11.8125 6.3082C11.5367 6.18713 11.2387 6.12474 10.9375 6.125H3.0625C2.76131 6.12471 2.46335 6.187 2.1875 6.30793C1.79763 6.47842 1.46588 6.7588 1.23279 7.1148C0.999702 7.47079 0.875373 7.88698 0.875 8.3125V11.375C0.875 11.491 0.921094 11.6023 1.00314 11.6844C1.08519 11.7664 1.19647 11.8125 1.3125 11.8125C1.42853 11.8125 1.53981 11.7664 1.62186 11.6844C1.70391 11.6023 1.75 11.491 1.75 11.375V11.1562C1.75071 11.0985 1.77398 11.0432 1.81485 11.0024C1.85573 10.9615 1.91095 10.9382 1.96875 10.9375H12.0312C12.089 10.9382 12.1443 10.9615 12.1851 11.0024C12.226 11.0432 12.2493 11.0985 12.25 11.1562V11.375C12.25 11.491 12.2961 11.6023 12.3781 11.6844C12.4602 11.7664 12.5715 11.8125 12.6875 11.8125C12.8035 11.8125 12.9148 11.7664 12.9969 11.6844C13.0789 11.6023 13.125 11.491 13.125 11.375V8.3125C13.1246 7.88703 13.0002 7.4709 12.7671 7.11496C12.534 6.75901 12.2023 6.47868 11.8125 6.3082V6.3082Z" fill="#698096"/>
<path d="M10.2812 2.1875H3.71875C3.31264 2.1875 2.92316 2.34883 2.63599 2.63599C2.34883 2.92316 2.1875 3.31264 2.1875 3.71875V5.6875C2.18751 5.70445 2.19146 5.72116 2.19904 5.73632C2.20662 5.75148 2.21762 5.76468 2.23117 5.77486C2.24472 5.78504 2.26045 5.79194 2.27712 5.795C2.29379 5.79806 2.31094 5.7972 2.32723 5.7925C2.56606 5.72265 2.81366 5.68729 3.0625 5.6875H3.17816C3.20516 5.68767 3.23127 5.67785 3.25146 5.65993C3.27165 5.64201 3.2845 5.61726 3.28754 5.59043C3.3114 5.37665 3.41317 5.17916 3.57342 5.03566C3.73366 4.89216 3.94115 4.81272 4.15625 4.8125H5.6875C5.90274 4.81252 6.11043 4.89187 6.27085 5.03539C6.43126 5.1789 6.53315 5.37651 6.55703 5.59043C6.56007 5.61726 6.57292 5.64201 6.59311 5.65993C6.6133 5.67785 6.63941 5.68767 6.66641 5.6875H7.33523C7.36223 5.68767 7.38834 5.67785 7.40853 5.65993C7.42872 5.64201 7.44157 5.61726 7.44461 5.59043C7.46846 5.37679 7.57011 5.17941 7.73018 5.03593C7.89025 4.89245 8.09754 4.81292 8.3125 4.8125H9.84375C10.059 4.81252 10.2667 4.89187 10.4271 5.03539C10.5875 5.1789 10.6894 5.37651 10.7133 5.59043C10.7163 5.61726 10.7292 5.64201 10.7494 5.65993C10.7696 5.67785 10.7957 5.68767 10.8227 5.6875H10.9375C11.1864 5.68738 11.434 5.72283 11.6728 5.79277C11.6891 5.79748 11.7063 5.79833 11.7229 5.79526C11.7396 5.79218 11.7554 5.78526 11.7689 5.77505C11.7825 5.76484 11.7935 5.75161 11.801 5.73641C11.8086 5.72122 11.8125 5.70447 11.8125 5.6875V3.71875C11.8125 3.31264 11.6512 2.92316 11.364 2.63599C11.0768 2.34883 10.6874 2.1875 10.2812 2.1875Z" fill="#698096"/>
</svg>
