<svg width="16" height="16" viewBox="0 0 16 16" fill="none" xmlns="http://www.w3.org/2000/svg">
<g clip-path="url(#clip0_2_54)">
<path d="M15.7893 5.50546C15.6363 5.33759 15.4197 5.24182 15.1924 5.24182H0.807489C0.580343 5.24182 0.363613 5.33759 0.210593 5.50546C0.057574 5.67334 -0.0176033 5.89798 0.00347221 6.12416L0.770991 14.3685C0.80967 14.7838 1.15802 15.1012 1.57501 15.1012H14.4249C14.8419 15.1012 15.1902 14.7837 15.2289 14.3685L15.9964 6.12416C16.0175 5.89798 15.9423 5.67334 15.7893 5.50546ZM10.6933 13.4102C10.6927 13.4101 10.6922 13.4101 10.6916 13.4102H5.30836C4.86238 13.4102 4.50087 13.0486 4.50087 12.6027C4.50087 11.5062 5.39298 10.614 6.48955 10.614H7.06909C6.47308 10.2848 6.06836 9.6499 6.06836 8.92219C6.06836 7.85711 6.93488 6.99052 8.00004 6.99052C9.0652 6.99052 9.93172 7.85703 9.93172 8.92219C9.93172 9.6499 9.527 10.2848 8.93099 10.614H9.51053C10.5847 10.614 11.4627 11.4702 11.4981 12.536C11.4999 12.558 11.5008 12.5803 11.5008 12.6027C11.5007 13.0487 11.1392 13.4102 10.6933 13.4102ZM14.4465 3.73851C14.4465 4.07306 14.1753 4.34413 13.8409 4.34413H2.15915C1.82468 4.34413 1.55353 4.07306 1.55353 3.73851C1.55353 3.40397 1.82468 3.1329 2.15915 3.1329H13.8409C14.1753 3.1329 14.4465 3.40397 14.4465 3.73851ZM12.8476 1.50443C12.8476 1.83898 12.5765 2.11005 12.242 2.11005H3.75798C3.42351 2.11005 3.15236 1.83898 3.15236 1.50443C3.15236 1.16989 3.42351 0.898817 3.75798 0.898817H12.2419C12.5765 0.898817 12.8476 1.16989 12.8476 1.50443Z" fill="white" fill-opacity="0.85"/>
</g>
<defs>
<clipPath id="clip0_2_54">
<rect width="16" height="16" fill="white"/>
</clipPath>
</defs>
</svg>
