<svg width="20" height="21" viewBox="0 0 20 21" fill="none" xmlns="http://www.w3.org/2000/svg">
<g clip-path="url(#clip0_192_1219)">
<path d="M5.83333 12.5625C5.83333 12.7836 5.74554 12.9955 5.58926 13.1518C5.43297 13.3081 5.22101 13.3959 5 13.3959H4.16667C3.94565 13.3959 3.73369 13.3081 3.57741 13.1518C3.42113 12.9955 3.33333 12.7836 3.33333 12.5625C3.33333 12.3415 3.42113 12.1296 3.57741 11.9733C3.73369 11.817 3.94565 11.7292 4.16667 11.7292H5C5.22101 11.7292 5.43297 11.817 5.58926 11.9733C5.74554 12.1296 5.83333 12.3415 5.83333 12.5625ZM9.16667 11.7292H8.33333C8.11232 11.7292 7.90036 11.817 7.74408 11.9733C7.5878 12.1296 7.5 12.3415 7.5 12.5625C7.5 12.7836 7.5878 12.9955 7.74408 13.1518C7.90036 13.3081 8.11232 13.3959 8.33333 13.3959H9.16667C9.38768 13.3959 9.59964 13.3081 9.75592 13.1518C9.9122 12.9955 10 12.7836 10 12.5625C10 12.3415 9.9122 12.1296 9.75592 11.9733C9.59964 11.817 9.38768 11.7292 9.16667 11.7292ZM5 15.0625H4.16667C3.94565 15.0625 3.73369 15.1503 3.57741 15.3066C3.42113 15.4629 3.33333 15.6749 3.33333 15.8959C3.33333 16.1169 3.42113 16.3288 3.57741 16.4851C3.73369 16.6414 3.94565 16.7292 4.16667 16.7292H5C5.22101 16.7292 5.43297 16.6414 5.58926 16.4851C5.74554 16.3288 5.83333 16.1169 5.83333 15.8959C5.83333 15.6749 5.74554 15.4629 5.58926 15.3066C5.43297 15.1503 5.22101 15.0625 5 15.0625ZM9.16667 15.0625H8.33333C8.11232 15.0625 7.90036 15.1503 7.74408 15.3066C7.5878 15.4629 7.5 15.6749 7.5 15.8959C7.5 16.1169 7.5878 16.3288 7.74408 16.4851C7.90036 16.6414 8.11232 16.7292 8.33333 16.7292H9.16667C9.38768 16.7292 9.59964 16.6414 9.75592 16.4851C9.9122 16.3288 10 16.1169 10 15.8959C10 15.6749 9.9122 15.4629 9.75592 15.3066C9.59964 15.1503 9.38768 15.0625 9.16667 15.0625ZM5 5.06254H4.16667C3.94565 5.06254 3.73369 5.15034 3.57741 5.30662C3.42113 5.4629 3.33333 5.67486 3.33333 5.89587C3.33333 6.11689 3.42113 6.32885 3.57741 6.48513C3.73369 6.64141 3.94565 6.72921 4.16667 6.72921H5C5.22101 6.72921 5.43297 6.64141 5.58926 6.48513C5.74554 6.32885 5.83333 6.11689 5.83333 5.89587C5.83333 5.67486 5.74554 5.4629 5.58926 5.30662C5.43297 5.15034 5.22101 5.06254 5 5.06254ZM9.16667 5.06254H8.33333C8.11232 5.06254 7.90036 5.15034 7.74408 5.30662C7.5878 5.4629 7.5 5.67486 7.5 5.89587C7.5 6.11689 7.5878 6.32885 7.74408 6.48513C7.90036 6.64141 8.11232 6.72921 8.33333 6.72921H9.16667C9.38768 6.72921 9.59964 6.64141 9.75592 6.48513C9.9122 6.32885 10 6.11689 10 5.89587C10 5.67486 9.9122 5.4629 9.75592 5.30662C9.59964 5.15034 9.38768 5.06254 9.16667 5.06254ZM5 8.39587H4.16667C3.94565 8.39587 3.73369 8.48367 3.57741 8.63995C3.42113 8.79623 3.33333 9.00819 3.33333 9.22921C3.33333 9.45022 3.42113 9.66218 3.57741 9.81846C3.73369 9.97474 3.94565 10.0625 4.16667 10.0625H5C5.22101 10.0625 5.43297 9.97474 5.58926 9.81846C5.74554 9.66218 5.83333 9.45022 5.83333 9.22921C5.83333 9.00819 5.74554 8.79623 5.58926 8.63995C5.43297 8.48367 5.22101 8.39587 5 8.39587ZM9.16667 8.39587H8.33333C8.11232 8.39587 7.90036 8.48367 7.74408 8.63995C7.5878 8.79623 7.5 9.00819 7.5 9.22921C7.5 9.45022 7.5878 9.66218 7.74408 9.81846C7.90036 9.97474 8.11232 10.0625 8.33333 10.0625H9.16667C9.38768 10.0625 9.59964 9.97474 9.75592 9.81846C9.9122 9.66218 10 9.45022 10 9.22921C10 9.00819 9.9122 8.79623 9.75592 8.63995C9.59964 8.48367 9.38768 8.39587 9.16667 8.39587ZM20 9.22921V16.7292C19.9987 17.8339 19.5593 18.8929 18.7782 19.674C17.997 20.4551 16.938 20.8946 15.8333 20.8959H4.16667C3.062 20.8946 2.00296 20.4551 1.22185 19.674C0.440735 18.8929 0.00132321 17.8339 0 16.7292L0 5.06254C0.00132321 3.95788 0.440735 2.89884 1.22185 2.11772C2.00296 1.33661 3.062 0.897197 4.16667 0.895874L9.16667 0.895874C10.2713 0.897197 11.3304 1.33661 12.1115 2.11772C12.8926 2.89884 13.332 3.95788 13.3333 5.06254H15.8333C16.938 5.06386 17.997 5.50328 18.7782 6.28439C19.5593 7.06551 19.9987 8.12454 20 9.22921ZM4.16667 19.2292H11.6667V5.06254C11.6667 4.3995 11.4033 3.76361 10.9344 3.29477C10.4656 2.82593 9.82971 2.56254 9.16667 2.56254H4.16667C3.50363 2.56254 2.86774 2.82593 2.3989 3.29477C1.93006 3.76361 1.66667 4.3995 1.66667 5.06254V16.7292C1.66667 17.3922 1.93006 18.0281 2.3989 18.497C2.86774 18.9658 3.50363 19.2292 4.16667 19.2292ZM18.3333 9.22921C18.3333 8.56617 18.0699 7.93028 17.6011 7.46144C17.1323 6.9926 16.4964 6.72921 15.8333 6.72921H13.3333V19.2292H15.8333C16.4964 19.2292 17.1323 18.9658 17.6011 18.497C18.0699 18.0281 18.3333 17.3922 18.3333 16.7292V9.22921ZM15.8333 11.7292C15.6685 11.7292 15.5074 11.7781 15.3704 11.8696C15.2333 11.9612 15.1265 12.0914 15.0634 12.2436C15.0004 12.3959 14.9839 12.5635 15.016 12.7251C15.0482 12.8868 15.1275 13.0353 15.2441 13.1518C15.3606 13.2683 15.5091 13.3477 15.6708 13.3799C15.8324 13.412 16 13.3955 16.1522 13.3324C16.3045 13.2694 16.4347 13.1626 16.5262 13.0255C16.6178 12.8885 16.6667 12.7274 16.6667 12.5625C16.6667 12.3415 16.5789 12.1296 16.4226 11.9733C16.2663 11.817 16.0543 11.7292 15.8333 11.7292ZM15.8333 15.0625C15.6685 15.0625 15.5074 15.1114 15.3704 15.203C15.2333 15.2945 15.1265 15.4247 15.0634 15.577C15.0004 15.7292 14.9839 15.8968 15.016 16.0584C15.0482 16.2201 15.1275 16.3686 15.2441 16.4851C15.3606 16.6017 15.5091 16.681 15.6708 16.7132C15.8324 16.7453 16 16.7288 16.1522 16.6658C16.3045 16.6027 16.4347 16.4959 16.5262 16.3588C16.6178 16.2218 16.6667 16.0607 16.6667 15.8959C16.6667 15.6749 16.5789 15.4629 16.4226 15.3066C16.2663 15.1503 16.0543 15.0625 15.8333 15.0625ZM15.8333 8.39587C15.6685 8.39587 15.5074 8.44475 15.3704 8.53632C15.2333 8.62788 15.1265 8.75803 15.0634 8.9103C15.0004 9.06258 14.9839 9.23013 15.016 9.39178C15.0482 9.55343 15.1275 9.70192 15.2441 9.81846C15.3606 9.93501 15.5091 10.0144 15.6708 10.0465C15.8324 10.0787 16 10.0622 16.1522 9.99911C16.3045 9.93603 16.4347 9.82922 16.5262 9.69218C16.6178 9.55514 16.6667 9.39402 16.6667 9.22921C16.6667 9.00819 16.5789 8.79623 16.4226 8.63995C16.2663 8.48367 16.0543 8.39587 15.8333 8.39587Z" fill="#00264D"/>
</g>
<defs>
<clipPath id="clip0_192_1219">
<rect width="20" height="20" fill="white" transform="translate(0 0.895874)"/>
</clipPath>
</defs>
</svg>
