<svg width="16" height="16" viewBox="0 0 16 16" fill="none" xmlns="http://www.w3.org/2000/svg">
<path fill-rule="evenodd" clip-rule="evenodd" d="M0 0.625C0 0.279822 0.279822 0 0.625 0H1.45437C2.36215 0 3.13953 0.650289 3.29989 1.54374L3.47152 2.5H14.125C15.1606 2.5 16 3.33949 16 4.375C16 4.53136 15.9807 4.68413 15.9441 4.83074C15.9435 4.83323 15.9428 4.83573 15.9422 4.83821L14.6931 9.58479C14.4879 10.3977 13.7525 11 12.875 11L4.25 11C3.90483 11 3.625 11.2798 3.625 11.625C3.625 11.9702 3.90483 12.25 4.25 12.25H14.25C14.5952 12.25 14.875 12.5298 14.875 12.875C14.875 13.0474 14.8052 13.2035 14.6923 13.3166C14.8094 13.5614 14.875 13.8355 14.875 14.125C14.875 15.1605 14.0356 16 13 16C11.9644 16 11.125 15.1605 11.125 14.125C11.125 13.9059 11.1626 13.6955 11.2317 13.5H7.2683C7.3374 13.6955 7.375 13.9059 7.375 14.125C7.375 15.1605 6.53552 16 5.5 16C4.46448 16 3.625 15.1605 3.625 14.125C3.625 13.8811 3.67157 13.6481 3.75631 13.4343C2.9603 13.2176 2.375 12.4897 2.375 11.625C2.375 10.8451 2.85117 10.1764 3.52864 9.89379L2.35402 3.34946C2.3272 3.27979 2.3125 3.20411 2.3125 3.125C2.3125 3.12278 2.31251 3.12056 2.31254 3.11835L2.06955 1.76457C2.0161 1.46677 1.75698 1.25 1.45437 1.25H0.625C0.279822 1.25 0 0.970178 0 0.625ZM3.69588 3.75L4.77281 9.75L12.875 9.75C13.1669 9.75 13.4135 9.54933 13.4814 9.27757C13.482 9.27508 13.4827 9.27258 13.4833 9.2701L14.7322 4.52452C14.7437 4.47728 14.75 4.42733 14.75 4.375C14.75 4.02982 14.4702 3.75 14.125 3.75H3.69588ZM5.5 13.5C5.15484 13.5 4.875 13.7798 4.875 14.125C4.875 14.4702 5.15483 14.75 5.5 14.75C5.84517 14.75 6.125 14.4702 6.125 14.125C6.125 13.7798 5.84516 13.5 5.5 13.5ZM13 13.5C12.6548 13.5 12.375 13.7798 12.375 14.125C12.375 14.4702 12.6548 14.75 13 14.75C13.3452 14.75 13.625 14.4702 13.625 14.125C13.625 13.7798 13.3452 13.5 13 13.5Z" fill="#00264D"/>
</svg>
