<svg width="24" height="24" viewBox="0 0 24 24" fill="none" xmlns="http://www.w3.org/2000/svg">
<rect width="24" height="24" rx="12" fill="#00A86B"/>
<path d="M4.05172 10.8187C3.94678 10.5654 4.00478 10.2738 4.19862 10.08L7.28297 6.99563C7.54781 6.73079 7.97697 6.73079 8.24178 6.99563C8.50653 7.26032 8.50653 7.68963 8.24178 7.95432L6.31475 9.88135H19.322C19.6964 9.88135 20 10.1848 20 10.5593C20 10.9338 19.6964 11.2373 19.322 11.2373H4.67803C4.40381 11.2373 4.15666 11.072 4.05172 10.8187V10.8187ZM19.322 12.7627H4.67797C4.30356 12.7627 4 13.0662 4 13.4407C4 13.8152 4.30356 14.1187 4.67797 14.1187H17.6853L15.7582 16.0457C15.4935 16.3104 15.4934 16.7397 15.7582 17.0044C15.8906 17.1368 16.064 17.203 16.2376 17.203C16.411 17.203 16.5846 17.1368 16.717 17.0044L19.8014 13.92C19.9952 13.7262 20.0532 13.4346 19.9483 13.1813C19.8433 12.928 19.5962 12.7627 19.322 12.7627Z" fill="white"/>
</svg>
