<svg width="16" height="16" viewBox="0 0 16 16" fill="none" xmlns="http://www.w3.org/2000/svg">
<path d="M7.94238 15.29C11.9072 15.29 15.1611 12.0293 15.1611 8.06445C15.1611 4.10645 11.9004 0.845703 7.94238 0.845703C3.97754 0.845703 0.723633 4.10645 0.723633 8.06445C0.723633 12.0293 3.98438 15.29 7.94238 15.29ZM7.19043 11.4961C6.88281 11.4961 6.64355 11.3594 6.4248 11.0928L4.81836 9.17871C4.66113 8.9873 4.59961 8.81641 4.59961 8.61816C4.59961 8.19434 4.94141 7.85938 5.3584 7.85938C5.60449 7.85938 5.7959 7.95508 5.98047 8.17383L7.16992 9.64355L9.83594 5.40527C10.0137 5.11816 10.2393 4.97461 10.5059 4.97461C10.916 4.97461 11.292 5.27539 11.292 5.69922C11.292 5.87012 11.2236 6.05469 11.1006 6.23242L7.92871 11.0859C7.75098 11.3457 7.48438 11.4961 7.19043 11.4961Z" fill="#00A86B"/>
</svg>
