<svg width="12" height="12" viewBox="0 0 12 12" fill="none" xmlns="http://www.w3.org/2000/svg">
<g clip-path="url(#clip0_798_56317)">
<path d="M12 5.75001C12 5.4052 11.898 5.06809 11.7068 4.78114C11.5156 4.49419 11.2437 4.27025 10.9255 4.13751C10.7249 2.97743 10.1204 1.92569 9.21898 1.16846C8.31753 0.411228 7.17725 -0.00267413 5.99996 1.32022e-05C4.82274 -0.00269436 3.68252 0.411137 2.78108 1.16827C1.87964 1.9254 1.27511 2.97702 1.07446 4.13701C0.711991 4.29005 0.411668 4.56076 0.221968 4.90546C0.0322689 5.25016 -0.0357377 5.64873 0.0289264 6.03683C0.0935905 6.42493 0.287152 6.77991 0.578366 7.04449C0.86958 7.30906 1.24145 7.46777 1.63396 7.49501C1.82701 7.90929 2.07435 8.29602 2.36946 8.64501C2.11072 8.76487 1.89151 8.95599 1.73751 9.19597C1.58352 9.43596 1.50111 9.71487 1.49996 10V12H10.5V10C10.4989 9.71484 10.4167 9.43586 10.2627 9.19578C10.1088 8.95571 9.88968 8.76448 9.63096 8.64451C9.92577 8.29539 10.1729 7.90868 10.366 7.49451C10.8085 7.46452 11.2233 7.26781 11.5265 6.94406C11.8298 6.62031 11.999 6.1936 12 5.75001ZM10.124 6.48651L9.70646 6.41251L9.56546 6.81251C9.10746 8.11051 7.56496 9.50001 5.99996 9.50001C4.43496 9.50001 2.89296 8.11001 2.43446 6.81201L2.29446 6.41551L1.87946 6.48551C1.83677 6.49393 1.79345 6.49879 1.74996 6.50001C1.56518 6.49665 1.38815 6.42519 1.25283 6.29933C1.1175 6.17348 1.03341 6.00209 1.01668 5.81804C0.999945 5.63399 1.05175 5.45025 1.16217 5.30205C1.27258 5.15385 1.43382 5.05164 1.61496 5.01501L1.98396 4.94801L2.02296 4.57601C2.09409 3.89336 2.34036 3.24066 2.73789 2.68115C3.13542 2.12165 3.67073 1.67432 4.29196 1.38251C4.23505 1.63835 4.23634 1.9037 4.29571 2.15897C4.35509 2.41424 4.47105 2.65292 4.63503 2.85737C4.799 3.06183 5.0068 3.22684 5.24309 3.34023C5.47938 3.45362 5.73812 3.51249 6.00021 3.51249C6.2623 3.51249 6.52104 3.45362 6.75733 3.34023C6.99362 3.22684 7.20142 3.06183 7.36539 2.85737C7.52937 2.65292 7.64533 2.41424 7.7047 2.15897C7.76408 1.9037 7.76537 1.63835 7.70846 1.38251C8.32948 1.67414 8.86464 2.12123 9.26208 2.68047C9.65952 3.23971 9.90577 3.89213 9.97696 4.57451L10.016 4.94651L10.385 5.01301C10.5682 5.04757 10.732 5.14916 10.8444 5.29797C10.9568 5.44677 11.0098 5.63211 10.9929 5.81784C10.976 6.00356 10.8906 6.17634 10.7532 6.30247C10.6159 6.4286 10.4364 6.49902 10.25 6.50001C10.2077 6.49884 10.1655 6.49433 10.124 6.48651Z" fill="#00264D"/>
<path d="M4.75 6.5C5.16421 6.5 5.5 6.16421 5.5 5.75C5.5 5.33579 5.16421 5 4.75 5C4.33579 5 4 5.33579 4 5.75C4 6.16421 4.33579 6.5 4.75 6.5Z" fill="#00264D"/>
<path d="M7.25 6.5C7.66421 6.5 8 6.16421 8 5.75C8 5.33579 7.66421 5 7.25 5C6.83579 5 6.5 5.33579 6.5 5.75C6.5 6.16421 6.83579 6.5 7.25 6.5Z" fill="#00264D"/>
</g>
<defs>
<clipPath id="clip0_798_56317">
<rect width="12" height="12" fill="white"/>
</clipPath>
</defs>
</svg>
