<svg width="25" height="24" viewBox="0 0 25 24" fill="none" xmlns="http://www.w3.org/2000/svg">
<g clip-path="url(#clip0_1418_19665)">
<path d="M19.5268 20.9032L18.6307 18.2145C18.3175 17.2757 17.5185 16.5828 16.5446 16.4056L13.9576 15.9348V15.7343C14.4078 15.473 14.7996 15.1235 15.1116 14.7097H15.8931C16.5334 14.7097 17.0544 14.1886 17.0544 13.5484V8.90323C17.0544 6.12852 14.7968 3.87097 12.0221 3.87097C9.24743 3.87097 6.98988 6.12852 6.98988 8.90323V11.6129C6.98988 12.3592 7.52059 12.9836 8.22433 13.1292C8.44149 14.2417 9.13672 15.1831 10.0867 15.7343V15.9348L7.4993 16.4056C6.52575 16.5828 5.7264 17.2757 5.41362 18.2145L5.25878 18.6794L3.94033 17.3609C3.78936 17.2099 3.78936 16.9641 3.94033 16.8132L5.46936 15.2845L2.59943 12.4146L0.871429 14.1426C0.359687 14.6543 0.0778809 15.3348 0.0778809 16.0587C0.0778809 16.7826 0.359687 17.4627 0.871429 17.9745L6.10304 23.2061C6.61478 23.7178 7.2953 24 8.01917 24C8.74304 24 9.42317 23.7178 9.92291 23.2177L11.8085 21.4901L11.2205 20.9032H19.5268ZM16.2802 13.5484C16.2802 13.7621 16.1064 13.9355 15.8931 13.9355H15.5676C15.6798 13.6796 15.765 13.4098 15.8199 13.1292C15.9856 13.0947 16.1381 13.0289 16.2802 12.9461V13.5484ZM15.8931 12.2795V10.9463C16.1234 11.0806 16.2802 11.3276 16.2802 11.6129C16.2802 11.8982 16.1234 12.1452 15.8931 12.2795ZM8.15117 12.2795C7.92085 12.1452 7.76407 11.8982 7.76407 11.6129C7.76407 11.3276 7.92085 11.0806 8.15117 10.9463V12.2795ZM8.15117 9.67742V10.1195C8.01336 10.1555 7.88407 10.2097 7.76407 10.2797V8.90323C7.76407 6.55549 9.6744 4.64517 12.0221 4.64517C14.3699 4.64517 16.2802 6.55549 16.2802 8.90323V10.2797C16.1602 10.2097 16.0309 10.1551 15.8931 10.1195V9.67742H15.506C14.3614 9.67742 13.2852 9.23149 12.4754 8.42207L12.0221 7.96878L11.5688 8.42207C10.759 9.23149 9.68291 9.67742 8.53827 9.67742H8.15117ZM8.92536 12.3871V10.4369C10.0878 10.3494 11.1717 9.86981 12.0221 9.06117C12.8726 9.86981 13.9565 10.3498 15.1189 10.4369V12.3871C15.1189 12.9515 14.9649 13.4795 14.7001 13.9355H12.0221V14.7097H14.0637C13.5179 15.1901 12.8045 15.4839 12.0221 15.4839C10.3147 15.4839 8.92536 14.0946 8.92536 12.3871ZM13.1834 16.0796V16.0978L12.0221 17.2591L10.8608 16.0978V16.0796C11.2278 16.195 11.6176 16.2581 12.0221 16.2581C12.4267 16.2581 12.8165 16.195 13.1834 16.0796ZM6.14756 18.4591C6.37091 17.7886 6.94188 17.2936 7.63749 17.1666L10.3433 16.675L12.0221 18.3538L13.7006 16.6754L16.406 17.167C17.1016 17.2939 17.6726 17.7886 17.8959 18.4595L18.453 20.129H10.4463L8.93853 18.6213L7.26317 20.1368C7.11724 20.2835 6.86214 20.2835 6.71582 20.1368L5.8704 19.2914L6.14756 18.4591ZM2.59904 13.5093L4.37427 15.2845L3.95388 15.7049L2.17865 13.9297L2.59904 13.5093ZM9.38678 22.6595C9.02137 23.0241 8.53517 23.2258 8.0184 23.2258C7.50162 23.2258 7.01543 23.0241 6.64962 22.6587L1.41801 17.4275C1.05259 17.0621 0.8513 16.5759 0.8513 16.0591C0.8513 15.5419 1.05259 15.0557 1.41801 14.6903L1.63091 14.4774L3.40614 16.2526L3.3922 16.2666C2.93969 16.7195 2.93969 17.4561 3.3922 17.909L6.16807 20.6849C6.38756 20.904 6.67904 21.0252 6.98949 21.0252C7.29995 21.0252 7.59143 20.9044 7.79659 20.6985L7.82562 20.6725L9.60898 22.4559L9.38678 22.6595ZM10.1803 21.9317L8.40085 20.1523L8.9122 19.6901L10.6886 21.4665L10.1803 21.9317Z" fill="#00264D"/>
<path d="M22.8609 0H17.4416C16.8013 0 16.2803 0.521032 16.2803 1.16129V4.25806C16.2803 4.89832 16.8013 5.41935 17.4416 5.41935H18.4755L18.0752 7.75394L21.8107 5.41935H22.8609C23.5012 5.41935 24.0222 4.89832 24.0222 4.25806V1.16129C24.0222 0.521032 23.5012 0 22.8609 0ZM23.248 4.25806C23.248 4.47135 23.0742 4.64516 22.8609 4.64516H21.5885L19.1301 6.18155L19.3937 4.64516H17.4416C17.2283 4.64516 17.0545 4.47135 17.0545 4.25806V1.16129C17.0545 0.948 17.2283 0.774194 17.4416 0.774194H22.8609C23.0742 0.774194 23.248 0.948 23.248 1.16129V4.25806Z" fill="#00264D"/>
<path d="M22.4738 1.54834H17.8286V2.32253H22.4738V1.54834Z" fill="#00264D"/>
<path d="M20.9254 3.0968H17.8286V3.871H20.9254V3.0968Z" fill="#00264D"/>
<path d="M22.4737 3.0968H21.6995V3.871H22.4737V3.0968Z" fill="#00264D"/>
<path d="M12.022 1.16125C6.96423 1.16125 2.60746 4.65984 1.47481 9.53996L0.741264 8.31713L0.0773926 8.71545L1.43804 10.9827L3.70526 9.62203L3.30694 8.95816L2.25791 9.58758C3.35494 5.12319 7.36952 1.93545 12.022 1.93545C13.0389 1.93545 14.0423 2.08642 15.0042 2.38448L15.2334 1.64513C14.1971 1.32384 13.1167 1.16125 12.022 1.16125Z" fill="#00264D"/>
<path d="M23.8339 8.57109L21.5667 7.21045L20.2064 9.47806L20.8703 9.87638L21.5477 8.74722C21.9042 9.79045 22.0866 10.8817 22.0866 12C22.0866 14.3021 21.2892 16.5526 19.8418 18.3368L20.443 18.8245C22.0022 16.903 22.8608 14.479 22.8608 12C22.8608 10.8159 22.6699 9.65961 22.2979 8.55251L23.4356 9.23497L23.8339 8.57109Z" fill="#00264D"/>
</g>
<defs>
<clipPath id="clip0_1418_19665">
<rect width="24" height="24" fill="white" transform="translate(0.0498047)"/>
</clipPath>
</defs>
</svg>
