<svg width="17" height="16" viewBox="0 0 17 16" fill="none" xmlns="http://www.w3.org/2000/svg">
<g clip-path="url(#clip0_464_9407)">
<path d="M13.4167 1.33333H12.75V0.666667C12.75 0.298667 12.452 0 12.0833 0C11.7147 0 11.4167 0.298667 11.4167 0.666667V1.33333H6.08333V0.666667C6.08333 0.298667 5.78533 0 5.41667 0C5.048 0 4.75 0.298667 4.75 0.666667V1.33333H4.08333C2.24533 1.33333 0.75 2.82867 0.75 4.66667V12.6667C0.75 14.5047 2.24533 16 4.08333 16H13.4167C15.2547 16 16.75 14.5047 16.75 12.6667V4.66667C16.75 2.82867 15.2547 1.33333 13.4167 1.33333ZM4.08333 2.66667H13.4167C14.5193 2.66667 15.4167 3.564 15.4167 4.66667V5.33333H2.08333V4.66667C2.08333 3.564 2.98067 2.66667 4.08333 2.66667ZM13.4167 14.6667H4.08333C2.98067 14.6667 2.08333 13.7693 2.08333 12.6667V6.66667H15.4167V12.6667C15.4167 13.7693 14.5193 14.6667 13.4167 14.6667ZM13.4167 9.33333C13.4167 9.70133 13.1187 10 12.75 10H4.75C4.38133 10 4.08333 9.70133 4.08333 9.33333C4.08333 8.96533 4.38133 8.66667 4.75 8.66667H12.75C13.1187 8.66667 13.4167 8.96533 13.4167 9.33333ZM8.75 12C8.75 12.368 8.452 12.6667 8.08333 12.6667H4.75C4.38133 12.6667 4.08333 12.368 4.08333 12C4.08333 11.632 4.38133 11.3333 4.75 11.3333H8.08333C8.452 11.3333 8.75 11.632 8.75 12Z" fill="#698096"/>
</g>
<defs>
<clipPath id="clip0_464_9407">
<rect width="16" height="16" fill="white" transform="translate(0.75)"/>
</clipPath>
</defs>
</svg>
