<svg width="14" height="14" viewBox="0 0 14 14" fill="none" xmlns="http://www.w3.org/2000/svg">
<path d="M11.4443 5.51482C10.4977 4.56821 9.30218 3.96118 8.0054 3.75389C8.03614 3.65515 8.05271 3.55023 8.05271 3.44151C8.05271 2.86103 7.58045 2.38878 6.99997 2.38878C6.41949 2.38878 5.94724 2.86103 5.94724 3.44151C5.94724 3.55023 5.96381 3.65515 5.99454 3.75389C4.69779 3.96118 3.50227 4.56821 2.55566 5.51482C1.61055 6.45996 1.00393 7.65319 0.795731 8.94761H13.2043C12.9961 7.65319 12.3895 6.45996 11.4443 5.51482Z" fill="#00A86B"/>
<path d="M0 9.76793V10.5882H0.953969L1.40479 11.6112H12.5952L13.046 10.5882H14V9.76793H0Z" fill="#00A86B"/>
</svg>
