<svg width="14" height="17" viewBox="0 0 14 17" fill="none" xmlns="http://www.w3.org/2000/svg">
<path d="M12.5148 16.6082H3.69669C3.31839 16.6082 2.95559 16.4579 2.68809 16.1904C2.42059 15.9229 2.27032 15.5601 2.27032 15.1818V2.12706C2.27032 1.74876 2.42059 1.38596 2.68809 1.11846C2.95559 0.850962 3.31839 0.700684 3.69669 0.700684H7.7425C8.10464 0.701423 8.45383 0.835436 8.72347 1.07716L13.4427 5.31917C13.5979 5.45796 13.722 5.62794 13.807 5.818C13.892 6.00805 13.9359 6.2139 13.9358 6.42209V15.1818C13.9358 15.5592 13.7863 15.9212 13.5199 16.1886C13.2536 16.4559 12.8921 16.6068 12.5148 16.6082V16.6082ZM3.69669 1.76119C3.59965 1.76119 3.50659 1.79973 3.43798 1.86835C3.36936 1.93696 3.33082 2.03002 3.33082 2.12706V15.1818C3.33082 15.2789 3.36936 15.3719 3.43798 15.4405C3.50659 15.5092 3.59965 15.5477 3.69669 15.5477H12.5148C12.6118 15.5477 12.7049 15.5092 12.7735 15.4405C12.8421 15.3719 12.8806 15.2789 12.8806 15.1818V6.39558C12.8805 6.33751 12.8682 6.28011 12.8445 6.22713C12.8207 6.17414 12.7861 6.12675 12.7428 6.08803L8.02354 1.84603C7.94339 1.78433 7.84341 1.75415 7.7425 1.76119H3.69669Z" fill="#00264D"/>
<path d="M13.4056 6.50166H8.73408C8.42609 6.50166 8.13072 6.37932 7.91295 6.16154C7.69517 5.94376 7.57283 5.64839 7.57283 5.34041V1.52791H8.63333V5.34041C8.63333 5.36713 8.64394 5.39276 8.66284 5.41165C8.68173 5.43054 8.70736 5.44116 8.73408 5.44116H13.4056V6.50166Z" fill="#00264D"/>
<path d="M10.4043 12.8965H6.16234C5.86949 12.8965 5.63209 13.1339 5.63209 13.4267C5.63209 13.7196 5.86949 13.957 6.16234 13.957H10.4043C10.6972 13.957 10.9346 13.7196 10.9346 13.4267C10.9346 13.1339 10.6972 12.8965 10.4043 12.8965Z" fill="#00264D"/>
<path d="M7.22284 10.611H6.16234C5.86949 10.611 5.63209 10.8484 5.63209 11.1413C5.63209 11.4341 5.86949 11.6715 6.16234 11.6715H7.22284C7.51569 11.6715 7.75309 11.4341 7.75309 11.1413C7.75309 10.8484 7.51569 10.611 7.22284 10.611Z" fill="#00264D"/>
<path d="M1.38478 14.307C1.03407 14.3028 0.699058 14.1609 0.452045 13.9119C0.205031 13.6629 0.0658201 13.3268 0.0644532 12.9761V4.33297C0.064413 4.13637 0.108101 3.94223 0.192351 3.7646C0.276602 3.58697 0.399306 3.43031 0.551575 3.30596C0.703845 3.1816 0.881867 3.09267 1.07275 3.04561C1.26363 2.99855 1.46258 2.99453 1.65521 3.03385L2.79525 3.22474L2.62026 4.28524L1.46962 4.07845C1.42802 4.06717 1.38439 4.0656 1.3421 4.07388C1.2998 4.08215 1.25998 4.10004 1.2257 4.12617C1.19446 4.15086 1.16917 4.18227 1.15173 4.21807C1.13429 4.25387 1.12514 4.29314 1.12496 4.33297V12.9761C1.12574 13.0156 1.13519 13.0545 1.15264 13.09C1.1701 13.1255 1.19513 13.1568 1.22597 13.1815C1.25682 13.2063 1.29272 13.224 1.33116 13.2334C1.36959 13.2428 1.40961 13.2436 1.44841 13.2359L2.64678 13.0768L2.78464 14.1373L1.62339 14.2911C1.54465 14.3049 1.46466 14.3102 1.38478 14.307V14.307Z" fill="#00264D"/>
</svg>
