<svg width="18" height="17" viewBox="0 0 18 17" fill="none" xmlns="http://www.w3.org/2000/svg">
<path d="M16.386 8.03874H12.0775C10.727 8.03874 9.61544 9.15035 9.61544 10.5008C9.61544 11.8512 10.727 12.9628 12.0775 12.9628H14.5395V14.8094C14.5395 15.1473 14.2619 15.4249 13.924 15.4249H4.07584C3.06271 15.4249 2.22931 14.5915 2.22931 13.5783V4.34568C2.22931 3.33255 3.06271 2.49915 4.07584 2.49915H5.30686C5.64478 2.49915 5.92237 2.22155 5.92237 1.88364C5.92237 1.54572 5.64478 1.26813 5.30686 1.26813H4.07584C2.3875 1.26813 0.998291 2.65733 0.998291 4.34568V13.5783C0.998291 15.2667 2.3875 16.6559 4.07584 16.6559H13.924C14.9371 16.6559 15.7705 15.8225 15.7705 14.8094V12.9628H16.386C16.724 12.9628 17.0016 12.6852 17.0016 12.3473V8.65425C17.0016 8.31633 16.724 8.03874 16.386 8.03874ZM15.7705 11.7318H12.0775C11.4023 11.7318 10.8465 11.176 10.8465 10.5008C10.8465 9.82557 11.4023 9.26976 12.0775 9.26976H15.7705V11.7318Z" fill="#00264D"/>
<path d="M3.85426 3.77325C3.16735 4.073 3.39447 4.96118 4.07584 4.96118H13.924C14.2619 4.96118 14.5395 5.23878 14.5395 5.57669V6.1922C14.5395 6.53012 14.8171 6.80771 15.155 6.80771C15.4929 6.80771 15.7705 6.53012 15.7705 6.1922V5.57669C15.7699 5.08736 15.5754 4.61773 15.2289 4.27181C14.883 3.92528 14.4133 3.73078 13.924 3.73016H13.727L12.6499 1.04038C12.525 0.729548 12.168 0.574439 11.8559 0.695695L3.85426 3.77325ZM12.3975 3.73016H7.39344L11.7328 2.06213L12.3975 3.73016Z" fill="#00264D"/>
</svg>
