<svg width="17" height="16" viewBox="0 0 17 16" fill="none" xmlns="http://www.w3.org/2000/svg">
<g clip-path="url(#clip0_213_1473)">
<path d="M13.8333 4.66667H12.6747C13.0516 4.3344 13.3508 3.92325 13.551 3.4624C13.7513 3.00154 13.8477 2.50227 13.8333 2C13.8333 1.82319 13.7631 1.65362 13.6381 1.5286C13.513 1.40357 13.3435 1.33333 13.1667 1.33333C12.9899 1.33333 12.8203 1.40357 12.6953 1.5286C12.5702 1.65362 12.5 1.82319 12.5 2C12.5 3.748 10.9193 4.35333 9.71733 4.56067C10.161 3.77404 10.4281 2.90025 10.5 2C10.5 1.46957 10.2893 0.960859 9.91421 0.585786C9.53914 0.210714 9.03043 0 8.5 0C7.96957 0 7.46086 0.210714 7.08579 0.585786C6.71071 0.960859 6.5 1.46957 6.5 2C6.57194 2.90025 6.83901 3.77404 7.28267 4.56067C6.08067 4.35333 4.5 3.748 4.5 2C4.5 1.82319 4.42976 1.65362 4.30474 1.5286C4.17971 1.40357 4.01014 1.33333 3.83333 1.33333C3.65652 1.33333 3.48695 1.40357 3.36193 1.5286C3.2369 1.65362 3.16667 1.82319 3.16667 2C3.15234 2.50227 3.24872 3.00154 3.44896 3.4624C3.6492 3.92325 3.9484 4.3344 4.32533 4.66667H3.16667C2.45942 4.66667 1.78115 4.94762 1.28105 5.44772C0.780952 5.94781 0.5 6.62609 0.5 7.33333L0.5 8C0.5 8.35362 0.640476 8.69276 0.890524 8.94281C1.14057 9.19286 1.47971 9.33333 1.83333 9.33333V12.6667C1.83439 13.5504 2.18592 14.3976 2.81081 15.0225C3.43571 15.6474 4.28294 15.9989 5.16667 16H11.8333C12.7171 15.9989 13.5643 15.6474 14.1892 15.0225C14.8141 14.3976 15.1656 13.5504 15.1667 12.6667V9.33333C15.5203 9.33333 15.8594 9.19286 16.1095 8.94281C16.3595 8.69276 16.5 8.35362 16.5 8V7.33333C16.5 6.62609 16.219 5.94781 15.719 5.44772C15.2189 4.94762 14.5406 4.66667 13.8333 4.66667ZM8.5 1.33333C8.67681 1.33333 8.84638 1.40357 8.97141 1.5286C9.09643 1.65362 9.16667 1.82319 9.16667 2C9.08619 2.70855 8.85915 3.39261 8.5 4.00867C8.14085 3.39261 7.91381 2.70855 7.83333 2C7.83333 1.82319 7.90357 1.65362 8.0286 1.5286C8.15362 1.40357 8.32319 1.33333 8.5 1.33333ZM1.83333 7.33333C1.83333 6.97971 1.97381 6.64057 2.22386 6.39052C2.47391 6.14048 2.81304 6 3.16667 6H7.83333V8H1.83333V7.33333ZM3.16667 12.6667V9.33333H7.83333V14.6667H5.16667C4.63623 14.6667 4.12753 14.456 3.75245 14.0809C3.37738 13.7058 3.16667 13.1971 3.16667 12.6667ZM13.8333 12.6667C13.8333 13.1971 13.6226 13.7058 13.2475 14.0809C12.8725 14.456 12.3638 14.6667 11.8333 14.6667H9.16667V9.33333H13.8333V12.6667ZM9.16667 8V6H13.8333C14.187 6 14.5261 6.14048 14.7761 6.39052C15.0262 6.64057 15.1667 6.97971 15.1667 7.33333V8H9.16667Z" fill="#B7CCD9"/>
</g>
<defs>
<clipPath id="clip0_213_1473">
<rect width="16" height="16" fill="white" transform="translate(0.5)"/>
</clipPath>
</defs>
</svg>
