<svg width="16" height="16" viewBox="0 0 16 16" fill="none" xmlns="http://www.w3.org/2000/svg">
<g clip-path="url(#clip0_2748_1147)">
<path d="M14.5207 3.38209C14.5205 3.37693 14.5199 3.37178 14.519 3.36665C14.499 3.33808 14.4744 3.3135 14.4539 3.2855C14.3045 3.08201 14.1463 2.88615 13.9794 2.69789C13.9337 2.64645 13.888 2.59557 13.8411 2.54527C13.6693 2.36123 13.489 2.18573 13.3004 2.01884C13.2655 1.98797 13.2329 1.95598 13.1981 1.92567C12.7332 1.52742 12.2242 1.18373 11.6811 0.901394C11.6593 0.889973 11.6365 0.88026 11.6142 0.868806C11.3723 0.745892 11.1243 0.635402 10.8711 0.537841C10.8139 0.517277 10.7619 0.497818 10.7076 0.480671C10.4824 0.39952 10.2538 0.328451 10.0217 0.267462C9.95313 0.249176 9.88454 0.23032 9.81481 0.214311C9.58616 0.16116 9.35755 0.120568 9.12374 0.087411C9.05288 0.077129 8.98315 0.0633974 8.91167 0.0548235C8.30953 -0.0183559 7.70075 -0.0183559 7.09857 0.0548235C7.02713 0.0633974 6.9574 0.077129 6.8865 0.087411C6.65272 0.120568 6.4218 0.16116 6.19543 0.214311C6.1257 0.23032 6.05711 0.249176 5.98852 0.267462C5.75491 0.328417 5.5263 0.399487 5.30261 0.480671C5.24544 0.500096 5.19342 0.519555 5.13913 0.537841C4.88597 0.635402 4.63793 0.745858 4.39605 0.868806C4.37375 0.880227 4.35091 0.889939 4.32917 0.901394C3.78423 1.18343 3.27351 1.52709 2.807 1.92567C2.77214 1.95595 2.73955 1.98797 2.70469 2.01884C2.51415 2.1865 2.3339 2.362 2.16396 2.54527C2.11711 2.59557 2.07136 2.64645 2.02564 2.69789C1.85835 2.88574 1.7002 3.0816 1.55123 3.28547C1.53067 3.31347 1.50609 3.33805 1.48606 3.36662C1.48345 3.37161 1.48113 3.37677 1.47919 3.38206C-0.492332 6.14502 -0.492332 9.8549 1.47919 12.6178C1.48113 12.6231 1.48341 12.6283 1.48606 12.6333C1.50605 12.6618 1.53064 12.6864 1.55123 12.7144C1.70024 12.9179 1.85835 13.1138 2.02564 13.302C2.07136 13.3535 2.11711 13.4044 2.16396 13.4547C2.33621 13.6387 2.51643 13.8142 2.70469 13.9811C2.73955 14.012 2.77214 14.0439 2.807 14.0743C3.27187 14.4725 3.78088 14.8162 4.32401 15.0985C4.34575 15.11 4.36859 15.1197 4.3909 15.1311C4.63277 15.254 4.88078 15.3645 5.13398 15.4621C5.19115 15.4826 5.24316 15.5021 5.29745 15.5193C5.52265 15.6004 5.7513 15.6715 5.98336 15.7325C6.05195 15.7508 6.12054 15.7696 6.19027 15.7856C6.41892 15.8388 6.64753 15.8794 6.88134 15.9125C6.95221 15.9228 7.02194 15.9365 7.09341 15.9451C7.69556 16.0183 8.30434 16.0183 8.90652 15.9451C8.97795 15.9365 9.04768 15.9228 9.11859 15.9125C9.35236 15.8794 9.58328 15.8388 9.80965 15.7856C9.87938 15.7696 9.94797 15.7508 10.0166 15.7325C10.2505 15.6715 10.4792 15.6004 10.7025 15.5193C10.7596 15.4998 10.8117 15.4804 10.8659 15.4621C11.1191 15.3645 11.3672 15.2541 11.609 15.1311C11.6313 15.1197 11.6542 15.11 11.6759 15.0985C12.219 14.8162 12.7281 14.4725 13.1929 14.0743C13.2278 14.0439 13.2604 14.012 13.2952 13.9811C13.4858 13.8138 13.666 13.6383 13.836 13.4547C13.8828 13.4044 13.9286 13.3535 13.9743 13.302C14.1416 13.1138 14.2997 12.9179 14.4487 12.7144C14.4693 12.6864 14.4938 12.6618 14.5139 12.6333C14.5165 12.6283 14.5188 12.6231 14.5207 12.6178C16.4923 9.85494 16.4923 6.14506 14.5207 3.38209ZM13.8685 4.46357C14.4152 5.36386 14.7453 6.3788 14.8328 7.42843H11.409C11.3671 6.74734 11.2599 6.07188 11.0889 5.41129C12.056 5.23017 12.9922 4.91099 13.8685 4.46357ZM9.45699 1.29864C9.48901 1.30607 9.51985 1.31636 9.55187 1.32379C9.7565 1.37182 9.95943 1.42668 10.1578 1.49527C10.1881 1.50555 10.2178 1.51757 10.2475 1.52843C10.4442 1.59702 10.6379 1.67304 10.8277 1.75707C10.8609 1.77251 10.8934 1.78966 10.9266 1.8051C11.1084 1.89161 11.2859 1.98515 11.4593 2.08576L11.5736 2.15492C11.7382 2.25553 11.8983 2.36317 12.0538 2.47788C12.0938 2.50702 12.1338 2.53505 12.1732 2.56704C12.3257 2.68134 12.4716 2.80386 12.6111 2.93458C12.6476 2.96773 12.6854 3.00032 12.7214 3.03462C12.8677 3.17351 13.0072 3.3204 13.1421 3.47245C13.1592 3.49245 13.1775 3.51073 13.1947 3.52962C12.4207 3.89847 11.6008 4.16185 10.7568 4.31269C10.3659 3.23788 9.84937 2.21296 9.21812 1.25925C9.2975 1.27352 9.37868 1.28152 9.45699 1.29864ZM5.73706 7.42839C5.78214 6.80994 5.88744 6.19734 6.05145 5.59931C6.69908 5.67624 7.35069 5.71439 8.00288 5.71362C8.65566 5.71342 9.30788 5.6743 9.95601 5.59643C10.1197 6.19543 10.2244 6.809 10.2687 7.42839H5.73706ZM10.2687 8.5716C10.2236 9.19006 10.1183 9.80266 9.95427 10.4007C9.30664 10.3238 8.65503 10.2856 8.00284 10.2864C7.35009 10.2856 6.69791 10.3238 6.04971 10.4007C5.88617 9.80262 5.78147 9.19003 5.73703 8.5716H10.2687ZM8.00284 1.51359C8.65332 2.43552 9.18832 3.43374 9.59588 4.48588C9.06674 4.54208 8.53499 4.57031 8.00284 4.57048C7.4713 4.56984 6.94012 4.54144 6.41152 4.48531C6.81958 3.43387 7.35394 2.43598 8.00284 1.51359ZM2.86424 3.47185C2.99858 3.3198 3.13861 3.1729 3.28493 3.03401C3.32094 2.99972 3.35868 2.96713 3.39525 2.93397C3.53625 2.80557 3.68221 2.68305 3.83309 2.56643C3.87254 2.53612 3.91253 2.50926 3.95256 2.47728C4.10802 2.36297 4.26808 2.2553 4.43269 2.15432L4.547 2.08516C4.72039 1.98381 4.89796 1.89024 5.07972 1.8045C5.11288 1.78906 5.14546 1.77191 5.17862 1.75647C5.36838 1.67073 5.56217 1.59471 5.7588 1.52782C5.78851 1.51697 5.81597 1.50495 5.84852 1.49467C6.04686 1.42835 6.24865 1.37349 6.45442 1.32319C6.48644 1.31575 6.51728 1.30547 6.54987 1.29861C6.62818 1.28146 6.70936 1.27345 6.7888 1.25915C6.15728 2.21303 5.64064 3.23814 5.24949 4.31316C4.40553 4.16232 3.58559 3.89894 2.81166 3.53009C2.82881 3.51013 2.84709 3.49184 2.86424 3.47185ZM2.13717 4.46357C3.01335 4.91096 3.94927 5.23013 4.91625 5.41129C4.74547 6.07191 4.63847 6.74737 4.59674 7.42843H1.17291C1.26046 6.3788 1.59055 5.36386 2.13717 4.46357ZM2.13717 11.5365C1.59052 10.6362 1.26042 9.62123 1.17291 8.5716H4.59674C4.63867 9.25269 4.74584 9.92815 4.91682 10.5887C3.94968 10.7698 3.01355 11.089 2.13717 11.5365ZM6.54873 14.7014C6.51672 14.6939 6.48587 14.6836 6.45385 14.6762C6.24922 14.6282 6.04629 14.5733 5.84795 14.5047C5.81764 14.4944 5.78794 14.4824 5.75819 14.4716C5.56156 14.403 5.36782 14.327 5.17802 14.2429C5.14486 14.2275 5.11227 14.2103 5.07912 14.1949C4.89736 14.1084 4.71978 14.0148 4.5464 13.9142L4.43209 13.8451C4.26748 13.7445 4.10742 13.6368 3.95195 13.5221C3.91193 13.493 3.87194 13.4649 3.83249 13.433C3.68007 13.3186 3.53411 13.1961 3.39465 13.0654C3.35808 13.0323 3.32033 12.9997 3.28433 12.9654C3.138 12.8265 2.99854 12.6796 2.86364 12.5275C2.84649 12.5075 2.8282 12.4893 2.81106 12.4704C3.58502 12.1015 4.40493 11.8381 5.24889 11.6873C5.63987 12.7621 6.15634 13.787 6.7876 14.7407C6.70819 14.7265 6.62704 14.7185 6.54873 14.7014ZM8.00284 14.4864C7.35237 13.5645 6.81737 12.5663 6.40981 11.5141C7.46838 11.4002 8.53613 11.4002 9.5947 11.5141L9.59414 11.5147C9.18614 12.5661 8.65178 13.564 8.00284 14.4864ZM13.1415 12.5281C13.0071 12.6802 12.8671 12.8271 12.7208 12.966C12.6848 13.0003 12.647 13.0329 12.6105 13.066C12.4695 13.1948 12.3235 13.3173 12.1726 13.4336C12.1332 13.4638 12.0932 13.4936 12.0532 13.5227C11.8977 13.637 11.7376 13.7447 11.573 13.8457L11.4587 13.9148C11.2857 14.0158 11.1081 14.1094 10.926 14.1955C10.8928 14.2109 10.8603 14.2281 10.8271 14.2435C10.6373 14.3293 10.4436 14.4053 10.2469 14.4722C10.2172 14.483 10.1898 14.495 10.1572 14.5053C9.95886 14.5716 9.75707 14.6265 9.5513 14.6768C9.51928 14.6842 9.48844 14.6945 9.45585 14.7014C9.37754 14.7185 9.29636 14.7265 9.21692 14.7408C9.84817 13.7871 10.3647 12.7622 10.7556 11.6874C11.5996 11.8382 12.4195 12.1016 13.1935 12.4705C13.1769 12.4899 13.1586 12.5081 13.1415 12.5281ZM13.8685 11.5365C12.9924 11.0891 12.0564 10.7699 11.0895 10.5887C11.2602 9.92811 11.3673 9.25266 11.409 8.5716H14.8328C14.7453 9.6212 14.4152 10.6361 13.8685 11.5365Z" fill="#FF5B00"/>
</g>
<defs>
<clipPath id="clip0_2748_1147">
<rect width="16" height="16" fill="white"/>
</clipPath>
</defs>
</svg>
