<svg width="17" height="16" viewBox="0 0 17 16" fill="none" xmlns="http://www.w3.org/2000/svg">
<g clip-path="url(#clip0_464_9423)">
<path d="M5.75 8.66667C5.15666 8.66667 4.57664 8.49072 4.08329 8.16108C3.58994 7.83143 3.20542 7.3629 2.97836 6.81472C2.7513 6.26654 2.69189 5.66334 2.80764 5.0814C2.9234 4.49945 3.20912 3.96491 3.62868 3.54535C4.04824 3.12579 4.58279 2.84007 5.16473 2.72431C5.74667 2.60856 6.34987 2.66797 6.89805 2.89503C7.44623 3.12209 7.91476 3.50661 8.24441 3.99996C8.57405 4.4933 8.75 5.07332 8.75 5.66667C8.74912 6.46205 8.43276 7.2246 7.87035 7.78701C7.30793 8.34943 6.54538 8.66579 5.75 8.66667ZM5.75 4C5.42036 4 5.09813 4.09775 4.82405 4.28089C4.54997 4.46402 4.33635 4.72432 4.2102 5.02886C4.08405 5.33341 4.05105 5.66852 4.11536 5.99182C4.17967 6.31512 4.3384 6.61209 4.57149 6.84518C4.80458 7.07827 5.10155 7.237 5.42485 7.30131C5.74815 7.36562 6.08326 7.33261 6.38781 7.20647C6.69235 7.08032 6.95265 6.8667 7.13578 6.59262C7.31892 6.31854 7.41667 5.9963 7.41667 5.66667C7.41667 5.22464 7.24107 4.80072 6.92851 4.48816C6.61595 4.1756 6.19203 4 5.75 4ZM10.75 15.3333V15C10.75 13.6739 10.2232 12.4021 9.28553 11.4645C8.34785 10.5268 7.07608 10 5.75 10C4.42392 10 3.15215 10.5268 2.21447 11.4645C1.27678 12.4021 0.75 13.6739 0.75 15L0.75 15.3333C0.75 15.5101 0.820238 15.6797 0.945262 15.8047C1.07029 15.9298 1.23986 16 1.41667 16C1.59348 16 1.76305 15.9298 1.88807 15.8047C2.0131 15.6797 2.08333 15.5101 2.08333 15.3333V15C2.08333 14.0275 2.46964 13.0949 3.15728 12.4073C3.84491 11.7196 4.77754 11.3333 5.75 11.3333C6.72246 11.3333 7.65509 11.7196 8.34273 12.4073C9.03036 13.0949 9.41667 14.0275 9.41667 15V15.3333C9.41667 15.5101 9.48691 15.6797 9.61193 15.8047C9.73695 15.9298 9.90652 16 10.0833 16C10.2601 16 10.4297 15.9298 10.5547 15.8047C10.6798 15.6797 10.75 15.5101 10.75 15.3333ZM16.75 12C16.75 11.0991 16.4892 10.2175 15.9991 9.46158C15.5091 8.70565 14.8107 8.10772 13.9883 7.73998C13.1659 7.37223 12.2546 7.25039 11.3645 7.38916C10.4744 7.52793 9.64344 7.92137 8.972 8.522C8.90584 8.58013 8.85186 8.6508 8.81317 8.72991C8.77448 8.80903 8.75185 8.89502 8.74659 8.98293C8.74132 9.07085 8.75353 9.15893 8.7825 9.24209C8.81147 9.32526 8.85663 9.40186 8.91537 9.46748C8.97412 9.53309 9.04528 9.58642 9.12475 9.62437C9.20422 9.66232 9.29042 9.68416 9.37838 9.68861C9.46633 9.69306 9.5543 9.68004 9.63719 9.6503C9.72009 9.62055 9.79627 9.57469 9.86133 9.51534C10.341 9.08641 10.9345 8.80548 11.5703 8.70644C12.206 8.6074 12.8569 8.69449 13.4443 8.9572C14.0316 9.21991 14.5304 9.647 14.8804 10.1869C15.2304 10.7269 15.4167 11.3566 15.4167 12C15.4167 12.1768 15.4869 12.3464 15.6119 12.4714C15.737 12.5964 15.9065 12.6667 16.0833 12.6667C16.2601 12.6667 16.4297 12.5964 16.5547 12.4714C16.6798 12.3464 16.75 12.1768 16.75 12ZM12.4167 6C11.8233 6 11.2433 5.82405 10.75 5.49441C10.2566 5.16477 9.87209 4.69623 9.64503 4.14805C9.41796 3.59987 9.35855 2.99667 9.47431 2.41473C9.59007 1.83279 9.87579 1.29824 10.2953 0.878681C10.7149 0.459123 11.2495 0.173401 11.8314 0.0576455C12.4133 -0.0581102 13.0165 0.00129986 13.5647 0.228363C14.1129 0.455426 14.5814 0.839943 14.9111 1.33329C15.2407 1.82664 15.4167 2.40666 15.4167 3C15.4158 3.79538 15.0994 4.55793 14.537 5.12035C13.9746 5.68277 13.212 5.99912 12.4167 6ZM12.4167 1.33333C12.087 1.33333 11.7648 1.43108 11.4907 1.61422C11.2166 1.79735 11.003 2.05765 10.8769 2.3622C10.7507 2.66674 10.7177 3.00185 10.782 3.32515C10.8463 3.64845 11.0051 3.94543 11.2382 4.17851C11.4712 4.4116 11.7682 4.57033 12.0915 4.63464C12.4148 4.69895 12.7499 4.66595 13.0545 4.5398C13.359 4.41365 13.6193 4.20003 13.8025 3.92595C13.9856 3.65187 14.0833 3.32964 14.0833 3C14.0833 2.55797 13.9077 2.13405 13.5952 1.82149C13.2826 1.50893 12.8587 1.33333 12.4167 1.33333Z" fill="#698096"/>
</g>
<defs>
<clipPath id="clip0_464_9423">
<rect width="16" height="16" fill="white" transform="translate(0.75)"/>
</clipPath>
</defs>
</svg>
