<svg width="17" height="16" viewBox="0 0 17 16" fill="none" xmlns="http://www.w3.org/2000/svg">
<path d="M13.3424 2.66667H12.6084C12.2984 1.14733 10.9518 0 9.34245 0H8.00911C6.39978 0 5.05245 1.14733 4.74311 2.66667H4.00911C2.17111 2.66667 0.675781 4.162 0.675781 6V12.6667C0.675781 14.5047 2.17111 16 4.00911 16H13.3424C15.1804 16 16.6758 14.5047 16.6758 12.6667V6C16.6758 4.162 15.1804 2.66667 13.3424 2.66667ZM8.00911 1.33333H9.34245C10.2118 1.33333 10.9524 1.89067 11.2278 2.66667H6.12378C6.39911 1.89067 7.13978 1.33333 8.00911 1.33333ZM15.3424 12.6667C15.3424 13.7693 14.4451 14.6667 13.3424 14.6667H12.6758V6C12.6758 5.63133 12.3778 5.33333 12.0091 5.33333C11.6404 5.33333 11.3424 5.63133 11.3424 6V14.6667H6.00911V6C6.00911 5.63133 5.71045 5.33333 5.34245 5.33333C4.97445 5.33333 4.67578 5.63133 4.67578 6V14.6667H4.00911C2.90645 14.6667 2.00911 13.7693 2.00911 12.6667V6C2.00911 4.89733 2.90645 4 4.00911 4H13.3424C14.4451 4 15.3424 4.89733 15.3424 6V12.6667Z" fill="#698096"/>
</svg>
