<svg width="18" height="17" viewBox="0 0 18 17" fill="none" xmlns="http://www.w3.org/2000/svg">
<path d="M0.420898 5.66699C0.420898 9.41113 3.55859 13.0938 8.51562 16.2578C8.7002 16.3721 8.96387 16.4951 9.14844 16.4951C9.33301 16.4951 9.59668 16.3721 9.79004 16.2578C14.7383 13.0938 17.876 9.41113 17.876 5.66699C17.876 2.55566 15.7402 0.358398 12.8926 0.358398C11.2666 0.358398 9.94824 1.13184 9.14844 2.31836C8.36621 1.14062 7.03027 0.358398 5.4043 0.358398C2.55664 0.358398 0.420898 2.55566 0.420898 5.66699ZM1.83594 5.66699C1.83594 3.3291 3.34766 1.77344 5.38672 1.77344C7.03906 1.77344 7.98828 2.80176 8.55078 3.68066C8.78809 4.03223 8.9375 4.12891 9.14844 4.12891C9.35938 4.12891 9.49121 4.02344 9.74609 3.68066C10.3525 2.81934 11.2666 1.77344 12.9102 1.77344C14.9492 1.77344 16.4609 3.3291 16.4609 5.66699C16.4609 8.93652 13.0068 12.4609 9.33301 14.9043C9.24512 14.9658 9.18359 15.0098 9.14844 15.0098C9.11328 15.0098 9.05176 14.9658 8.97266 14.9043C5.29004 12.4609 1.83594 8.93652 1.83594 5.66699Z" fill="#698096"/>
</svg>
