<svg width="16" height="16" viewBox="0 0 16 16" fill="none" xmlns="http://www.w3.org/2000/svg">
<path d="M15.5644 2.25844C15.4788 1.72719 14.9528 1.24281 14.4281 1.20594C11.3097 1.00969 9.625 2.13187 8.70344 3.02437C8.51557 3.21521 8.41115 3.47283 8.41313 3.74062C8.43146 7.26729 8.42604 10.7939 8.39688 14.3203C8.395 14.7337 8.8275 14.9644 9.13875 14.7078C10.1406 13.8703 11.9034 13.0119 14.7738 12.6378C15.2853 12.5666 15.7425 12.1194 15.7953 11.6291C16.1309 8.50896 16.0533 5.35822 15.5644 2.25844V2.25844Z" fill="white" fill-opacity="0.85"/>
<path d="M1.22469 12.6375C4.095 13.0125 5.85781 13.8684 6.85969 14.7078C7.16938 14.9662 7.60313 14.7353 7.60156 14.3203C7.57219 10.7943 7.56677 7.26771 7.58531 3.74062C7.58658 3.60799 7.56159 3.47641 7.51176 3.35348C7.46193 3.23055 7.38826 3.1187 7.295 3.02437C6.375 2.13187 4.68906 1.00969 1.57188 1.20594C1.0475 1.24125 0.521563 1.72687 0.435625 2.25844C-0.0532701 5.35874 -0.130919 8.51 0.204688 11.6306C0.258438 12.1194 0.714688 12.5681 1.22469 12.6375V12.6375Z" fill="white" fill-opacity="0.85"/>
</svg>
