<svg width="16" height="17" viewBox="0 0 16 17" fill="none" xmlns="http://www.w3.org/2000/svg">
<path d="M8 10.4963C6.89544 10.4963 6 11.3923 6 12.4975V16.5H10V12.4975C10 11.3923 9.10456 10.4963 8 10.4963Z" fill="white"/>
<path d="M11.3333 12.4975V16.5H14C15.1046 16.5 16 15.604 16 14.4988V8.41431C16.0002 8.06775 15.8656 7.73473 15.6247 7.48573L9.95934 1.35723C8.95972 0.274991 7.27259 0.208544 6.19103 1.20879C6.13966 1.25632 6.09016 1.30582 6.04269 1.35723L0.387344 7.48373C0.139156 7.73376 -9.37027e-05 8.07191 4.73072e-08 8.42431V14.4988C4.73072e-08 15.604 0.895437 16.5 2 16.5H4.66666V12.4975C4.67912 10.6785 6.14684 9.19308 7.91894 9.1503C9.75031 9.10608 11.3194 10.6168 11.3333 12.4975Z" fill="white"/>
<path d="M8 10.4963C6.89544 10.4963 6 11.3923 6 12.4975V16.5H10V12.4975C10 11.3923 9.10456 10.4963 8 10.4963Z" fill="white"/>
</svg>
