<svg width="21" height="21" viewBox="0 0 21 21" fill="none" xmlns="http://www.w3.org/2000/svg">
<path d="M13.8473 2.06641H7.12234C5.8083 2.06795 4.54853 2.59069 3.61945 3.51994C2.69036 4.44918 2.16783 5.70903 2.1665 7.02307L2.1665 13.7481C2.16805 15.0621 2.69079 16.3219 3.62003 17.251C4.54928 18.1801 5.80913 18.7026 7.12317 18.7039H13.8482C15.1622 18.7024 16.422 18.1796 17.3511 17.2504C18.2802 16.3211 18.8027 15.0613 18.804 13.7472V7.02224C18.8025 5.7082 18.2797 4.44844 17.3505 3.51935C16.4212 2.59026 15.1614 2.06773 13.8473 2.06641V2.06641ZM17.1307 13.7472C17.1307 14.1784 17.0457 14.6054 16.8807 15.0037C16.7157 15.4021 16.4739 15.764 16.169 16.0689C15.8641 16.3738 15.5022 16.6156 15.1038 16.7806C14.7055 16.9456 14.2785 17.0306 13.8473 17.0306H7.12234C6.25169 17.0304 5.41677 16.6843 4.80121 16.0686C4.18564 15.4529 3.83984 14.6179 3.83984 13.7472V7.02224C3.84006 6.15159 4.18608 5.31668 4.8018 4.70111C5.41752 4.08555 6.25252 3.73974 7.12317 3.73974H13.8482C14.7188 3.73996 15.5537 4.08598 16.1693 4.7017C16.7849 5.31742 17.1307 6.15242 17.1307 7.02307V13.7481V13.7472Z" fill="#B7CCD9"/>
<path d="M10.4848 6.08228C9.3443 6.08404 8.25105 6.53793 7.44469 7.34445C6.63833 8.15096 6.18465 9.2443 6.18311 10.3848C6.18443 11.5255 6.63812 12.6192 7.44469 13.4259C8.25125 14.2327 9.34484 14.6866 10.4856 14.6881C11.6265 14.6868 12.7203 14.233 13.5271 13.4262C14.3338 12.6195 14.7876 11.5257 14.7889 10.3848C14.7872 9.24401 14.3331 8.15051 13.5262 7.3441C12.7193 6.5377 11.6255 6.08421 10.4848 6.08311V6.08228ZM10.4848 13.0148C9.78747 13.0148 9.11874 12.7378 8.62567 12.2447C8.13261 11.7516 7.85561 11.0829 7.85561 10.3856C7.85561 9.68831 8.13261 9.01957 8.62567 8.52651C9.11874 8.03344 9.78747 7.75644 10.4848 7.75644C11.1821 7.75644 11.8508 8.03344 12.3439 8.52651C12.8369 9.01957 13.1139 9.68831 13.1139 10.3856C13.1139 11.0829 12.8369 11.7516 12.3439 12.2447C11.8508 12.7378 11.1821 13.0148 10.4848 13.0148Z" fill="#B7CCD9"/>
<path d="M14.7965 7.14565C15.3658 7.14565 15.8273 6.68413 15.8273 6.11482C15.8273 5.5455 15.3658 5.08398 14.7965 5.08398C14.2271 5.08398 13.7656 5.5455 13.7656 6.11482C13.7656 6.68413 14.2271 7.14565 14.7965 7.14565Z" fill="#B7CCD9"/>
</svg>
