<svg width="45" height="45" viewBox="0 0 45 45" fill="none" xmlns="http://www.w3.org/2000/svg">
<path d="M44.0747 27.6493C42.7546 25.8893 41.4347 25.8893 38.208 27.576L31.9013 31.4626C31.0213 31.9759 29.0413 32.1226 27.208 32.1226C27.5746 31.4626 27.428 30.6559 26.768 29.7026C25.5946 28.0159 23.6147 26.9893 21.488 26.9893H18.628C17.088 26.9893 15.6213 26.5493 14.448 25.6693C11.8019 23.6847 7.66405 25.8442 5.64795 27.1322V25.596H0.514648V44.6626H5.64795V42.4626H15.1813C16.648 42.4626 18.188 42.3159 19.6546 42.2426L29.1879 40.7759C29.5546 40.7759 29.9212 40.7026 30.2146 40.6292C31.0946 40.4825 31.9013 40.0425 32.6346 39.3825L43.7079 30.5825C44.588 29.8493 44.7347 28.5293 44.0747 27.6493ZM4.18126 43.1959H1.98126V27.0626H4.18126V28.1626V42.4626V43.1959ZM42.828 29.6293L31.6813 38.2826L31.608 38.3559C31.0947 38.7959 30.5813 39.0892 29.9946 39.1626H29.9213C29.628 39.2359 29.408 39.2359 29.1146 39.2359L19.4347 40.7026C18.0413 40.9226 16.5747 40.9959 15.1813 40.9959H5.64795V28.8959C7.40795 27.6492 11.5146 25.3026 13.568 26.9159C14.9613 27.9426 16.7947 28.5292 18.628 28.5292H21.488C23.1747 28.5292 24.7146 29.2625 25.668 30.7292C25.9613 31.1692 26.0346 31.6092 25.9613 31.7559C25.7413 32.1226 24.8613 32.2692 23.908 32.3426C23.8091 32.3426 23.7106 32.3426 23.6146 32.3426C23.4256 32.3426 23.2473 32.3426 23.1013 32.3426H16.5013C14.228 32.3426 12.8346 33.4426 12.8346 35.2759C12.8346 35.7159 13.128 36.0092 13.568 36.0092C14.008 36.0092 14.3013 35.7159 14.3013 35.2759C14.3013 34.9092 14.3013 33.8092 16.5013 33.8092H23.028C23.18 33.8092 23.3684 33.8092 23.6146 33.8092C23.7248 33.8092 23.8453 33.8092 23.9813 33.8092C24.0546 33.8092 24.2013 33.8092 24.348 33.8092C27.7947 33.8825 31.0213 33.8092 32.708 32.9292L39.0147 29.0425C42.0947 27.5025 42.388 27.8692 42.9747 28.7492C43.1213 28.9693 43.1213 29.4093 42.828 29.6293Z" fill="#698096"/>
<path d="M6.23465 23.8359C6.38134 23.9826 6.60134 24.1292 6.82134 24.1292H38.208C38.5013 24.1292 38.7213 23.9825 38.7947 23.7625L41.4347 20.0958C41.5814 19.8758 41.6547 19.5825 41.508 19.3625C41.3613 19.1425 41.1413 18.9958 40.848 18.9958H39.3645C38.9907 10.2659 31.9779 3.25318 23.248 2.87936V2.12921H24.7147C25.1547 2.12921 25.448 1.8359 25.448 1.3959C25.448 0.955902 25.1547 0.662598 24.7147 0.662598H20.3147C19.8747 0.662598 19.5813 0.955902 19.5813 1.3959C19.5813 1.8359 19.8747 2.12921 20.3147 2.12921H21.7813V2.87936C13.0515 3.25318 6.03871 10.2659 5.66488 18.9958H4.18126C3.88795 18.9958 3.59456 19.2158 3.52126 19.4358C3.44795 19.6558 3.44795 19.9491 3.59456 20.1691L6.23465 23.8359ZM22.5147 4.32929C30.8013 4.32929 37.548 10.856 37.9147 18.996H7.11465C7.55465 10.8559 14.3013 4.32929 22.5147 4.32929ZM6.38126 20.4626H38.648H39.3813L37.8413 22.6626H7.18795L5.64795 20.4626H6.38126Z" fill="#698096"/>
<path d="M22.5146 5.7959C17.6013 5.7959 12.9813 8.4359 10.4146 12.7626C10.268 13.1293 10.3413 13.5693 10.708 13.7893C10.8546 13.8626 10.928 13.8626 11.0746 13.8626C11.368 13.8626 11.588 13.7159 11.7346 13.4959C13.9346 9.6826 18.1146 7.2626 22.5146 7.2626C22.9546 7.2626 23.248 6.96929 23.248 6.52929C23.248 6.08929 22.9546 5.7959 22.5146 5.7959Z" fill="#698096"/>
</svg>
