<svg width="16" height="16" viewBox="0 0 16 16" fill="none" xmlns="http://www.w3.org/2000/svg">
<path d="M12.4219 10.6425C8.11719 10.6425 5.44531 8.04871 5.44531 3.88464C5.44531 2.69714 5.64062 1.65027 5.92969 1.08777C6.04688 0.861206 6.07031 0.751831 6.07031 0.595581C6.07031 0.337769 5.82812 0.0330811 5.5 0.0330811C5.4375 0.0330811 5.28906 0.0565186 5.07031 0.142456C2.17969 1.31433 0.148438 4.36121 0.148438 7.64246C0.148438 12.3846 3.59375 15.8378 8.33594 15.8378C11.7344 15.8378 14.4922 14.0565 15.7578 11.1346C15.8516 10.9315 15.8672 10.7596 15.8672 10.6737C15.8672 10.3534 15.5938 10.1346 15.3516 10.1346C15.2266 10.1346 15.1328 10.1425 14.9453 10.2128C14.3125 10.4706 13.3594 10.6425 12.4219 10.6425ZM1.375 7.58777C1.375 5.15808 2.64062 2.84558 4.66406 1.57214C4.41406 2.29871 4.28125 3.10339 4.28125 3.99402C4.28125 8.87683 7.25781 11.7831 12.2422 11.7831C13.0469 11.7831 13.7266 11.6893 14.375 11.4628C13.1875 13.4237 10.8984 14.619 8.38281 14.619C4.32812 14.619 1.375 11.6659 1.375 7.58777Z" fill="#00264D"/>
</svg>
