<svg width="16" height="17" viewBox="0 0 16 17" fill="none" xmlns="http://www.w3.org/2000/svg">
<g clip-path="url(#clip0_1_12)">
<path d="M11.3125 12.9044V14.1544C11.3125 15.533 10.191 16.6544 8.8125 16.6544H2.53125C1.15271 16.6544 0.03125 15.533 0.03125 14.1544V3.15442C0.03125 1.77588 1.15271 0.654419 2.53125 0.654419H8.8125C10.191 0.654419 11.3125 1.77588 11.3125 3.15442V4.40442C11.3125 4.74963 11.0327 5.02942 10.6875 5.02942C10.3423 5.02942 10.0625 4.74963 10.0625 4.40442V3.15442C10.0625 2.46521 9.50171 1.90442 8.8125 1.90442H2.53125C1.84204 1.90442 1.28125 2.46521 1.28125 3.15442V14.1544C1.28125 14.8436 1.84204 15.4044 2.53125 15.4044H8.8125C9.50171 15.4044 10.0625 14.8436 10.0625 14.1544V12.9044C10.0625 12.5592 10.3423 12.2794 10.6875 12.2794C11.0327 12.2794 11.3125 12.5592 11.3125 12.9044ZM15.5736 7.58081L14.1741 6.18127C13.9299 5.93713 13.5342 5.93713 13.2902 6.18127C13.046 6.42529 13.046 6.82104 13.2902 7.06506L14.2856 8.06067H6.78125C6.43604 8.06067 6.15625 8.34045 6.15625 8.68567C6.15625 9.03088 6.43604 9.31067 6.78125 9.31067H14.2856L13.2902 10.3063C13.046 10.5503 13.046 10.946 13.2902 11.1901C13.4122 11.3121 13.5721 11.3732 13.7321 11.3732C13.8921 11.3732 14.052 11.3121 14.1741 11.1901L15.5736 9.79053C16.1829 9.18127 16.1829 8.19006 15.5736 7.58081V7.58081Z" fill="#00264D"/>
</g>
<defs>
<clipPath id="clip0_1_12">
<rect width="16" height="16" fill="white" transform="translate(0 0.654419)"/>
</clipPath>
</defs>
</svg>
