<svg width="16" height="15" viewBox="0 0 16 15" fill="none" xmlns="http://www.w3.org/2000/svg">
<g clip-path="url(#clip0_213_2528)">
<path d="M12.9883 4.38938V0.639375C12.9883 0.473615 13.0541 0.314644 13.1713 0.197434C13.2885 0.0802235 13.4475 0.0143755 13.6133 0.0143755C13.779 0.0143755 13.938 0.0802235 14.0552 0.197434C14.1724 0.314644 14.2383 0.473615 14.2383 0.639375V4.38938C14.2383 4.55514 14.1724 4.71411 14.0552 4.83132C13.938 4.94853 13.779 5.01438 13.6133 5.01438C13.4475 5.01438 13.2885 4.94853 13.1713 4.83132C13.0541 4.71411 12.9883 4.55514 12.9883 4.38938ZM11.1133 5.01438C11.279 5.01438 11.438 4.94853 11.5552 4.83132C11.6724 4.71411 11.7383 4.55514 11.7383 4.38938V0.639375C11.7383 0.473615 11.6724 0.314644 11.5552 0.197434C11.438 0.0802235 11.279 0.0143755 11.1133 0.0143755C10.9475 0.0143755 10.7885 0.0802235 10.6713 0.197434C10.5541 0.314644 10.4883 0.473615 10.4883 0.639375V4.38938C10.4883 4.55514 10.5541 4.71411 10.6713 4.83132C10.7885 4.94853 10.9475 5.01438 11.1133 5.01438ZM14.9226 13.2119L14.3526 13.8681C9.2339 18.7681 -3.22235 6.31563 1.60265 1.18063L2.3214 0.555625C2.68504 0.203291 3.17285 0.00841267 3.67916 0.013209C4.18547 0.0180054 4.6695 0.22209 5.0264 0.58125C5.04577 0.6 6.20265 2.10438 6.20265 2.10438C6.54627 2.4652 6.73768 2.94454 6.7371 3.44281C6.73652 3.94109 6.54399 4.41998 6.19952 4.78L5.47452 5.6875C5.87505 6.66095 6.46399 7.54565 7.2075 8.29078C7.95101 9.0359 8.83444 9.62675 9.80702 10.0294L10.722 9.30125C11.0819 8.95643 11.5608 8.76357 12.0593 8.76275C12.5577 8.76194 13.0373 8.95323 13.3983 9.29688C13.3983 9.29688 14.9026 10.455 14.922 10.4744C15.2847 10.8375 15.4884 11.3298 15.4885 11.843C15.4887 12.3562 15.2851 12.8485 14.9226 13.2119ZM14.0626 11.385C14.0626 11.385 12.5626 10.2338 12.547 10.215C12.4167 10.0904 12.2433 10.0209 12.063 10.0209C11.8826 10.0209 11.7093 10.0904 11.5789 10.215C11.5626 10.2319 10.3014 11.2369 10.3014 11.2369C10.2164 11.3044 10.1153 11.3486 10.008 11.3651C9.90068 11.3817 9.79093 11.37 9.68952 11.3312C8.42914 10.8624 7.28437 10.128 6.3329 9.17768C5.38143 8.2274 4.64553 7.08354 4.17515 5.82375C4.13408 5.72127 4.12088 5.60974 4.13691 5.50051C4.15294 5.39127 4.19762 5.28824 4.2664 5.20188C4.2664 5.20188 5.27077 3.94125 5.28827 3.92438C5.41613 3.79559 5.48788 3.62148 5.48788 3.44C5.48788 3.25853 5.41613 3.08441 5.28827 2.95563C5.26827 2.9375 4.11765 1.44125 4.11765 1.44125C3.98704 1.32399 3.81652 1.26112 3.64105 1.26553C3.46558 1.26995 3.29844 1.34131 3.1739 1.465L2.45452 2.09313C-1.07048 6.33 9.7239 16.5263 13.4376 13.0163L14.0076 12.36C14.1417 12.2365 14.2225 12.0657 14.2328 11.8836C14.243 11.7016 14.182 11.5228 14.0626 11.385Z" fill="#B7CCD9"/>
</g>
<defs>
<clipPath id="clip0_213_2528">
<rect width="15" height="15" fill="white" transform="translate(0.5)"/>
</clipPath>
</defs>
</svg>
