<svg width="17" height="16" viewBox="0 0 17 16" fill="none" xmlns="http://www.w3.org/2000/svg">
<g clip-path="url(#clip0_464_9390)">
<path d="M7.87589 16C7.59147 15.9999 7.31116 15.9321 7.05814 15.8022C6.80512 15.6723 6.58665 15.484 6.4208 15.2529C6.25495 15.0219 6.14648 14.7547 6.10435 14.4734C6.06223 14.1921 6.08767 13.9048 6.17856 13.6353L7.47189 9.99999H4.85523L4.13523 11.0973C3.95348 11.375 3.70534 11.603 3.41328 11.7606C3.12121 11.9182 2.79444 12.0005 2.46256 12C2.18842 11.9999 1.91834 11.9338 1.67525 11.807C1.43215 11.6803 1.22322 11.4968 1.06618 11.2721C0.909135 11.0474 0.808625 10.7882 0.773177 10.5163C0.73773 10.2445 0.768392 9.96812 0.862559 9.71066L1.48323 7.99999L0.855893 6.29333C0.7615 6.03631 0.730453 5.76034 0.765385 5.48878C0.800316 5.21722 0.900196 4.95808 1.05656 4.73333C1.24232 4.49598 1.4826 4.30694 1.75699 4.18225C2.03139 4.05756 2.33181 4.00089 2.63277 4.01705C2.93374 4.03321 3.22637 4.12172 3.48583 4.27508C3.7453 4.42844 3.96395 4.64212 4.12323 4.89799L4.85323 5.99999H7.47189L6.18123 2.37533C6.08883 2.10448 6.06235 1.81551 6.10397 1.53238C6.1456 1.24925 6.25413 0.980122 6.42056 0.747326C6.61882 0.495526 6.8769 0.297301 7.17131 0.170685C7.46572 0.0440701 7.78712 -0.00691506 8.10627 0.022369C8.42541 0.0516531 8.73216 0.160277 8.99862 0.338356C9.26507 0.516436 9.48277 0.758317 9.63189 1.04199L12.4699 5.99999H14.6786C15.1607 5.99393 15.6297 6.15753 16.0034 6.46219C16.3772 6.76685 16.632 7.19318 16.7232 7.66666C16.7717 7.95355 16.757 8.24757 16.6802 8.5282C16.6033 8.80884 16.4662 9.06932 16.2783 9.29149C16.0904 9.51365 15.8563 9.69215 15.5923 9.81452C15.3284 9.93688 15.0409 10.0002 14.7499 9.99999H12.4699L9.62523 14.9693C9.45278 15.2821 9.19943 15.5429 8.89167 15.7242C8.58392 15.9055 8.23309 16.0008 7.87589 16ZM4.49523 8.66666H8.41656C8.52298 8.66758 8.62766 8.69381 8.72194 8.74319C8.81623 8.79257 8.8974 8.86368 8.95876 8.95064C9.02012 9.0376 9.05991 9.13791 9.07483 9.24329C9.08974 9.34867 9.07937 9.45608 9.04456 9.55666L7.43789 14.072C7.41643 14.1397 7.41128 14.2116 7.42286 14.2817C7.43445 14.3517 7.46244 14.4181 7.50456 14.4753C7.5718 14.5419 7.65385 14.5917 7.74401 14.6206C7.83416 14.6494 7.92986 14.6565 8.02329 14.6413C8.11671 14.6261 8.20522 14.589 8.28156 14.533C8.35791 14.4771 8.41993 14.4038 8.46256 14.3193L11.5046 8.99999C11.5632 8.89845 11.6475 8.81417 11.7491 8.75565C11.8507 8.69712 11.966 8.66643 12.0832 8.66666H14.7499C14.8473 8.6667 14.9436 8.64538 15.0319 8.60419C15.1203 8.56301 15.1985 8.50296 15.2611 8.42828C15.3237 8.3536 15.3692 8.2661 15.3943 8.17195C15.4194 8.07779 15.4236 7.97927 15.4066 7.88333C15.3671 7.72186 15.2731 7.57896 15.1404 7.47876C15.0078 7.37855 14.8447 7.32719 14.6786 7.33333H12.0832C11.966 7.33356 11.8507 7.30286 11.7491 7.24434C11.6475 7.18582 11.5632 7.10153 11.5046 6.99999L8.46789 1.69266C8.4274 1.60537 8.36637 1.52919 8.29003 1.47062C8.21369 1.41205 8.1243 1.37284 8.0295 1.35633C7.93471 1.33982 7.83733 1.34651 7.74568 1.37582C7.65403 1.40514 7.57084 1.4562 7.50323 1.52466C7.46058 1.5837 7.4327 1.6521 7.42191 1.72412C7.41113 1.79615 7.41775 1.86972 7.44123 1.93866L9.04123 6.44333C9.07595 6.54364 9.08637 6.65076 9.07162 6.75588C9.05688 6.861 9.01739 6.96113 8.95641 7.04801C8.89542 7.1349 8.81469 7.20607 8.72084 7.25567C8.62699 7.30527 8.5227 7.33189 8.41656 7.33333H4.49523C4.38509 7.33334 4.27667 7.30607 4.17964 7.25396C4.08262 7.20184 4.00002 7.12649 3.93923 7.03466L3.01056 5.63466C2.85856 5.35399 2.32123 5.20999 2.15056 5.49466C2.1157 5.54329 2.09349 5.59983 2.08592 5.65918C2.07836 5.71854 2.08568 5.77884 2.10723 5.83466L2.82189 7.77199C2.87647 7.92047 2.87647 8.08352 2.82189 8.23199L2.11123 10.172C2.09141 10.2278 2.08526 10.2876 2.09329 10.3462C2.10132 10.4049 2.12329 10.4608 2.15737 10.5093C2.19145 10.5577 2.23664 10.5973 2.28916 10.6247C2.34168 10.6521 2.4 10.6665 2.45923 10.6667C2.56994 10.6667 2.67893 10.6392 2.77635 10.5866C2.87377 10.534 2.95655 10.4579 3.01723 10.3653L3.93456 8.96533C3.99579 8.87283 4.07913 8.79707 4.17703 8.74492C4.27493 8.69277 4.3843 8.66587 4.49523 8.66666Z" fill="#698096"/>
</g>
<defs>
<clipPath id="clip0_464_9390">
<rect width="16" height="16" fill="white" transform="translate(0.75)"/>
</clipPath>
</defs>
</svg>
