<svg width="15" height="15" viewBox="0 0 15 15" fill="none" xmlns="http://www.w3.org/2000/svg">
<path d="M7.19629 14.0371C11.0107 14.0371 14.1689 10.8721 14.1689 7.06445C14.1689 3.25 11.0039 0.0917969 7.18945 0.0917969C3.38184 0.0917969 0.223633 3.25 0.223633 7.06445C0.223633 10.8721 3.38867 14.0371 7.19629 14.0371ZM5.10449 6.42188C4.66016 6.42188 4.27734 6.01855 4.27734 5.45801C4.27734 4.88379 4.66016 4.48047 5.10449 4.48047C5.55566 4.48047 5.95215 4.88379 5.95215 5.45801C5.95215 6.01855 5.55566 6.42188 5.10449 6.42188ZM9.28125 6.42188C8.83691 6.42188 8.4541 6.01855 8.4541 5.45801C8.4541 4.88379 8.83691 4.48047 9.28125 4.48047C9.73242 4.48047 10.1289 4.88379 10.1289 5.45801C10.1289 6.01855 9.73242 6.42188 9.28125 6.42188ZM7.19629 10.585C5.71973 10.585 4.72852 9.60059 4.72852 9.13574C4.72852 8.96484 4.89941 8.88965 5.04297 8.95801C5.5625 9.23145 6.16406 9.55957 7.19629 9.55957C8.22168 9.55957 8.83008 9.23828 9.34277 8.95801C9.49316 8.88965 9.65723 8.96484 9.65723 9.13574C9.65723 9.60059 8.66602 10.585 7.19629 10.585Z" fill="#FF5B00"/>
</svg>
