<svg width="16" height="15" viewBox="0 0 16 15" fill="none" xmlns="http://www.w3.org/2000/svg">
<path d="M3.83105 14.6338C4.11816 14.8457 4.4668 14.7773 4.87695 14.4766L8.28125 11.9746L11.6855 14.4766C12.0957 14.7773 12.4443 14.8457 12.7314 14.6338C13.0049 14.4219 13.0664 14.0801 12.9023 13.5947L11.5557 9.5957L14.9873 7.12793C15.4043 6.84082 15.5752 6.51953 15.459 6.19141C15.3496 5.86328 15.0352 5.69922 14.5225 5.70605L10.3115 5.7334L9.0332 1.71387C8.87598 1.22168 8.62988 0.96875 8.28125 0.96875C7.93262 0.96875 7.69336 1.22168 7.5293 1.71387L6.25098 5.7334L2.04004 5.70605C1.52734 5.69922 1.21289 5.86328 1.10352 6.19141C0.994141 6.51953 1.16504 6.84082 1.5752 7.12793L5.00684 9.5957L3.66699 13.5947C3.50293 14.0801 3.55762 14.4219 3.83105 14.6338Z" fill="#F6A500"/>
</svg>
