<svg width="17" height="16" viewBox="0 0 17 16" fill="none" xmlns="http://www.w3.org/2000/svg">
<g clip-path="url(#clip0_1_8)">
<path d="M12.6758 0H10.0091V0.666667C10.0091 1.02029 9.86864 1.35943 9.61859 1.60948C9.36854 1.85952 9.0294 2 8.67578 2C8.32216 2 7.98302 1.85952 7.73297 1.60948C7.48292 1.35943 7.34245 1.02029 7.34245 0.666667V0H4.67578C4.14535 0 3.63664 0.210714 3.26157 0.585786C2.8865 0.960859 2.67578 1.46957 2.67578 2V16H7.34245V15.3333C7.34245 14.9797 7.48292 14.6406 7.73297 14.3905C7.98302 14.1405 8.32216 14 8.67578 14C9.0294 14 9.36854 14.1405 9.61859 14.3905C9.86864 14.6406 10.0091 14.9797 10.0091 15.3333V16H14.6758V2C14.6758 1.46957 14.4651 0.960859 14.09 0.585786C13.7149 0.210714 13.2062 0 12.6758 0V0ZM11.2584 14.6667C11.1111 14.0937 10.7774 13.5859 10.3098 13.2233C9.84229 12.8608 9.26744 12.664 8.67578 12.664C8.08413 12.664 7.50927 12.8608 7.04171 13.2233C6.57416 13.5859 6.24044 14.0937 6.09311 14.6667H4.00911V11.3333H6.00911V10H4.00911V2C4.00911 1.82319 4.07935 1.65362 4.20438 1.5286C4.3294 1.40357 4.49897 1.33333 4.67578 1.33333H6.09311C6.24044 1.90635 6.57416 2.4141 7.04171 2.77665C7.50927 3.1392 8.08413 3.33596 8.67578 3.33596C9.26744 3.33596 9.84229 3.1392 10.3098 2.77665C10.7774 2.4141 11.1111 1.90635 11.2584 1.33333H12.6758C12.8526 1.33333 13.0222 1.40357 13.1472 1.5286C13.2722 1.65362 13.3424 1.82319 13.3424 2V10H11.3424V11.3333H13.3424V14.6667H11.2584Z" fill="#698096"/>
<line x1="1.76447" y1="13.7154" x2="15.2903" y2="1.9538" stroke="#698096" stroke-width="1.5" stroke-linecap="round"/>
<path d="M10.0091 10H7.34245V11.3333H10.0091V10Z" fill="#698096"/>
</g>
<defs>
<clipPath id="clip0_1_8">
<rect width="16" height="16" fill="white" transform="translate(0.675781)"/>
</clipPath>
</defs>
</svg>
