<svg width="21" height="17" viewBox="0 0 21 17" fill="none" xmlns="http://www.w3.org/2000/svg">
<g clip-path="url(#clip0_223_2807)">
<path d="M20.1997 2.29965C19.6542 3.09827 18.977 3.79845 18.197 4.37032L18.173 4.38698C18.181 4.50343 18.185 4.67832 18.185 4.91165C18.1837 6.03825 18.0163 7.15851 17.6884 8.23632L17.7097 8.15498C17.3789 9.27209 16.8832 10.3336 16.239 11.3043L16.2657 11.261C15.6299 12.2375 14.8589 13.1189 13.9757 13.879L13.9597 13.8923C13.0246 14.6766 11.9567 15.2872 10.8064 15.695L10.7344 15.717C9.5577 16.149 8.19903 16.3983 6.78236 16.3983H6.69303H6.6977H6.61303C4.3397 16.3983 2.2237 15.7217 0.457031 14.5583L0.499031 14.5843C0.778365 14.6163 1.1017 14.6343 1.4297 14.6343H1.47636H1.4737L1.5577 14.635C3.42903 14.635 5.14836 13.985 6.50236 12.8977L6.48703 12.9097C5.64966 12.894 4.83773 12.6191 4.16313 12.1228C3.48853 11.6264 2.98445 10.9331 2.72036 10.1383L2.71236 10.1097C2.94036 10.1477 3.20436 10.1703 3.47303 10.1723H3.47503C3.84357 10.1727 4.21054 10.1243 4.56636 10.0283L4.53703 10.035C3.62824 9.85556 2.81029 9.36526 2.2237 8.64832L2.21836 8.64098C1.6229 7.93834 1.297 7.04667 1.29903 6.12565L1.2997 6.06965V6.07232V6.02232C1.85535 6.33756 2.4792 6.51325 3.1177 6.53432H3.12503C2.58354 6.17241 2.13699 5.68562 1.82303 5.11498L1.81236 5.09432C1.49054 4.50352 1.32292 3.84108 1.32503 3.16832C1.32503 2.41765 1.52903 1.71498 1.88503 1.11232L1.87503 1.13098C2.86668 2.35113 4.09747 3.3555 5.4917 4.08232L5.55503 4.11232C6.90303 4.82365 8.4897 5.27432 10.173 5.35498L10.1984 5.35565C10.1327 5.05293 10.0994 4.74408 10.099 4.43432V4.43365C10.1 3.62426 10.3439 2.8338 10.7993 2.16466C11.2546 1.49551 11.9004 0.978516 12.653 0.680631C13.4056 0.382746 14.2303 0.3177 15.0202 0.493919C15.8102 0.670138 16.5291 1.0795 17.0837 1.66898L17.0857 1.67098C18.0028 1.49532 18.8815 1.15856 19.681 0.676318L19.6457 0.696318C19.3542 1.62657 18.7284 2.41582 17.889 2.91165L17.8704 2.92165C18.6919 2.83051 19.4945 2.61306 20.2497 2.27698L20.1984 2.29765L20.1997 2.29965Z" fill="#B7CCD9"/>
</g>
<defs>
<clipPath id="clip0_223_2807">
<rect width="20" height="16" fill="white" transform="translate(0.5 0.399658)"/>
</clipPath>
</defs>
</svg>
