<svg width="20" height="21" viewBox="0 0 20 21" fill="none" xmlns="http://www.w3.org/2000/svg">
<g clip-path="url(#clip0_213_1434)">
<path d="M4.22499 18.0902C4.22499 18.0788 4.21974 18.1016 4.22499 18.0902V18.0902Z" fill="#00264D"/>
<path d="M18.6098 18.8042C18.3912 18.9799 18.1352 19.1032 17.8615 19.1644C17.5879 19.2257 17.3038 19.2234 17.0312 19.1576C16.7585 19.0918 16.5046 18.9644 16.289 18.7851C16.0733 18.6058 15.9017 18.3794 15.7873 18.1234C15.7283 17.9619 15.6211 17.8225 15.4803 17.7239C15.3394 17.6254 15.1717 17.5725 14.9998 17.5725C14.8279 17.5725 14.6601 17.6254 14.5192 17.7239C14.3784 17.8225 14.2712 17.9619 14.2123 18.1234C14.0577 18.4465 13.8149 18.7193 13.5118 18.9103C13.2088 19.1012 12.8579 19.2026 12.4998 19.2026C12.1416 19.2026 11.7907 19.1012 11.4877 18.9103C11.1846 18.7193 10.9418 18.4465 10.7873 18.1234C10.7283 17.9619 10.6211 17.8225 10.4803 17.7239C10.3394 17.6254 10.1717 17.5725 9.99976 17.5725C9.82785 17.5725 9.6601 17.6254 9.51924 17.7239C9.37837 17.8225 9.27121 17.9619 9.21226 18.1234C9.05699 18.4498 8.81161 18.725 8.50507 18.9165C8.19853 19.108 7.84361 19.2079 7.48218 19.2043C7.12075 19.2007 6.76788 19.0938 6.46521 18.8962C6.16253 18.6987 5.92267 18.4186 5.77392 18.0892C5.70875 17.9379 5.60065 17.8089 5.46299 17.7183C5.32533 17.6277 5.16414 17.5794 4.99934 17.5794C4.83454 17.5794 4.67335 17.6277 4.53569 17.7183C4.39803 17.8089 4.28993 17.9379 4.22476 18.0892C4.11308 18.3488 3.94308 18.5792 3.72795 18.7624C3.51283 18.9457 3.25837 19.0769 2.98433 19.1459C2.71028 19.2149 2.42403 19.2198 2.14777 19.1603C1.87152 19.1007 1.61271 18.9783 1.39142 18.8026C1.30989 18.7293 1.21474 18.6729 1.1114 18.6365C1.00806 18.6 0.898557 18.5843 0.789139 18.5902C0.67972 18.5961 0.572532 18.6234 0.473693 18.6707C0.374854 18.7181 0.286301 18.7844 0.213089 18.8659C0.139877 18.9474 0.0834399 19.0426 0.0470007 19.1459C0.0105615 19.2493 -0.00516664 19.3588 0.00071441 19.4682C0.00659546 19.5776 0.0339705 19.6848 0.0812764 19.7836C0.128582 19.8825 0.194893 19.971 0.276422 20.0442C0.941285 20.614 1.79609 20.9128 2.6711 20.8815C3.54612 20.8501 4.37735 20.4909 4.99976 19.8751C5.67243 20.5197 6.56809 20.8795 7.49976 20.8795C8.43142 20.8795 9.32708 20.5197 9.99976 19.8751C10.6724 20.5197 11.5681 20.8795 12.4998 20.8795C13.4314 20.8795 14.3271 20.5197 14.9998 19.8751C15.6224 20.4907 16.4538 20.8496 17.3289 20.8805C18.204 20.9114 19.0586 20.612 19.7231 20.0417C19.8748 19.891 19.9627 19.6877 19.9686 19.4739C19.9746 19.2602 19.8982 19.0523 19.7551 18.8933C19.6121 18.7343 19.4135 18.6364 19.2003 18.6198C18.9871 18.6033 18.7756 18.6693 18.6098 18.8042Z" fill="#00264D"/>
<path d="M1.66668 15.0626V10.2034C1.66672 9.9824 1.75455 9.77048 1.91084 9.61423L8.23168 3.29506C8.70143 2.82751 9.33723 2.56502 10 2.56502C10.6628 2.56502 11.2986 2.82751 11.7683 3.29506L18.0892 9.61673C18.2434 9.772 18.331 9.98126 18.3333 10.2001V15.0626C18.3333 15.2836 18.4211 15.4955 18.5774 15.6518C18.7337 15.8081 18.9457 15.8959 19.1667 15.8959C19.3877 15.8959 19.5997 15.8081 19.7559 15.6518C19.9122 15.4955 20 15.2836 20 15.0626V10.2034C20.0009 9.87497 19.9367 9.54962 19.8109 9.24622C19.6852 8.94281 19.5005 8.66739 19.2675 8.4359L12.9467 2.11423C12.1644 1.33422 11.1047 0.89621 10 0.89621C8.89529 0.89621 7.83564 1.33422 7.05334 2.11423L0.73251 8.4359C0.499531 8.66739 0.314818 8.94281 0.189079 9.24622C0.0633394 9.54962 -0.000925334 9.87497 1.00662e-05 10.2034V15.0626C1.00662e-05 15.2836 0.0878074 15.4955 0.244088 15.6518C0.400368 15.8081 0.61233 15.8959 0.833343 15.8959C1.05436 15.8959 1.26632 15.8081 1.4226 15.6518C1.57888 15.4955 1.66668 15.2836 1.66668 15.0626Z" fill="#00264D"/>
<path d="M9.99973 11.755C9.08645 11.7554 8.19859 12.0558 7.47271 12.61C6.74683 13.1642 6.22315 13.9416 5.98223 14.8225C5.94655 14.9471 5.94013 15.0783 5.96347 15.2058C5.9868 15.3333 6.03927 15.4537 6.11679 15.5576C6.1943 15.6615 6.29475 15.746 6.41032 15.8047C6.52589 15.8634 6.65345 15.8946 6.78306 15.8959C6.97223 15.8908 7.15446 15.8235 7.30161 15.7045C7.44875 15.5856 7.55264 15.4214 7.59723 15.2375C7.74725 14.7162 8.06275 14.2579 8.49614 13.9316C8.92952 13.6053 9.45727 13.4289 9.99973 13.4289C10.5422 13.4289 11.0699 13.6053 11.5033 13.9316C11.9367 14.2579 12.2522 14.7162 12.4022 15.2375C12.4468 15.4214 12.5507 15.5856 12.6979 15.7045C12.845 15.8235 13.0272 15.8908 13.2164 15.8959C13.346 15.8946 13.4736 15.8634 13.5891 15.8047C13.7047 15.746 13.8052 15.6615 13.8827 15.5576C13.9602 15.4537 14.0127 15.3333 14.036 15.2058C14.0593 15.0783 14.0529 14.9471 14.0172 14.8225C13.7763 13.9416 13.2526 13.1642 12.5268 12.61C11.8009 12.0558 10.913 11.7554 9.99973 11.755Z" fill="#00264D"/>
</g>
<defs>
<clipPath id="clip0_213_1434">
<rect width="20" height="20" fill="white" transform="translate(0 0.895874)"/>
</clipPath>
</defs>
</svg>
