<svg width="17" height="16" viewBox="0 0 17 16" fill="none" xmlns="http://www.w3.org/2000/svg">
<path d="M12.5089 5.96814L12.073 5.53224C11.5467 5.00593 10.8469 4.71605 10.1026 4.71605C10.0977 4.71605 5.23672 4.71811 5.23341 4.71811L3.88047 5.96811H0.5V13.4681H5.13116L7.11431 15.4513C7.47984 15.8168 7.96 15.9996 8.44016 15.9996C8.92031 15.9996 9.40044 15.8168 9.76597 15.4513L11.7491 13.4681H16.5V5.96811H12.5089V5.96814ZM11.5337 11.9158L8.88209 14.5674C8.63841 14.8111 8.24188 14.8111 7.99819 14.5674L5.64891 12.2181H1.75V7.21814H4.36953L5.72247 5.96814H7.69628L3.99644 9.66796L4.43837 10.1099C5.65838 11.3299 7.63638 11.3313 8.85778 10.1099L9.73478 9.23289L11.5337 11.0319C11.778 11.2761 11.7781 11.6715 11.5337 11.9158ZM15.25 12.2181H12.8138C13.105 11.5449 12.9858 10.7162 12.4176 10.148L9.73475 7.46514L7.97388 9.22602C7.38638 9.81352 6.52222 9.91983 5.83925 9.59286L9.016 6.41611C9.30622 6.12589 9.69209 5.96605 10.1025 5.96605C10.513 5.96605 10.8988 6.12589 11.1891 6.41611L11.9911 7.21811H15.25V12.2181Z" fill="#00264D"/>
<path d="M7.875 0.000488281H9.125V2.50049H7.875V0.000488281Z" fill="#00264D"/>
<path d="M2.31235 2.69723L3.1961 1.81348L4.96357 3.58095L4.07982 4.4647L2.31235 2.69723Z" fill="#00264D"/>
<path d="M12.0339 3.58207L13.8014 1.81459L14.6852 2.69834L12.9177 4.46582L12.0339 3.58207Z" fill="#00264D"/>
</svg>
