<svg width="17" height="17" viewBox="0 0 17 17" fill="none" xmlns="http://www.w3.org/2000/svg">
<g clip-path="url(#clip0_1_5)">
<path d="M11.3613 5.3125C10.8008 2.70937 9.60553 1.0625 8.5 1.0625C7.39447 1.0625 6.19916 2.70937 5.63869 5.3125H11.3613Z" fill="#698096"/>
<path d="M5.3125 8.5C5.31237 9.2107 5.35976 9.92062 5.45434 10.625H11.5457C11.6402 9.92062 11.6876 9.2107 11.6875 8.5C11.6876 7.7893 11.6402 7.07938 11.5457 6.375H5.45434C5.35976 7.07938 5.31237 7.7893 5.3125 8.5Z" fill="#698096"/>
<path d="M5.63869 11.6875C6.19916 14.2906 7.39447 15.9375 8.5 15.9375C9.60553 15.9375 10.8008 14.2906 11.3613 11.6875H5.63869Z" fill="#698096"/>
<path d="M12.4493 5.3125H15.7962C15.2933 4.16806 14.5292 3.1574 13.5652 2.36159C12.6012 1.56577 11.4641 1.00694 10.2452 0.729938C11.2529 1.61659 12.0434 3.25603 12.4493 5.3125Z" fill="#698096"/>
<path d="M16.1782 6.375H12.6188C12.7064 7.07994 12.7502 7.78963 12.75 8.5C12.7501 9.21038 12.7061 9.92007 12.6183 10.625H16.1776C16.565 9.23482 16.5656 7.76518 16.1782 6.375Z" fill="#698096"/>
<path d="M10.2452 16.2701C11.4643 15.9932 12.6016 15.4345 13.5658 14.6386C14.53 13.8428 15.2943 12.8321 15.7973 11.6875H12.4504C12.0434 13.744 11.2529 15.3834 10.2452 16.2701Z" fill="#698096"/>
<path d="M4.55069 11.6875H1.20381C1.7068 12.8321 2.47104 13.8428 3.43524 14.6386C4.39944 15.4345 5.53674 15.9932 6.75591 16.2701C5.74706 15.3834 4.95656 13.744 4.55069 11.6875Z" fill="#698096"/>
<path d="M6.75484 0.729938C5.53568 1.00679 4.39838 1.56555 3.43418 2.36137C2.46998 3.1572 1.70573 4.16794 1.20275 5.3125H4.54963C4.95656 3.25603 5.74706 1.61659 6.75484 0.729938Z" fill="#698096"/>
<path d="M4.25 8.5C4.24993 7.78962 4.29393 7.07993 4.38175 6.375H0.822375C0.434951 7.76518 0.434951 9.23482 0.822375 10.625H4.38175C4.29393 9.92007 4.24993 9.21038 4.25 8.5Z" fill="#698096"/>
</g>
<defs>
<clipPath id="clip0_1_5">
<rect width="17" height="17" fill="white"/>
</clipPath>
</defs>
</svg>
