<svg width="25" height="24" viewBox="0 0 25 24" fill="none" xmlns="http://www.w3.org/2000/svg">
<g clip-path="url(#clip0_1418_19585)">
<path d="M21.5498 22H2.5498C1.1718 22 0.0498047 20.878 0.0498047 19.5V17.5C0.0498047 17.224 0.273805 17 0.549805 17H1.0498C2.1528 17 3.0498 16.103 3.0498 15C3.0498 13.897 2.1528 13 1.0498 13H0.549805C0.273805 13 0.0498047 12.776 0.0498047 12.5V10.5C0.0498047 9.122 1.1718 8 2.5498 8H21.5498C22.9278 8 24.0498 9.122 24.0498 10.5V12.5C24.0498 12.776 23.8258 13 23.5498 13H23.0498C21.9468 13 21.0498 13.897 21.0498 15C21.0498 15.534 21.2578 16.036 21.6358 16.414C22.0128 16.792 22.5148 17 23.0488 17H23.5488C23.8248 17 24.0488 17.224 24.0488 17.5V19.5C24.0498 20.878 22.9278 22 21.5498 22ZM1.0498 18V19.5C1.0498 20.327 1.7228 21 2.5498 21H21.5498C22.3768 21 23.0498 20.327 23.0498 19.5V18H23.0488C22.2478 18 21.4948 17.688 20.9288 17.122C20.3618 16.555 20.0498 15.801 20.0498 15C20.0498 13.346 21.3958 12 23.0498 12V10.5C23.0498 9.673 22.3768 9 21.5498 9H2.5498C1.7228 9 1.0498 9.673 1.0498 10.5V12C2.7038 12 4.0498 13.346 4.0498 15C4.0498 16.654 2.7038 18 1.0498 18Z" fill="#00264D"/>
<path d="M8.5498 10C8.2738 10 8.0498 9.776 8.0498 9.5V8.5C8.0498 8.224 8.2738 8 8.5498 8C8.8258 8 9.0498 8.224 9.0498 8.5V9.5C9.0498 9.776 8.8258 10 8.5498 10Z" fill="#00264D"/>
<path d="M8.5498 18.4609C8.2738 18.4609 8.0498 18.2369 8.0498 17.9609V16.2699C8.0498 15.9939 8.2738 15.7699 8.5498 15.7699C8.8258 15.7699 9.0498 15.9929 9.0498 16.2699V17.9619C9.0498 18.2379 8.8258 18.4609 8.5498 18.4609ZM8.5498 14.2309C8.2738 14.2309 8.0498 14.0069 8.0498 13.7309V12.0389C8.0498 11.7629 8.2738 11.5389 8.5498 11.5389C8.8258 11.5389 9.0498 11.7629 9.0498 12.0389V13.7309C9.0498 14.0069 8.8258 14.2309 8.5498 14.2309Z" fill="#00264D"/>
<path d="M8.5498 22C8.2738 22 8.0498 21.776 8.0498 21.5V20.5C8.0498 20.224 8.2738 20 8.5498 20C8.8258 20 9.0498 20.224 9.0498 20.5V21.5C9.0498 21.776 8.8258 22 8.5498 22Z" fill="#00264D"/>
<path d="M2.54979 8.99995C2.34679 8.99995 2.15579 8.87595 2.08179 8.67495C1.98479 8.41595 2.11579 8.12795 2.37479 8.03195L18.2748 2.09495C19.0478 1.80495 19.9558 2.23895 20.2198 3.01795L22.0228 8.33895C22.1108 8.60095 21.9708 8.88395 21.7098 8.97295C21.4508 9.06195 21.1648 8.92095 21.0758 8.65995L19.2728 3.33895C19.1848 3.07895 18.8828 2.93695 18.6238 3.03095L2.72379 8.96795C2.66679 8.98995 2.60779 8.99995 2.54979 8.99995Z" fill="#00264D"/>
</g>
<defs>
<clipPath id="clip0_1418_19585">
<rect width="24" height="24" fill="white" transform="translate(0.0498047)"/>
</clipPath>
</defs>
</svg>
