<svg width="20" height="21" viewBox="0 0 20 21" fill="none" xmlns="http://www.w3.org/2000/svg">
<g clip-path="url(#clip0_1256_12191)">
<path d="M8.43968 20.3951L16.1541 7.11218C16.3287 6.81144 16.081 6.44136 15.7364 6.48823L10.605 7.18569L11.831 0.748896C11.8724 0.531904 11.5926 0.407568 11.4592 0.583622L3.87433 10.5957C3.65339 10.8873 3.88734 11.302 4.25116 11.2637L9.90851 10.6682L8.05386 20.2505C8.00913 20.4817 8.32144 20.5987 8.43968 20.3951Z" fill="#FFDC64"/>
<path d="M6.24628 9.88603C6.1046 9.89736 6.0105 9.74248 6.08581 9.62197L11.7569 0.548298C11.6725 0.48154 11.5397 0.477243 11.4592 0.583415L3.87433 10.5955C3.65339 10.8872 3.88734 11.3018 4.25116 11.2635L9.90851 10.668L8.05386 20.2503C8.02886 20.3796 8.11605 20.4705 8.21796 20.4923L11.396 10.4358C11.545 9.96439 11.1692 9.49217 10.6764 9.53162L6.24628 9.88603Z" fill="#FFC850"/>
</g>
<defs>
<clipPath id="clip0_1256_12191">
<rect width="20" height="20" fill="white" transform="translate(0 0.5)"/>
</clipPath>
</defs>
</svg>
