<svg width="10" height="14" viewBox="0 0 10 14" fill="none" xmlns="http://www.w3.org/2000/svg">
<path d="M9.47065 5.15419C9.40256 5.01238 9.25917 4.92187 9.10134 4.92187H6.4834L8.64793 0.593605C8.7112 0.466621 8.7048 0.315629 8.63029 0.19466C8.55501 0.0736914 8.42283 0 8.28103 0H3.35915C3.18853 0 3.03551 0.106148 2.97544 0.265973L0.514502 6.82847C0.467225 6.95464 0.484862 7.09565 0.560959 7.20617C0.637877 7.31672 0.763631 7.38281 0.898217 7.38281H3.65395L2.14069 13.4905C2.09423 13.6776 2.18395 13.8718 2.35698 13.9575C2.52949 14.0426 2.73821 13.9969 2.85926 13.8462L9.42176 5.58838C9.52033 5.465 9.53955 5.29637 9.47065 5.15419Z" fill="url(#paint0_linear_0_3)"/>
<defs>
<linearGradient id="paint0_linear_0_3" x1="4.99997" y1="14" x2="4.99997" y2="0" gradientUnits="userSpaceOnUse">
<stop stop-color="#FD5900"/>
<stop offset="1" stop-color="#FFDE00"/>
</linearGradient>
</defs>
</svg>
