<svg width="56" height="56" viewBox="0 0 56 56" fill="none" xmlns="http://www.w3.org/2000/svg">
<g clip-path="url(#clip0_1_2)">
<path d="M28.0319 55.9995H27.9901C24.3253 55.9995 21.3438 53.0179 21.3438 49.3531V47.8C21.3438 46.894 22.0784 46.1594 22.9844 46.1594H33.0376C33.9436 46.1594 34.6782 46.894 34.6782 47.8V49.3531C34.6782 53.018 31.6966 55.9995 28.0319 55.9995V55.9995Z" fill="#FFA81C"/>
<path d="M33.0376 46.1595H28.011V55.9996H28.0319C31.6967 55.9996 34.6782 53.018 34.6782 49.3532V47.8001C34.6782 46.894 33.9436 46.1595 33.0376 46.1595V46.1595Z" fill="#FF9300"/>
<path d="M31.2904 10.2547H24.7315C23.8255 10.2547 23.0909 9.52012 23.0909 8.61409V4.92138C23.0909 2.20843 25.298 0.00142097 28.0109 0.00142097C30.7237 0.00142097 32.9308 2.20854 32.9308 4.92138V8.61409C32.931 9.52012 32.1964 10.2547 31.2904 10.2547V10.2547Z" fill="#FFA81C"/>
<path d="M31.2904 10.2547C32.1964 10.2547 32.931 9.52012 32.931 8.61409V4.92138C32.931 2.20843 30.7238 0.00142097 28.011 0.00142097V10.2547H31.2904Z" fill="#FF9300"/>
<path d="M45.3954 49.4407H10.6265C9.20655 49.4407 8.05126 48.2854 8.05126 46.8654V44.5198C8.05126 41.9506 8.99722 39.4834 10.7149 37.5727C11.8902 36.2652 12.5375 34.5771 12.5375 32.8192V22.1908C12.5375 13.6587 19.4787 6.71748 28.0108 6.71748C36.5428 6.71748 43.4841 13.6587 43.4841 22.1908V32.8192C43.4841 34.5771 44.1314 36.2652 45.3067 37.5726C47.0244 39.4833 47.9704 41.9505 47.9704 44.5197V46.8653C47.9705 48.2854 46.8153 49.4407 45.3954 49.4407V49.4407Z" fill="#FFCF2C"/>
<path d="M45.3954 49.4407C46.8153 49.4407 47.9706 48.2854 47.9706 46.8654V44.5198C47.9706 41.9506 47.0247 39.4834 45.3069 37.5727C44.1316 36.2654 43.4843 34.5772 43.4843 32.8193V22.1909C43.4843 13.6588 36.5431 6.71759 28.011 6.71759V49.4407H45.3954Z" fill="#FFC12E"/>
<path d="M8.05137 44.5198V46.8654C8.05137 48.2854 9.20666 49.4407 10.6266 49.4407H45.3954C46.8153 49.4407 47.9706 48.2854 47.9706 46.8654V44.5198C47.9706 43.3946 47.7891 42.2891 47.4408 41.2411H8.58117C8.23293 42.2891 8.05137 43.3946 8.05137 44.5198V44.5198Z" fill="#FFF566"/>
<path d="M28.011 41.2411V49.4406H45.3954C46.8153 49.4406 47.9706 48.2853 47.9706 46.8653V44.5197C47.9706 43.3945 47.7891 42.289 47.4408 41.241H28.011V41.2411Z" fill="#FFE645"/>
<path d="M1.64254 18.1198C1.52781 18.1198 1.41144 18.1077 1.29474 18.0825C0.40905 17.8913 -0.153885 17.0183 0.0372961 16.1326C1.35106 10.0473 4.70384 4.45721 9.4779 0.391987C10.1678 -0.195447 11.2032 -0.112215 11.7906 0.577481C12.378 1.2674 12.295 2.3027 11.6051 2.89014C7.37633 6.49097 4.40712 11.4398 3.2445 16.825C3.07859 17.594 2.39851 18.1198 1.64254 18.1198V18.1198Z" fill="#FF8B6E"/>
<path d="M54.3575 18.1198C53.6014 18.1198 52.9215 17.5941 52.7555 16.8251C51.5929 11.4399 48.6237 6.49108 44.395 2.89036C43.7051 2.30292 43.6221 1.2675 44.2095 0.577699C44.7969 -0.112215 45.8322 -0.195337 46.5222 0.392206C51.2963 4.45721 54.6489 10.0474 55.9627 16.1327C56.1539 17.0184 55.5909 17.8914 54.7053 18.0826C54.5887 18.1076 54.4722 18.1198 54.3575 18.1198V18.1198Z" fill="#FF674F"/>
<path d="M7.9501 20.039C7.84958 20.039 7.74765 20.0297 7.64528 20.0105C6.75478 19.8431 6.16866 18.9856 6.33599 18.0952C7.23645 13.3036 9.76161 8.87756 13.4461 5.63241C14.126 5.03338 15.1627 5.09933 15.7615 5.77918C16.3604 6.45914 16.2946 7.49577 15.6147 8.09457C12.4768 10.8585 10.3266 14.6252 9.56059 18.7011C9.4125 19.4893 8.72379 20.039 7.9501 20.039V20.039Z" fill="#FF8B6E"/>
<path d="M48.0499 20.0391C47.2761 20.0391 46.5875 19.4894 46.4394 18.7013C45.6734 14.6256 43.5235 10.8587 40.3855 8.0949C39.7055 7.49599 39.6399 6.45936 40.2387 5.7794C40.8376 5.09955 41.8742 5.03382 42.5542 5.63263C46.2385 8.87778 48.7636 13.3037 49.664 18.0952C49.8313 18.9857 49.2451 19.8431 48.3546 20.0105C48.2525 20.0298 48.1504 20.0391 48.0499 20.0391V20.0391Z" fill="#FF674F"/>
</g>
<defs>
<clipPath id="clip0_1_2">
<rect width="56" height="56" fill="white"/>
</clipPath>
</defs>
</svg>
