<svg width="40" height="40" viewBox="0 0 40 40" fill="none" xmlns="http://www.w3.org/2000/svg">
<path d="M32.8589 39.9999H3.71777V2.73755H32.8589V39.9999Z" fill="#B5CEFF"/>
<path d="M36.2817 37.2623L26.5945 34.2837L12.3107 33.0378C9.32102 32.5109 7.14062 29.9072 7.14062 26.8637V0H36.2817V37.2623Z" fill="#E9F2FF"/>
<path d="M32.2576 0V36.5531L36.2817 37.2623V0L32.2576 0Z" fill="#DEEBFF"/>
<path d="M12.464 33.0436L36.2816 37.2624L17.764 25.9788C17.764 25.9788 18.0108 33.0436 12.464 33.0436Z" fill="#91A8DD"/>
<path d="M12.4981 6.71793H30.9235C31.2569 6.71793 31.5271 6.4477 31.5271 6.11434C31.5271 5.78098 31.2569 5.51074 30.9235 5.51074H12.4981C12.1648 5.51074 11.8945 5.78098 11.8945 6.11434C11.8945 6.4477 12.1648 6.71793 12.4981 6.71793Z" fill="#91A8DD"/>
<path d="M30.9235 9.23242H12.4981C12.1648 9.23242 11.8945 9.50266 11.8945 9.83602C11.8945 10.1694 12.1648 10.4396 12.4981 10.4396H30.9235C31.2569 10.4396 31.5271 10.1694 31.5271 9.83602C31.5271 9.50266 31.257 9.23242 30.9235 9.23242Z" fill="#91A8DD"/>
<path d="M30.9235 12.9543H12.4981C12.1648 12.9543 11.8945 13.2246 11.8945 13.5579C11.8945 13.8913 12.1648 14.1615 12.4981 14.1615H30.9235C31.2569 14.1615 31.5271 13.8913 31.5271 13.5579C31.5271 13.2246 31.257 12.9543 30.9235 12.9543Z" fill="#91A8DD"/>
<path d="M30.9235 16.676H12.4981C12.1648 16.676 11.8945 16.9463 11.8945 17.2796C11.8945 17.613 12.1648 17.8832 12.4981 17.8832H30.9235C31.2569 17.8832 31.5271 17.613 31.5271 17.2796C31.5271 16.9463 31.257 16.676 30.9235 16.676Z" fill="#91A8DD"/>
</svg>
