<svg width="40" height="41" viewBox="0 0 40 41" fill="none" xmlns="http://www.w3.org/2000/svg">
<path d="M18.75 23L18.0555 26.125L17.5 28.625H6.25L5.69453 26.125L5 23L6.875 18L8.54141 17.1664L10.625 16.125H13.125L15.2086 17.1664L16.875 18L18.75 23Z" fill="#6173E8"/>
<path d="M11.25 17.375H12.5V23.625H11.25V17.375Z" fill="#4E62E6"/>
<path d="M8.125 21.75H9.375V25.5H8.125V21.75Z" fill="#4E62E6"/>
<path d="M14.375 21.75H15.625V25.5H14.375V21.75Z" fill="#4E62E6"/>
<path d="M11.8746 16.125V18L10.6246 19.25L8.54102 17.1664L10.6246 16.125H11.8746Z" fill="#8899F7"/>
<path d="M15.2086 17.1664L13.125 19.25L11.875 18V16.125H13.125L15.2086 17.1664Z" fill="#9DABFC"/>
<path d="M1.875 28.625H21.875V38.625H1.875V28.625Z" fill="#C8DBF7"/>
<path d="M18.0555 26.125L17.5 28.625H15.625V26.125H18.0555Z" fill="#FFCEB6"/>
<path d="M21.875 2.375H24.375V38.625H21.875V2.375Z" fill="#D1E4FF"/>
<path d="M35.625 2.375H38.125V38.625H35.625V2.375Z" fill="#D1E4FF"/>
<path d="M24.375 2.375H35.625V7.375H24.375V2.375Z" fill="#B2C6EB"/>
<path d="M28.125 4.25H31.875V5.5H28.125V4.25Z" fill="#67EBA0"/>
<path d="M8.125 25.5H15.625V28.625H8.125V25.5Z" fill="#62798C"/>
<path d="M13.75 13V14.875C13.75 15.3723 13.5525 15.8492 13.2008 16.2008C12.8492 16.5525 12.3723 16.75 11.875 16.75C11.3777 16.75 10.9008 16.5525 10.5492 16.2008C10.1975 15.8492 10 15.3723 10 14.875V13H13.75Z" fill="#FFCEB6"/>
<path d="M9.375 11.75L8.75 10.5L9.74112 9.50888C10.0213 9.22866 10.354 9.00637 10.7202 8.85471C11.0863 8.70306 11.4787 8.625 11.875 8.625C12.6754 8.625 13.4429 8.94294 14.0089 9.50888L15 10.5L14.375 11.75H9.375Z" fill="#6173E8"/>
<path d="M8.12505 26.125V28.625H6.25005L5.69458 26.125H8.12505Z" fill="#FFCEB6"/>
</svg>
