<svg width="40" height="41" viewBox="0 0 40 41" fill="none" xmlns="http://www.w3.org/2000/svg">
<g clip-path="url(#clip0_1_2)">
<path d="M19.999 40.4351C18.9642 40.4351 17.9825 40.3811 17.0522 40.2775C-0.559347 38.3263 0.00200072 18.8854 0.00200072 18.8854H39.997C39.997 18.8855 40.715 40.4351 19.999 40.4351V40.4351Z" fill="#ACCDFF"/>
<path d="M17.0522 40.2776C-0.559347 38.3263 0.00200072 18.8854 0.00200072 18.8854H1.16212C4.63203 20.8131 8.62674 23.7287 12.5405 26.8792C12.5405 26.8792 9.69461 34.2447 17.0522 40.2776V40.2776Z" fill="#81B0FE"/>
<path d="M39.9969 18.8852C39.9969 23.4323 31.0438 29.0278 19.9995 29.0278C8.9552 29.0278 0.00200081 23.4323 0.00200081 18.8852C0.00200081 14.3381 8.95511 10.652 19.9994 10.652C31.0437 10.652 39.9969 14.3381 39.9969 18.8852Z" fill="#81B0FE"/>
<path d="M11.068 13.7476C6.30059 15.0177 3.06174 16.8454 3.06174 19.1089C3.06174 19.4098 3.11866 19.7164 3.22788 20.0259C4.38495 23.3007 11.4529 26.8792 19.9997 26.8792C28.5464 26.8792 35.6144 23.3007 36.7714 20.0259C36.8806 19.7164 36.9376 19.4098 36.9376 19.1089C36.9376 16.7038 33.3249 14.6134 28.0107 13.5491C28.0106 13.549 18.7153 11.608 11.068 13.7476Z" fill="#ACCDFF"/>
<path d="M36.7719 20.0256C36.4237 21.0099 35.5413 22.022 34.2454 22.9559C31.2306 25.129 25.9775 26.8792 20.0002 26.8792C11.4529 26.8792 4.38514 23.3005 3.2285 20.0256C4.07705 17.7802 8.09787 15.9142 13.5495 15.0779C15.5373 14.7715 17.7156 14.6035 20.0002 14.6035C28.5457 14.6035 35.6135 16.9612 36.7719 20.0256V20.0256Z" fill="#FFB568"/>
<path d="M36.7721 20.0256C36.424 21.0099 35.5415 22.022 34.2456 22.9559C32.6851 23.2135 31.0289 23.358 29.3127 23.358C20.7654 23.358 13.6976 19.7793 12.541 16.5043C12.7281 16.0082 13.071 15.5304 13.5497 15.0779C15.5375 14.7715 17.7158 14.6035 20.0004 14.6035C28.5459 14.6035 35.6137 16.9612 36.7721 20.0256V20.0256Z" fill="#FFD088"/>
<path d="M34.47 20.6566C32.2652 15.7829 30.6406 20.3084 30.6406 20.3084L34.47 20.6566Z" fill="#B4FFC6"/>
<path d="M9.61634 23.7586C9.61634 23.7586 11.2409 19.233 13.4457 24.1067C13.4457 24.1067 12.287 24.4935 9.61634 23.7586Z" fill="#B4FFC6"/>
<path d="M15.3604 18.3118C13.1556 13.4381 11.531 17.9637 11.531 17.9637C11.531 17.9637 12.9397 18.6042 15.3604 18.3118Z" fill="#B4FFC6"/>
<path d="M9.80058 19.4201C9.80058 19.4201 6.08724 16.198 6.02928 20.7415C6.02928 20.7415 8.12994 20.6902 9.80058 19.4201Z" fill="#B4FFC6"/>
<path d="M29.7608 20.6095C29.7347 20.68 29.6677 20.7261 29.5572 20.7426C28.1647 20.9497 26.9349 20.8027 25.3927 21.5798C24.9689 21.7939 24.5216 22.0768 24.0412 22.4571C24.0107 22.4815 23.9794 22.505 23.9489 22.5285C22.8854 23.3179 21.6173 22.9828 20.9124 22.1577C20.3867 21.5442 20.1726 20.6608 20.5834 19.7661C20.9751 18.9132 21.4772 18.3249 22.0438 17.942C25.1064 15.8706 30.0611 19.8036 29.7608 20.6095V20.6095Z" fill="#B4FFC6"/>
<path d="M25.3927 21.5802C24.9689 21.7943 24.5216 22.0771 24.0412 22.4574C24.0107 22.4818 23.9794 22.5053 23.9489 22.5288C22.0952 23.9048 19.62 21.8639 20.5834 19.7664C20.9751 18.9135 21.4772 18.3252 22.0438 17.9423C23.2866 18.045 24.445 18.7108 25.1969 20.3469C25.391 20.7698 25.4458 21.1903 25.3927 21.5802V21.5802Z" fill="#79E9B3"/>
<path d="M29.7604 20.6095C29.7343 20.68 29.6673 20.7261 29.5568 20.7426C28.1643 20.9498 26.9345 20.8027 25.3923 21.5799C24.9685 21.794 24.5212 22.0768 24.0407 22.4571C24.0103 22.4815 23.979 22.505 23.9485 22.5285C22.885 23.3179 21.6169 22.9828 20.912 22.1578C20.9381 22.0977 22.1496 19.3336 26.871 19.9028C26.871 19.9028 28.5019 19.9071 29.7604 20.6095V20.6095Z" fill="#79E9B3"/>
<path d="M22.5339 23.3187C21.8281 24.1438 20.5609 24.478 19.4983 23.6886C19.4669 23.666 19.4365 23.6425 19.4051 23.6172C17.1754 21.8549 15.6637 22.1664 13.8891 21.9027C13.7969 21.8888 13.736 21.8549 13.7029 21.8035C13.152 20.9524 20.3242 15.3981 22.8629 20.9262C23.2737 21.821 23.0596 22.7052 22.5339 23.3187V23.3187Z" fill="#B4FFC6"/>
<path d="M22.5342 23.3188C21.8284 24.1438 20.5613 24.478 19.4986 23.6886C19.4673 23.666 19.4368 23.6425 19.4055 23.6173C17.1758 21.8549 15.664 22.1665 13.8895 21.9028C13.7972 21.8888 13.7363 21.8549 13.7032 21.8035C14.2602 21.5207 15.1558 21.2231 16.5761 21.0638C21.3489 20.4876 22.5342 23.3188 22.5342 23.3188V23.3188Z" fill="#79E9B3"/>
<path d="M20.7083 9.88817C20.3898 11.3303 19.9338 13.1623 19.4316 14.4529C18.8633 15.9142 18.2358 16.6809 17.6797 15.4042C16.8807 13.5696 16.3542 11.7794 16.0365 10.5148C10.4109 9.15799 11.9696 6.69241 13.3412 5.37998C13.1854 -1.33965 18.7362 1.74036 18.8381 1.79693C19.5856 0.879628 20.6779 0.199919 22.1696 0.779543C25.4385 2.04845 24.3427 5.64891 24.3271 5.70113C28.6455 8.66539 20.7083 9.88817 20.7083 9.88817V9.88817Z" fill="#FBF5F7"/>
<path d="M24.3271 5.70113C24.3271 5.702 24.3262 5.702 24.3262 5.702C24.3262 5.702 20.6109 -0.452812 18.1853 6.22679C18.1853 6.22679 13.8007 5.53055 18.1192 11.2746C18.1192 11.2746 17.4447 15.211 19.4316 14.4529C18.8633 15.9142 18.2358 16.6809 17.6797 15.4042C16.8807 13.5696 16.3542 11.7794 16.0365 10.5148C10.4109 9.15799 11.9696 6.69241 13.3412 5.37998C13.1854 -1.33965 18.7362 1.74036 18.8381 1.79693C19.5856 0.879628 20.6779 0.199919 22.1696 0.779543C25.4385 2.04854 24.3427 5.64891 24.3271 5.70113V5.70113Z" fill="#EDE3E7"/>
</g>
<defs>
<clipPath id="clip0_1_2">
<rect width="40" height="40" fill="white" transform="translate(0 0.5)"/>
</clipPath>
</defs>
</svg>
