<svg width="40" height="41" viewBox="0 0 40 41" fill="none" xmlns="http://www.w3.org/2000/svg">
<g clip-path="url(#clip0_0_3)">
<path d="M28.0974 4.38531V13.1517H26.3896V4.38531C26.7311 4.38531 27.4985 4.38531 28.0974 4.38531Z" fill="#52528C"/>
<path d="M17.5631 4.38533V13.1517H15.8554V4.38533C16.1969 4.38533 16.9643 4.38533 17.5631 4.38533Z" fill="#52528C"/>
<path d="M29.2356 2.03183V4.17758C29.2356 5.02376 28.5491 5.70941 27.7029 5.70941H26.8217C25.9756 5.70941 25.2899 5.02376 25.2899 4.17758V2.98986H18.5094V4.292C18.5094 5.13818 17.8238 5.82468 16.9776 5.82468H16.4798C15.6336 5.82468 14.9471 5.13818 14.9471 4.292V2.03183C14.9471 1.18565 15.6336 0.5 16.4798 0.5H27.7029C28.5491 0.5 29.2356 1.18565 29.2356 2.03183Z" fill="#FAE26B"/>
<path d="M25.2894 1.80212V2.98985H18.5089V4.29198C18.5089 5.13816 17.8233 5.82467 16.9771 5.82467H16.709V1.80212H25.2894Z" fill="#EDD15A"/>
<path d="M28.865 38.4909C25.0449 39.4062 22.2664 39.6274 22.2664 39.6274L8.53374 38.0486C8.53374 38.0486 5.40861 37.5439 5.53498 33.0603C5.6605 28.5775 6.03961 13.1713 6.03961 13.1713C6.03961 13.1713 6.26333 12.145 7.45873 11.2347C7.78661 10.9846 8.18708 10.7438 8.67548 10.5354C10.9485 9.56459 16.0161 9.44591 16.0161 9.44591L28.7071 10.141C28.7071 10.141 32.0534 10.6456 32.0534 14.9397C32.0534 19.2329 32.0534 33.8817 32.0534 33.8817C32.0534 33.8817 32.6844 37.5747 28.865 38.4909Z" fill="#A3A3F5"/>
<path d="M25.2976 15.6501C25.2976 15.6501 25.2976 27.9619 25.2976 33.3609C25.2976 38.759 22.2664 39.6274 22.2664 39.6274L8.53374 38.0486C8.53374 38.0486 5.40861 37.5439 5.53498 33.0603C5.6605 28.5775 6.03961 13.1713 6.03961 13.1713C6.03961 13.1713 6.26333 12.145 7.45873 11.2347H7.45959C9.69926 10.5611 14.9266 11.4824 19.9465 11.625C24.9663 11.7667 25.2976 15.6501 25.2976 15.6501Z" fill="#C5C5FE"/>
<path d="M30.8408 40.5C32.8439 40.5 34.4678 38.7385 34.4678 36.5656C34.4678 34.3927 32.8439 32.6312 30.8408 32.6312C28.8376 32.6312 27.2138 34.3927 27.2138 36.5656C27.2138 38.7385 28.8376 40.5 30.8408 40.5Z" fill="#52528C"/>
<path d="M33.4033 37.6771C32.9305 38.7592 31.8767 39.2506 30.9297 38.9263C30.0502 38.6309 29.4072 37.6857 29.4072 36.5654C29.4072 35.446 30.0502 34.5008 30.9297 34.2045C31.9166 33.8665 32.9921 34.4168 33.4358 35.5339C33.4358 35.5339 33.7995 35.9557 33.4033 37.6771Z" fill="#404077"/>
<path d="M32.4496 36.5663C32.4496 37.6848 31.8075 38.6283 30.9297 38.9263C30.0502 38.6309 29.4072 37.6857 29.4072 36.5654C29.4072 35.446 30.0502 34.5008 30.9297 34.2045C31.8075 34.5025 32.4496 35.4468 32.4496 36.5663Z" fill="#6B6B9B"/>
<path d="M18.8124 36.2863C17.9817 36.2863 17.3218 35.6008 17.3452 34.7775L17.8225 18.0315C17.8452 17.2359 18.4973 16.6063 19.288 16.6063C20.1187 16.6063 20.7786 17.2918 20.7552 18.1151L20.2779 34.8611C20.2553 35.6566 19.6032 36.2863 18.8124 36.2863Z" fill="#A3A3F5"/>
<path d="M13.4947 17.4013L13.0174 34.1473C12.9943 34.9431 12.342 35.5724 11.5513 35.5724C10.7146 35.5724 10.061 34.8819 10.0844 34.0636C10.2437 28.4598 10.1446 31.94 10.5617 17.3177C10.5836 16.5344 11.2253 15.8926 12.0269 15.8926C12.8514 15.8926 13.5182 16.5724 13.4947 17.4013Z" fill="#A3A3F5"/>
</g>
<defs>
<clipPath id="clip0_0_3">
<rect width="40" height="40" fill="white" transform="translate(0 0.5)"/>
</clipPath>
</defs>
</svg>
