<svg width="57" height="56" viewBox="0 0 57 56" fill="none" xmlns="http://www.w3.org/2000/svg">
<g clip-path="url(#clip0_2_2)">
<path d="M36.8125 4.92188C28.6703 4.92188 22.0469 11.5453 22.0469 19.6875C22.0469 27.8297 28.6703 34.4531 36.8125 34.4531C44.9547 34.4531 51.5781 27.8297 51.5781 19.6875C51.5781 11.5453 44.9547 4.92188 36.8125 4.92188ZM22.8976 31.2824L15.3081 38.872C14.6672 39.5128 14.6672 40.5511 15.3081 41.1919C15.9489 41.8328 16.9871 41.8328 17.628 41.1919L25.2175 33.6024C25.8584 32.9616 25.8584 31.9233 25.2175 31.2824C24.5767 30.6416 23.5385 30.6415 22.8976 31.2824Z" fill="url(#paint0_linear_2_2)"/>
<path d="M33.5312 19.6875C34.4501 19.6875 35.1719 18.9655 35.1719 18.0469V16.4062C35.1719 15.4874 34.4501 14.7656 33.5312 14.7656C32.6124 14.7656 31.8906 15.4874 31.8906 16.4062V18.0469C31.8906 18.9655 32.6124 19.6875 33.5312 19.6875ZM40.0937 19.6875C41.0126 19.6875 41.7344 18.9655 41.7344 18.0469V16.4062C41.7344 15.4874 41.0126 14.7656 40.0937 14.7656C39.1749 14.7656 38.4531 15.4874 38.4531 16.4062V18.0469C38.4531 18.9655 39.1749 19.6875 40.0937 19.6875ZM36.8125 0C25.9516 0 17.125 8.82656 17.125 19.6875C17.125 30.5484 25.9516 39.375 36.8125 39.375C47.6734 39.375 56.5 30.5484 56.5 19.6875C56.5 8.82656 47.6734 0 36.8125 0ZM36.8125 32.8125C29.5608 32.8125 23.6875 26.939 23.6875 19.6875C23.6875 12.4358 29.5608 6.5625 36.8125 6.5625C44.0642 6.5625 49.9375 12.4358 49.9375 19.6875C49.9375 26.939 44.0642 32.8125 36.8125 32.8125ZM32.186 23.4608C31.5298 24.0843 31.5298 25.1343 32.186 25.7577C32.8095 26.414 33.8594 26.414 34.4828 25.7577C35.7297 24.5108 37.8954 24.5108 39.1424 25.7577C39.4375 26.086 39.8641 26.25 40.2906 26.25C40.7172 26.25 41.1437 26.0859 41.4391 25.7577C42.0953 25.1343 42.0953 24.0843 41.4391 23.4608C38.978 20.9672 34.647 20.9672 32.186 23.4608ZM15.3082 36.552C14.6673 35.9112 13.629 35.9112 12.9882 36.552L1.9385 47.6014C0.0207178 49.5192 0.0207179 52.6402 1.93686 54.5613C1.9385 54.5613 1.9385 54.5613 1.9385 54.5629C3.85803 56.4792 6.98331 56.4796 8.89836 54.5613L19.948 43.5119C20.5888 42.8711 20.5888 41.8328 19.948 41.1919L15.3082 36.552Z" fill="url(#paint1_linear_2_2)"/>
</g>
<defs>
<linearGradient id="paint0_linear_2_2" x1="33.2028" y1="41.6725" x2="33.2028" y2="4.92188" gradientUnits="userSpaceOnUse">
<stop stop-color="#ADDCFF"/>
<stop offset="0.5028" stop-color="#EAF6FF"/>
<stop offset="1" stop-color="#EAF6FF"/>
</linearGradient>
<linearGradient id="paint1_linear_2_2" x1="28.5" y1="56" x2="28.5" y2="0" gradientUnits="userSpaceOnUse">
<stop stop-color="#5558FF"/>
<stop offset="1" stop-color="#00C0FF"/>
</linearGradient>
<clipPath id="clip0_2_2">
<rect width="56" height="56" fill="white" transform="translate(0.5)"/>
</clipPath>
</defs>
</svg>
