<svg width="15" height="14" viewBox="0 0 15 14" fill="none" xmlns="http://www.w3.org/2000/svg">
<path d="M1.48633 5.83398C0.542969 6.27148 0.802734 7.53613 1.8418 7.54297L6.8252 7.56348C6.90723 7.56348 6.92773 7.58398 6.92773 7.66602L6.94141 12.6084C6.94824 13.6885 8.2334 13.8799 8.69141 12.8887L13.7432 2.02637C14.208 1.01465 13.415 0.296875 12.4102 0.768555L1.48633 5.83398ZM2.67578 6.47656C2.64844 6.47656 2.6416 6.44922 2.67578 6.43555L12.499 1.9375C12.5469 1.91699 12.5674 1.93066 12.5469 1.98535L8.02148 11.8018C8.01465 11.8291 7.9873 11.8223 7.9873 11.7949L8.02148 6.96191C8.02148 6.66113 7.80957 6.44922 7.50195 6.44922L2.67578 6.47656Z" fill="#698096"/>
</svg>
