<svg width="16" height="16" viewBox="0 0 16 16" fill="none" xmlns="http://www.w3.org/2000/svg">
<g clip-path="url(#clip0_1_57)">
<path d="M8 4C7.47258 4 6.95701 4.1564 6.51848 4.44941C6.07995 4.74243 5.73815 5.15891 5.53632 5.64618C5.33449 6.13345 5.28168 6.66962 5.38457 7.18691C5.48747 7.70419 5.74144 8.17934 6.11438 8.55229C6.48732 8.92523 6.96248 9.1792 7.47976 9.28209C7.99704 9.38499 8.53322 9.33218 9.02049 9.13035C9.50776 8.92851 9.92423 8.58672 10.2173 8.14819C10.5103 7.70966 10.6667 7.19408 10.6667 6.66667C10.6667 5.95942 10.3857 5.28115 9.88562 4.78105C9.38552 4.28095 8.70724 4 8 4ZM8 8C7.73629 8 7.4785 7.9218 7.25924 7.77529C7.03997 7.62878 6.86908 7.42055 6.76816 7.17691C6.66724 6.93328 6.64084 6.66519 6.69229 6.40655C6.74373 6.1479 6.87072 5.91033 7.05719 5.72386C7.24366 5.53739 7.48124 5.4104 7.73988 5.35895C7.99852 5.30751 8.26661 5.33391 8.51024 5.43483C8.75388 5.53574 8.96212 5.70664 9.10863 5.92591C9.25513 6.14517 9.33333 6.40296 9.33333 6.66667C9.33333 7.02029 9.19286 7.35943 8.94281 7.60948C8.69276 7.85952 8.35362 8 8 8Z" fill="#698096"/>
<path d="M8 16C7.43863 16.0029 6.88474 15.8712 6.38471 15.616C5.88468 15.3609 5.45306 14.9896 5.126 14.5333C2.58533 11.0287 1.29667 8.394 1.29667 6.702C1.29667 4.92417 2.00291 3.21915 3.26003 1.96203C4.51715 0.704909 6.22217 -0.00133324 8 -0.00133324C9.77783 -0.00133324 11.4829 0.704909 12.74 1.96203C13.9971 3.21915 14.7033 4.92417 14.7033 6.702C14.7033 8.394 13.4147 11.0287 10.874 14.5333C10.5469 14.9896 10.1153 15.3609 9.61529 15.616C9.11526 15.8712 8.56137 16.0029 8 16V16ZM8 1.454C6.60828 1.45559 5.27401 2.00915 4.28991 2.99325C3.30582 3.97735 2.75225 5.31161 2.75067 6.70333C2.75067 8.04333 4.01267 10.5213 6.30333 13.6807C6.4978 13.9485 6.75291 14.1665 7.04781 14.3168C7.3427 14.4672 7.669 14.5455 8 14.5455C8.331 14.5455 8.65729 14.4672 8.95219 14.3168C9.24709 14.1665 9.5022 13.9485 9.69667 13.6807C11.9873 10.5213 13.2493 8.04333 13.2493 6.70333C13.2477 5.31161 12.6942 3.97735 11.7101 2.99325C10.726 2.00915 9.39172 1.45559 8 1.454V1.454Z" fill="#698096"/>
</g>
<defs>
<clipPath id="clip0_1_57">
<rect width="16" height="16" fill="white"/>
</clipPath>
</defs>
</svg>
