<svg width="19" height="20" viewBox="0 0 19 20" fill="none" xmlns="http://www.w3.org/2000/svg">
<path d="M9.75781 4.04089C10.1094 4.03308 10.3906 3.74402 10.3906 3.33777V1.41589C10.3906 1.00964 10.1094 0.720581 9.75781 0.720581C9.40625 0.720581 9.125 1.00964 9.125 1.41589V3.33777C9.125 3.74402 9.40625 4.04871 9.75781 4.04089ZM13.7891 5.70496C14.0312 5.94714 14.4453 5.94714 14.7344 5.65808L16.0938 4.29871C16.3828 4.00964 16.375 3.61121 16.125 3.36121C15.8906 3.11121 15.4844 3.11121 15.1875 3.40027L13.8281 4.75964C13.5469 5.04871 13.5391 5.46277 13.7891 5.70496ZM5.72656 5.70496C5.96875 5.45496 5.96875 5.04871 5.67969 4.75964L4.32031 3.40027C4.03125 3.11121 3.63281 3.11902 3.38281 3.36121C3.13281 3.60339 3.13281 4.00964 3.42188 4.29871L4.78125 5.65808C5.07031 5.94714 5.48438 5.95496 5.72656 5.70496ZM2.41406 13.1971H18.2812C18.5547 13.1971 18.7734 12.9862 18.7734 12.705C18.7734 12.4237 18.5547 12.2128 18.2812 12.2128H13.2188C13.7266 11.5175 14.0312 10.6581 14.0312 9.73621C14.0312 7.39246 12.0859 5.45496 9.75781 5.45496C7.42188 5.45496 5.48438 7.39246 5.48438 9.73621C5.48438 10.6581 5.78906 11.5175 6.29688 12.2128H2.41406C2.13281 12.2128 1.92188 12.4237 1.92188 12.705C1.92188 12.9862 2.13281 13.1971 2.41406 13.1971ZM6.74219 9.73621C6.74219 8.07996 8.10156 6.72058 9.75781 6.72058C11.4141 6.72058 12.7734 8.07996 12.7734 9.73621C12.7734 10.7675 12.2422 11.6815 11.4375 12.2128H8.07031C7.27344 11.6815 6.74219 10.7675 6.74219 9.73621ZM1.4375 10.1737H3.35938C3.76562 10.1737 4.07031 9.88464 4.0625 9.53308C4.05469 9.18933 3.76562 8.90027 3.35938 8.90027H1.4375C1.03125 8.90027 0.742188 9.18933 0.742188 9.53308C0.742188 9.88464 1.03125 10.1737 1.4375 10.1737ZM16.1562 10.1737H18.0781C18.4844 10.1737 18.7734 9.88464 18.7734 9.53308C18.7734 9.18933 18.4844 8.90027 18.0781 8.90027H16.1562C15.75 8.90027 15.4453 9.18933 15.4531 9.53308C15.4609 9.88464 15.75 10.1737 16.1562 10.1737ZM1.23438 16.205H17.1016C17.375 16.205 17.5938 15.9862 17.5938 15.705C17.5938 15.4237 17.375 15.2128 17.1016 15.2128H1.23438C0.960938 15.2128 0.742188 15.4237 0.742188 15.705C0.742188 15.9862 0.960938 16.205 1.23438 16.205ZM2.41406 19.205H18.2812C18.5547 19.205 18.7734 18.994 18.7734 18.7128C18.7734 18.4315 18.5547 18.2128 18.2812 18.2128H2.41406C2.13281 18.2128 1.92188 18.4315 1.92188 18.7128C1.92188 18.994 2.13281 19.205 2.41406 19.205Z" fill="#00264D"/>
</svg>
