<svg width="25" height="24" viewBox="0 0 25 24" fill="none" xmlns="http://www.w3.org/2000/svg">
<g clip-path="url(#clip0_1418_19299)">
<path d="M23.6443 17.531C23.5773 17.5365 16.8843 18.0655 12.8203 17.173C12.2798 17.054 11.9353 17.2175 11.1018 17.613C10.4953 17.9005 9.5778 18.335 8.0448 18.933C4.6183 20.269 2.7748 20.3425 2.4673 19.823C2.1788 19.3335 2.8318 17.173 3.6028 15.4475C3.62325 15.4025 3.63461 15.3539 3.63621 15.3045C3.63782 15.2551 3.62964 15.2059 3.61216 15.1597C3.59467 15.1135 3.56822 15.0711 3.53433 15.0352C3.50044 14.9992 3.45977 14.9703 3.41466 14.9501C3.36956 14.9299 3.3209 14.9188 3.2715 14.9175C3.22209 14.9162 3.17291 14.9246 3.12679 14.9424C3.08066 14.9601 3.0385 14.9868 3.00272 15.0209C2.96694 15.055 2.93825 15.0958 2.9183 15.141C2.8683 15.252 2.7848 15.444 2.6858 15.6835C1.8048 15.0735 0.799805 14.162 0.799805 13.615C0.857305 13.368 1.7163 12.624 2.6998 11.952C2.71558 12.001 2.72745 12.0512 2.7353 12.102C2.71702 12.2671 2.68796 12.4308 2.6483 12.592C2.52832 12.9538 2.49694 13.3391 2.5568 13.7155C2.6708 14.059 3.0268 14.18 3.2868 14.269C3.3238 14.2815 3.3723 14.298 3.4103 14.312C3.5103 14.5345 3.7193 14.8985 3.8658 15.144C3.8888 15.2365 3.9383 15.424 4.0068 15.6175C4.05665 15.7589 4.13935 15.8864 4.24809 15.9896C4.35683 16.0928 4.48851 16.1687 4.6323 16.211C4.77452 16.2536 4.92488 16.2615 5.07077 16.234C5.21666 16.2065 5.35383 16.1444 5.4708 16.053C5.5708 15.9745 5.7013 15.8665 5.8453 15.7415L5.5858 16.717C5.571 16.7725 5.56917 16.8307 5.58045 16.8871C5.59173 16.9434 5.61583 16.9964 5.65088 17.0419C5.68593 17.0875 5.73098 17.1243 5.78256 17.1497C5.83413 17.175 5.89084 17.1881 5.9483 17.188C5.98597 17.1883 6.02344 17.1825 6.0593 17.171C6.9885 16.8617 7.87422 16.4345 8.69481 15.9C10.5253 14.689 10.8198 13.4 10.8313 13.344C10.8526 13.2469 10.8344 13.1454 10.7809 13.0617C10.7273 12.978 10.6426 12.919 10.5456 12.8978C10.4485 12.8765 10.3469 12.8946 10.2632 12.9482C10.1796 13.0018 10.1206 13.0864 10.0993 13.1835C10.0347 13.3904 9.94127 13.5872 9.82181 13.768L8.3158 13.9085C8.26656 13.9108 8.21824 13.9227 8.17361 13.9437C8.12898 13.9646 8.08891 13.9941 8.05569 14.0305C7.9886 14.1041 7.95348 14.2013 7.95805 14.3008C7.96263 14.4002 8.00653 14.4938 8.08009 14.5609C8.15365 14.628 8.25085 14.6631 8.3503 14.6585H8.3853L9.1478 14.5875C8.88064 14.8435 8.59041 15.0744 8.2808 15.277C7.71661 15.6442 7.11915 15.9576 6.4963 16.213L6.8733 14.7975C7.37436 14.3704 7.80262 13.8646 8.1413 13.3C8.22722 12.8584 8.18131 12.4012 8.0093 11.9855C7.96758 11.8974 7.8932 11.8291 7.80193 11.7949C7.71065 11.7607 7.60966 11.7634 7.52034 11.8024C7.43103 11.8414 7.3604 11.9137 7.32344 12.0038C7.28647 12.094 7.28606 12.195 7.3223 12.2855C7.42432 12.5443 7.45673 12.8253 7.4163 13.1005C6.69151 13.9633 5.88584 14.7547 5.0103 15.464C4.98708 15.4823 4.95978 15.4948 4.93071 15.5004C4.90165 15.506 4.87167 15.5045 4.8433 15.496C4.81341 15.4872 4.78604 15.4714 4.76344 15.4499C4.74084 15.4284 4.72366 15.4019 4.7133 15.3725C4.66181 15.2249 4.61792 15.0747 4.5818 14.9225C4.57273 14.8842 4.55789 14.8474 4.5378 14.8135C4.3378 14.4635 4.2248 14.239 4.0843 13.9925C4.02438 13.8881 3.94441 13.7966 3.84899 13.7232C3.75357 13.6499 3.64459 13.5961 3.5283 13.565C3.43835 13.5374 3.35087 13.5023 3.2668 13.46C3.28615 13.2223 3.32461 12.9865 3.3818 12.755C3.44644 12.5231 3.48007 12.2837 3.4818 12.043C3.3991 11.6372 3.2753 11.2408 3.1123 10.86C2.9788 10.492 2.8083 10.02 2.6008 9.41851C2.5788 9.35401 2.5638 9.28901 2.5473 9.22401C3.2408 9.60301 4.3128 9.59151 5.4298 9.49051C6.6208 9.38401 8.31781 9.29651 9.2993 9.76301C9.34379 9.78415 9.392 9.79633 9.44119 9.79884C9.49039 9.80135 9.53959 9.79414 9.58599 9.77764C9.6324 9.76113 9.6751 9.73565 9.71166 9.70264C9.74821 9.66963 9.77791 9.62975 9.79906 9.58526C9.8202 9.54078 9.83237 9.49256 9.83488 9.44337C9.83739 9.39418 9.83019 9.34498 9.81368 9.29857C9.79718 9.25217 9.77169 9.20947 9.73868 9.17291C9.70568 9.13635 9.66579 9.10665 9.6213 9.08551C8.7358 8.66501 7.4213 8.55801 5.3623 8.74351C2.8458 8.96851 2.5758 8.44701 2.5233 7.93901C2.4498 7.22551 3.3553 6.28001 3.7103 5.97551C3.76672 5.92738 3.80747 5.86347 3.8273 5.79201C3.9107 5.54192 4.04446 5.31156 4.22032 5.11515C4.39618 4.91873 4.61041 4.76044 4.8498 4.65001C5.26447 4.46729 5.70958 4.36352 6.1623 4.34401C6.57976 4.9463 7.21402 5.36377 7.9323 5.50901C9.82831 6.00351 10.1103 6.48751 10.1518 6.62401C10.2146 6.84655 10.2358 7.07878 10.2143 7.30901C9.97118 7.20028 9.72053 7.10921 9.4643 7.03651C8.85709 6.87419 8.2372 6.76362 7.6113 6.70601C7.1578 6.64851 6.6258 6.58201 5.9728 6.47801C5.46926 6.41109 4.98127 6.25678 4.5308 6.02201C4.48812 5.99752 4.44104 5.98167 4.39224 5.97538C4.34343 5.96909 4.29387 5.97247 4.24637 5.98533C4.19887 5.99819 4.15437 6.02028 4.11541 6.05034C4.07645 6.08039 4.0438 6.11783 4.0193 6.16051C3.99481 6.20319 3.97897 6.25028 3.97267 6.29908C3.96638 6.34788 3.96976 6.39745 3.98262 6.44495C3.99548 6.49244 4.01757 6.53694 4.04763 6.5759C4.07769 6.61486 4.11512 6.64752 4.1578 6.67201C4.68611 6.95399 5.26071 7.13892 5.8543 7.21801C6.5178 7.32401 7.0573 7.39201 7.5178 7.45001C8.10183 7.50372 8.68045 7.60539 9.2478 7.75401C10.1263 8.02051 10.4683 8.26201 10.5083 8.64701C10.5104 8.87934 10.4579 9.10892 10.3552 9.31732C10.2525 9.52571 10.1023 9.70713 9.9168 9.84701C9.86531 9.88422 9.82411 9.93387 9.79703 9.99134C9.76996 10.0488 9.75791 10.1122 9.762 10.1756C9.7661 10.239 9.78621 10.3003 9.82045 10.3538C9.8547 10.4073 9.90196 10.4512 9.9578 10.4815L10.7943 10.9315C10.849 10.9609 10.9102 10.9764 10.9723 10.9765C10.9905 10.9764 11.0088 10.9751 11.0268 10.9725L12.0768 10.8175C12.1255 10.8103 12.1724 10.7936 12.2146 10.7683C12.2569 10.743 12.2937 10.7097 12.3231 10.6701C12.3525 10.6306 12.3738 10.5857 12.3858 10.5379C12.3978 10.4901 12.4002 10.4405 12.3931 10.3918C12.3859 10.343 12.3691 10.2962 12.3439 10.254C12.3186 10.2117 12.2852 10.1748 12.2457 10.1455C12.2061 10.1161 12.1612 10.0948 12.1134 10.0828C12.0657 10.0708 12.016 10.0683 11.9673 10.0755L11.0413 10.212L10.7628 10.062C10.9411 9.85854 11.0765 9.62127 11.1611 9.36434C11.2457 9.10741 11.2778 8.83608 11.2553 8.56651C11.2251 8.27636 11.0999 8.00429 10.8993 7.79251C11.005 7.33424 10.9948 6.85688 10.8698 6.40351C10.6698 5.74151 9.7698 5.21051 8.1198 4.78051C7.66721 4.68404 7.25351 4.45518 6.9313 4.12301C7.4113 3.91441 7.94063 3.84628 8.4578 3.92651C8.71755 3.94503 8.96467 4.0457 9.16341 4.21397C9.36215 4.38224 9.5022 4.60937 9.5633 4.86251C9.58921 4.95698 9.65105 5.03756 9.7356 5.08702C9.82014 5.13648 9.92069 5.1509 10.0157 5.12719C10.1108 5.10347 10.1928 5.04352 10.2442 4.96014C10.2956 4.87676 10.3123 4.77657 10.2908 4.68101C10.1953 4.29106 9.983 3.93955 9.68235 3.67347C9.38169 3.40739 9.00698 3.23942 8.6083 3.19201C7.81399 3.06995 7.00155 3.21039 6.2943 3.59201C5.6944 3.59097 5.101 3.71636 4.5528 3.96001C4.22917 4.10694 3.93796 4.31671 3.69608 4.57713C3.4542 4.83755 3.26648 5.14343 3.1438 5.47701C2.8043 5.78501 1.6643 6.90651 1.7778 8.01101C1.7808 8.04051 1.7878 8.06601 1.7923 8.09451C1.78465 8.10944 1.77829 8.125 1.7733 8.14101C1.68206 8.64867 1.72304 9.17128 1.8923 9.65851C2.1008 10.265 2.2728 10.7405 2.4078 11.1115C2.4213 11.1495 2.4328 11.1815 2.4463 11.218C1.4998 11.8415 0.0498047 12.913 0.0498047 13.6C0.0498047 14.7155 1.6783 15.92 2.4033 16.4C1.9268 17.6695 1.3873 19.469 1.8213 20.205C2.1003 20.6775 2.6883 20.8645 3.4458 20.8645C4.7993 20.8645 6.6923 20.2645 8.3173 19.633C9.8748 19.0255 10.8068 18.583 11.4233 18.292C12.2038 17.921 12.3783 17.845 12.6593 17.9065C16.8348 18.824 23.4273 18.302 23.7048 18.279C23.7539 18.275 23.8016 18.2614 23.8454 18.239C23.8892 18.2166 23.9282 18.1857 23.96 18.1482C23.9919 18.1107 24.0161 18.0673 24.0312 18.0205C24.0463 17.9737 24.052 17.9243 24.0481 17.8753C24.0441 17.8262 24.0305 17.7784 24.008 17.7346C23.9856 17.6908 23.9548 17.6519 23.9173 17.62C23.8798 17.5881 23.8364 17.564 23.7895 17.5489C23.7427 17.5338 23.6934 17.528 23.6443 17.532V17.531Z" fill="#00264D"/>
<path d="M11.7628 13.1455C11.8252 13.2395 11.9112 13.3154 12.0122 13.3657C12.1132 13.416 12.2257 13.4388 12.3383 13.432C12.4457 13.4305 12.5525 13.4157 12.6563 13.388C13.3433 13.1594 13.9876 12.8183 14.5628 12.3785C14.5924 12.5123 14.6565 12.636 14.7487 12.7374C14.8409 12.8388 14.958 12.9143 15.0884 12.9564C15.2188 12.9985 15.358 13.0058 15.4921 12.9774C15.6262 12.9491 15.7505 12.8862 15.8528 12.795C17.2923 11.4995 17.3313 11.335 17.3628 11.204C17.4063 11.021 17.4473 10.8155 17.4818 10.629L20.2318 10.689H20.2403C20.3397 10.69 20.4356 10.6515 20.5066 10.5819C20.5777 10.5124 20.6182 10.4174 20.6193 10.318C20.6204 10.2185 20.5819 10.1227 20.5123 10.0516C20.4427 9.98054 20.3477 9.94001 20.2483 9.93895L17.8718 9.88895L23.9408 3.77545C23.9798 3.74159 24.0114 3.70002 24.0336 3.65337C24.0559 3.60671 24.0682 3.55596 24.0699 3.50431C24.0715 3.45266 24.0625 3.40123 24.0434 3.35323C24.0242 3.30523 23.9953 3.26171 23.9586 3.2254C23.9218 3.18908 23.8779 3.16076 23.8297 3.1422C23.7815 3.12364 23.7299 3.11526 23.6783 3.11756C23.6267 3.11987 23.5761 3.13282 23.5297 3.1556C23.4833 3.17838 23.4422 3.2105 23.4088 3.24995L16.9388 9.76095C16.8832 9.81738 16.8467 9.88975 16.8343 9.96795C16.8343 9.97395 16.7443 10.5505 16.6438 10.984C16.2405 11.4298 15.8082 11.8485 15.3498 12.2375L15.2998 12.1905L16.1343 11.0835C16.1893 11.0099 16.2153 10.9186 16.2075 10.8271C16.1997 10.7356 16.1585 10.6501 16.0919 10.5869C16.0252 10.5237 15.9377 10.4872 15.8459 10.4842C15.7541 10.4813 15.6644 10.5122 15.5938 10.571L14.5698 11.4305C13.9409 11.9528 13.2306 12.3687 12.4673 12.6615C12.4453 12.667 12.4258 12.671 12.4088 12.6745C12.5676 12.1706 12.8311 11.706 13.1818 11.311C13.825 10.647 14.6037 10.1292 15.4648 9.79295C15.5329 9.76715 15.592 9.72196 15.6348 9.66295L19.8098 3.88145C19.8386 3.84153 19.8594 3.79631 19.8707 3.74839C19.8821 3.70046 19.884 3.65076 19.8761 3.60213C19.8683 3.55349 19.851 3.50688 19.8251 3.46494C19.7993 3.423 19.7655 3.38656 19.7255 3.3577C19.6856 3.32884 19.6404 3.30813 19.5925 3.29675C19.5446 3.28536 19.4949 3.28353 19.4462 3.29135C19.3976 3.29918 19.351 3.3165 19.309 3.34234C19.2671 3.36818 19.2306 3.40203 19.2018 3.44195L15.0923 9.13595C14.1454 9.51242 13.2941 10.0946 12.5998 10.8405C12.2998 11.2165 11.3433 12.494 11.7628 13.1455Z" fill="#00264D"/>
<path d="M23.4192 8.32042L20.2762 11.2434L19.5167 11.1564C18.9909 11.0963 18.4606 11.2211 18.0167 11.5094C15.8932 12.8984 15.7992 13.3669 15.8772 13.6964C15.9297 13.9225 16.0447 14.1292 16.2092 14.2929C16.3737 14.4566 16.5809 14.5706 16.8072 14.6219C17.0782 14.67 17.3532 14.6911 17.6282 14.6849C17.9357 14.6849 18.2442 14.6684 18.4527 14.6524C19.5337 14.6225 20.5687 14.209 21.3727 13.4859L23.8642 12.0389C23.9069 12.0142 23.9443 11.9812 23.9743 11.942C24.0042 11.9028 24.0262 11.8581 24.0388 11.8104C24.0515 11.7628 24.0547 11.713 24.0481 11.6641C24.0416 11.6152 24.0255 11.5681 24.0007 11.5254C23.976 11.4827 23.9431 11.4454 23.9039 11.4154C23.8647 11.3854 23.8199 11.3635 23.7723 11.3508C23.7246 11.3381 23.6749 11.335 23.626 11.3415C23.5771 11.3481 23.5299 11.3642 23.4872 11.3889L20.9497 12.8649C20.9141 12.8861 20.882 12.9126 20.8542 12.9434C20.8252 12.9774 20.1107 13.7679 18.3937 13.9044C17.9218 13.9518 17.4461 13.9471 16.9752 13.8904C16.8954 13.8723 16.8215 13.8343 16.7603 13.7799C16.6991 13.7255 16.6526 13.6566 16.6252 13.5794C16.6912 13.4704 17.0067 13.0669 18.4282 12.1374C18.7257 11.9436 19.0816 11.8601 19.4342 11.9014L20.3647 12.0079C20.419 12.0134 20.4738 12.0074 20.5255 11.9901C20.5772 11.9729 20.6247 11.9449 20.6647 11.9079L23.9342 8.86742C24.0072 8.79965 24.0502 8.70569 24.0539 8.6062C24.0575 8.50672 24.0215 8.40985 23.9537 8.33691C23.886 8.26398 23.792 8.22095 23.6925 8.21729C23.593 8.21364 23.4962 8.24965 23.4232 8.31742L23.4192 8.32042Z" fill="#00264D"/>
</g>
<defs>
<clipPath id="clip0_1418_19299">
<rect width="24" height="24" fill="white" transform="translate(0.0498047)"/>
</clipPath>
</defs>
</svg>
