<svg width="16" height="16" viewBox="0 0 16 16" fill="none" xmlns="http://www.w3.org/2000/svg">
<path d="M8 1C6.51664 1 5.06659 1.43987 3.83323 2.26398C2.59986 3.08809 1.63856 4.25943 1.07091 5.62987C0.50325 7.00032 0.354725 8.50832 0.644114 9.96318C0.933503 11.418 1.64781 12.7544 2.6967 13.8033C3.7456 14.8522 5.08197 15.5665 6.53682 15.8559C7.99168 16.1453 9.49968 15.9968 10.8701 15.4291C12.2406 14.8614 13.4119 13.9001 14.236 12.6668C15.0601 11.4334 15.5 9.98336 15.5 8.5C15.4977 6.5116 14.7067 4.6053 13.3007 3.19929C11.8947 1.79328 9.9884 1.00235 8 1ZM8 14.6364C6.78634 14.6364 5.59994 14.2765 4.59082 13.6022C3.5817 12.9279 2.79519 11.9696 2.33074 10.8483C1.8663 9.72701 1.74477 8.49319 1.98155 7.30285C2.21832 6.11252 2.80275 5.01912 3.66094 4.16093C4.51912 3.30275 5.61252 2.71832 6.80286 2.48154C7.99319 2.24477 9.22701 2.36629 10.3483 2.83074C11.4696 3.29519 12.4279 4.0817 13.1022 5.09082C13.7765 6.09994 14.1364 7.28634 14.1364 8.5C14.1344 10.1269 13.4872 11.6865 12.3369 12.8369C11.1865 13.9872 9.62686 14.6344 8 14.6364Z" fill="#FF5B00"/>
<path d="M8.70296 8.19578V4.63708C8.70296 4.46811 8.63959 4.30607 8.52679 4.1866C8.41399 4.06712 8.261 4 8.10148 4C7.94196 4 7.78897 4.06712 7.67617 4.1866C7.56337 4.30607 7.5 4.46811 7.5 4.63708V8.45953C7.50003 8.62848 7.56343 8.79049 7.67623 8.90994L9.48067 10.8212C9.59411 10.9372 9.74604 11.0014 9.90375 11C10.0615 10.9985 10.2123 10.9315 10.3238 10.8134C10.4354 10.6953 10.4986 10.5355 10.5 10.3685C10.5013 10.2014 10.4407 10.0405 10.3312 9.92034L8.70296 8.19578Z" fill="#FF5B00"/>
</svg>
