<svg width="19" height="20" viewBox="0 0 19 20" fill="none" xmlns="http://www.w3.org/2000/svg">
<path d="M9.75781 4.07214C10.1094 4.06433 10.3906 3.77527 10.3906 3.36902V1.44714C10.3906 1.04089 10.1094 0.751831 9.75781 0.751831C9.40625 0.751831 9.125 1.04089 9.125 1.44714V3.36902C9.125 3.77527 9.40625 4.07996 9.75781 4.07214ZM13.7891 5.73621C14.0312 5.97839 14.4453 5.97839 14.7344 5.69714L16.0938 4.33777C16.3828 4.04871 16.375 3.64246 16.125 3.39246C15.8906 3.15027 15.4844 3.14246 15.1875 3.43152L13.8281 4.79089C13.5469 5.07996 13.5391 5.50183 13.7891 5.73621ZM5.72656 5.73621C5.96875 5.49402 5.96875 5.07996 5.67969 4.79089L4.32031 3.43152C4.03125 3.14246 3.63281 3.15808 3.38281 3.39246C3.13281 3.63464 3.13281 4.04871 3.42188 4.33777L4.78125 5.69714C5.07031 5.97839 5.48438 5.98621 5.72656 5.73621ZM1.80469 13.2362H17.6719C17.9531 13.2362 18.1641 13.0175 18.1641 12.7362C18.1641 12.455 17.9531 12.244 17.6719 12.244H13.2188C13.7266 11.5487 14.0312 10.6971 14.0312 9.76746C14.0312 7.42371 12.0859 5.48621 9.75781 5.48621C7.42188 5.48621 5.48438 7.42371 5.48438 9.76746C5.48438 10.6971 5.78906 11.5487 6.29688 12.244H1.80469C1.53125 12.244 1.3125 12.455 1.3125 12.7362C1.3125 13.0175 1.53125 13.2362 1.80469 13.2362ZM6.74219 9.76746C6.74219 8.11121 8.10156 6.75183 9.75781 6.75183C11.4141 6.75183 12.7734 8.11121 12.7734 9.76746C12.7734 10.7987 12.2422 11.7128 11.4375 12.244H8.07031C7.27344 11.7128 6.74219 10.7987 6.74219 9.76746ZM1.4375 10.205H3.35938C3.76562 10.205 4.07031 9.92371 4.0625 9.57214C4.05469 9.22058 3.76562 8.93152 3.35938 8.93152H1.4375C1.03125 8.93152 0.742188 9.22058 0.742188 9.57214C0.742188 9.91589 1.03125 10.205 1.4375 10.205ZM16.1562 10.205H18.0781C18.4844 10.205 18.7734 9.92371 18.7734 9.57214C18.7734 9.22058 18.4844 8.93933 18.0781 8.93152H16.1562C15.75 8.93152 15.4453 9.22058 15.4531 9.57214C15.4609 9.91589 15.75 10.205 16.1562 10.205ZM2.50781 15.7518C2.71875 15.7518 2.89844 15.58 2.89844 15.3534C2.89844 15.1346 2.71875 14.9628 2.50781 14.9628C2.28125 14.9628 2.10938 15.1346 2.10938 15.3534C2.10938 15.58 2.28125 15.7518 2.50781 15.7518ZM5.80469 15.7518C6.02344 15.7518 6.20312 15.58 6.20312 15.3534C6.20312 15.1346 6.02344 14.9628 5.80469 14.9628C5.58594 14.9628 5.40625 15.1346 5.40625 15.3534C5.40625 15.58 5.58594 15.7518 5.80469 15.7518ZM9.10938 15.7518C9.32031 15.7518 9.5 15.58 9.5 15.3534C9.5 15.1346 9.32031 14.9628 9.10938 14.9628C8.88281 14.9628 8.71094 15.1346 8.71094 15.3534C8.71094 15.58 8.88281 15.7518 9.10938 15.7518ZM12.4062 15.7518C12.625 15.7518 12.8047 15.58 12.8047 15.3534C12.8047 15.1346 12.625 14.9628 12.4062 14.9628C12.1875 14.9628 12.0078 15.1346 12.0078 15.3534C12.0078 15.58 12.1875 15.7518 12.4062 15.7518ZM15.7109 15.7518C15.9219 15.7518 16.1016 15.58 16.1016 15.3534C16.1016 15.1346 15.9219 14.9628 15.7109 14.9628C15.4844 14.9628 15.3125 15.1346 15.3125 15.3534C15.3125 15.58 15.4844 15.7518 15.7109 15.7518ZM1.50781 17.6503C1.72656 17.6503 1.90625 17.4706 1.90625 17.244C1.90625 17.0331 1.72656 16.8534 1.50781 16.8534C1.28906 16.8534 1.10938 17.0331 1.10938 17.244C1.10938 17.4706 1.28906 17.6503 1.50781 17.6503ZM4.8125 17.6503C5.02344 17.6503 5.20312 17.4706 5.20312 17.244C5.20312 17.0331 5.02344 16.8534 4.8125 16.8534C4.58594 16.8534 4.40625 17.0331 4.40625 17.244C4.40625 17.4706 4.58594 17.6503 4.8125 17.6503ZM8.10938 17.6503C8.32812 17.6503 8.50781 17.4706 8.50781 17.244C8.50781 17.0331 8.32812 16.8534 8.10938 16.8534C7.89062 16.8534 7.71094 17.0331 7.71094 17.244C7.71094 17.4706 7.89062 17.6503 8.10938 17.6503ZM11.4141 17.6503C11.625 17.6503 11.8047 17.4706 11.8047 17.244C11.8047 17.0331 11.625 16.8534 11.4141 16.8534C11.1875 16.8534 11.0078 17.0331 11.0078 17.244C11.0078 17.4706 11.1875 17.6503 11.4141 17.6503ZM14.7109 17.6503C14.9297 17.6503 15.1094 17.4706 15.1094 17.244C15.1094 17.0331 14.9297 16.8534 14.7109 16.8534C14.4922 16.8534 14.3125 17.0331 14.3125 17.244C14.3125 17.4706 14.4922 17.6503 14.7109 17.6503ZM18.0156 17.6503C18.2266 17.6503 18.4062 17.4706 18.4062 17.244C18.4062 17.0331 18.2266 16.8534 18.0156 16.8534C17.7891 16.8534 17.6094 17.0331 17.6094 17.244C17.6094 17.4706 17.7891 17.6503 18.0156 17.6503ZM3.8125 19.5331C4.03125 19.5331 4.20312 19.3534 4.20312 19.1346C4.20312 18.9159 4.03125 18.744 3.8125 18.744C3.58594 18.744 3.41406 18.9159 3.41406 19.1346C3.41406 19.3534 3.58594 19.5331 3.8125 19.5331ZM7.11719 19.5331C7.32812 19.5331 7.50781 19.3534 7.50781 19.1346C7.50781 18.9159 7.32812 18.744 7.11719 18.744C6.89062 18.744 6.71094 18.9159 6.71094 19.1346C6.71094 19.3534 6.89062 19.5331 7.11719 19.5331ZM10.4141 19.5331C10.6328 19.5331 10.8047 19.3534 10.8047 19.1346C10.8047 18.9159 10.6328 18.744 10.4141 18.744C10.1875 18.744 10.0156 18.9159 10.0156 19.1346C10.0156 19.3534 10.1875 19.5331 10.4141 19.5331ZM13.7188 19.5331C13.9297 19.5331 14.1094 19.3534 14.1094 19.1346C14.1094 18.9159 13.9297 18.744 13.7188 18.744C13.4922 18.744 13.3125 18.9159 13.3125 19.1346C13.3125 19.3534 13.4922 19.5331 13.7188 19.5331ZM17.0156 19.5331C17.2344 19.5331 17.4062 19.3534 17.4062 19.1346C17.4062 18.9159 17.2344 18.744 17.0156 18.744C16.7891 18.744 16.6172 18.9159 16.6172 19.1346C16.6172 19.3534 16.7891 19.5331 17.0156 19.5331Z" fill="#00264D"/>
</svg>
