<svg width="15" height="15" viewBox="0 0 15 15" fill="none" xmlns="http://www.w3.org/2000/svg">
<path fill-rule="evenodd" clip-rule="evenodd" d="M2.16668 2.16659V3.24672C2.16668 3.44133 2.25172 3.62623 2.39948 3.75289L5.90212 6.75512C6.49314 7.26179 6.83334 8.00139 6.83334 8.77985V12.575L8.16668 12.1305V8.77985C8.16668 8.00139 8.50688 7.26179 9.09788 6.75512L12.6005 3.75289C12.7483 3.62623 12.8333 3.44133 12.8333 3.24672V2.16659H2.16668ZM1.50001 0.833252C1.13182 0.833252 0.833344 1.13173 0.833344 1.49992V3.24672C0.833344 3.83057 1.08847 4.38527 1.53176 4.76523L5.0344 7.76752C5.32992 8.02079 5.50001 8.39059 5.50001 8.77985V13.4999C5.50001 13.955 5.94581 14.2763 6.37748 14.1324L8.58834 13.3955C9.13274 13.2139 9.50001 12.7045 9.50001 12.1305V8.77985C9.50001 8.39059 9.67008 8.02079 9.96561 7.76752L13.4683 4.76523C13.9115 4.38527 14.1667 3.83057 14.1667 3.24672V1.49992C14.1667 1.13173 13.8682 0.833252 13.5 0.833252H1.50001Z" fill="#1254FF"/>
</svg>
