<svg width="16" height="17" viewBox="0 0 16 17" fill="none" xmlns="http://www.w3.org/2000/svg">
<path d="M-0.000313593 7.12638C-0.000202501 6.84196 0.0676071 6.56165 0.197509 6.30863C0.327411 6.05561 0.515674 5.83714 0.746733 5.67129C0.977791 5.50543 1.24501 5.39696 1.52629 5.35484C1.80758 5.31272 2.09485 5.33816 2.36435 5.42905L5.99969 6.72238L5.99969 4.10571L4.90235 3.38571C4.62466 3.20397 4.39668 2.95583 4.23906 2.66377C4.08145 2.3717 3.99917 2.04493 3.99969 1.71305V1.71305C3.99974 1.43891 4.06593 1.16883 4.19264 0.925735C4.31935 0.682639 4.50285 0.473704 4.72755 0.316663C4.95224 0.159622 5.21151 0.0591126 5.48335 0.0236653C5.75519 -0.0117821 6.03156 0.0188795 6.28902 0.113047L7.99969 0.733714L9.70635 0.106381C9.96336 0.0119876 10.2393 -0.0190587 10.5109 0.0158727C10.7825 0.050804 11.0416 0.150684 11.2664 0.307048C11.5037 0.492812 11.6927 0.733084 11.8174 1.00748C11.9421 1.28187 11.9988 1.5823 11.9826 1.88326C11.9665 2.18423 11.878 2.47686 11.7246 2.73632C11.5712 2.99579 11.3576 3.21443 11.1017 3.37371L9.99969 4.10371L9.99969 6.72238L13.6244 5.43171C13.8952 5.33932 14.1842 5.31284 14.4673 5.35446C14.7504 5.39608 15.0196 5.50461 15.2524 5.67105C15.5042 5.86931 15.7024 6.12739 15.829 6.4218C15.9556 6.71621 16.0066 7.03761 15.9773 7.35675C15.948 7.6759 15.8394 7.98265 15.6613 8.24911C15.4832 8.51556 15.2414 8.73325 14.9577 8.88238L9.99969 11.7204L9.99969 13.929C10.0057 14.4112 9.84215 14.8801 9.53749 15.2539C9.23283 15.6277 8.8065 15.8824 8.33302 15.9737C8.04613 16.0222 7.75211 16.0075 7.47148 15.9307C7.19084 15.8538 6.93036 15.7167 6.70819 15.5288C6.48603 15.3409 6.30753 15.1068 6.18516 14.8428C6.06279 14.5788 5.9995 14.2913 5.99969 14.0004L5.99969 11.7204L1.03035 8.87571C0.717539 8.70327 0.456829 8.44991 0.275508 8.14216C0.0941873 7.83441 -0.00107702 7.48358 -0.000313593 7.12638V7.12638ZM7.33302 3.74571L7.33302 7.66705C7.3321 7.77347 7.30587 7.87815 7.25649 7.97243C7.20711 8.06671 7.136 8.14789 7.04904 8.20925C6.96208 8.27061 6.86177 8.31039 6.75639 8.32531C6.65101 8.34023 6.5436 8.32986 6.44302 8.29505L1.92769 6.68838C1.85996 6.66691 1.78812 6.66176 1.71803 6.67335C1.64793 6.68494 1.58157 6.71293 1.52435 6.75505C1.45773 6.82229 1.40796 6.90434 1.37912 6.99449C1.35027 7.08465 1.34316 7.18035 1.35838 7.27378C1.37359 7.3672 1.41069 7.4557 1.46665 7.53205C1.52261 7.60839 1.59584 7.67042 1.68035 7.71305L6.99969 10.755C7.10123 10.8137 7.18551 10.898 7.24403 10.9996C7.30256 11.1012 7.33325 11.2165 7.33302 11.3337L7.33302 14.0004C7.33298 14.0978 7.3543 14.1941 7.39549 14.2824C7.43667 14.3707 7.49672 14.449 7.5714 14.5116C7.64608 14.5742 7.73358 14.6196 7.82773 14.6448C7.92189 14.6699 8.02041 14.6741 8.11635 14.657C8.27782 14.6176 8.42072 14.5236 8.52092 14.3909C8.62112 14.2583 8.67249 14.0952 8.66635 13.929L8.66635 11.3337C8.66612 11.2165 8.69682 11.1012 8.75534 10.9996C8.81386 10.898 8.89815 10.8137 8.99969 10.755L14.307 7.71838C14.3943 7.67788 14.4705 7.61686 14.5291 7.54052C14.5876 7.46417 14.6268 7.37479 14.6433 7.27999C14.6599 7.1852 14.6532 7.08781 14.6239 6.99617C14.5945 6.90452 14.5435 6.82133 14.475 6.75371C14.416 6.71107 14.3476 6.68319 14.2756 6.6724C14.2035 6.66161 14.13 6.66824 14.061 6.69171L9.55635 8.29171C9.45604 8.32644 9.34892 8.33686 9.2438 8.32211C9.13867 8.30737 9.03855 8.26788 8.95167 8.2069C8.86478 8.14591 8.79361 8.06518 8.74401 7.97132C8.69441 7.87747 8.66779 7.77319 8.66635 7.66705L8.66635 3.74571C8.66634 3.63558 8.69361 3.52716 8.74572 3.43013C8.79784 3.33311 8.87318 3.25051 8.96502 3.18971L10.365 2.26105C10.6457 2.10905 10.7897 1.57171 10.505 1.40105C10.4564 1.36619 10.3999 1.34398 10.3405 1.33641C10.2811 1.32885 10.2208 1.33617 10.165 1.35771L8.22769 2.07238C8.07921 2.12696 7.91616 2.12696 7.76769 2.07238L5.82769 1.36171C5.77187 1.3419 5.71212 1.33575 5.65344 1.34378C5.59475 1.35181 5.53885 1.37378 5.49041 1.40786C5.44197 1.44194 5.4024 1.48713 5.37501 1.53965C5.34763 1.59217 5.33323 1.65049 5.33302 1.70971V1.70971C5.33296 1.82043 5.36048 1.92942 5.41309 2.02684C5.4657 2.12426 5.54174 2.20704 5.63435 2.26771L7.03435 3.18505C7.12685 3.24628 7.20261 3.32962 7.25476 3.42752C7.30691 3.52542 7.33381 3.63479 7.33302 3.74571V3.74571Z" fill="#1254FF"/>
</svg>
