<svg width="17" height="16" viewBox="0 0 17 16" fill="none" xmlns="http://www.w3.org/2000/svg">
<path d="M14.9737 0.409363H2.5921C1.59407 0.409363 0.782471 1.22069 0.782471 2.21991V13.5993C0.782471 14.5974 1.59407 15.4078 2.5921 15.4078H14.9736C15.9717 15.4078 16.7824 14.5974 16.7824 13.5993V2.21991C16.7825 1.22069 15.9717 0.409363 14.9737 0.409363ZM11.1289 3.10199C12.094 3.10199 12.8768 3.88477 12.8768 4.84987C12.8768 5.81497 12.094 6.59775 11.1289 6.59775C10.1635 6.59775 9.381 5.81497 9.381 4.84987C9.381 3.88477 10.1635 3.10199 11.1289 3.10199ZM14.4062 13.7351H8.78231H3.409C2.92627 13.7351 2.71128 13.3858 2.92889 12.9549L5.92858 7.01348C6.14592 6.58264 6.56016 6.54419 6.8535 6.92752L9.86979 10.8693C10.1631 11.2527 10.6759 11.2853 11.0152 10.9418L11.7531 10.1946C12.0922 9.85114 12.5918 9.89367 12.8686 10.289L14.7793 13.0184C15.0555 13.4143 14.8889 13.7351 14.4062 13.7351Z" fill="white"/>
</svg>
