<svg width="25" height="24" viewBox="0 0 25 24" fill="none" xmlns="http://www.w3.org/2000/svg">
<g clip-path="url(#clip0_1418_19202)">
<path d="M19.009 23.6263L18.8973 21.858C18.8542 21.1785 18.6102 20.536 18.1916 20.0001C18.072 19.847 17.8511 19.8198 17.6981 19.9395C17.5451 20.059 17.5179 20.2799 17.6375 20.4329C17.9685 20.8567 18.1615 21.3649 18.1956 21.9023L18.2835 23.2968H5.81599L5.90398 21.9025C5.94916 21.1899 6.26974 20.5384 6.8066 20.0681C7.12493 19.7894 7.51033 19.5886 7.92129 19.4872L9.81995 19.0179C10.0724 18.9554 10.2488 18.7304 10.2488 18.4708V17.116C10.8577 17.3604 11.4819 17.4925 12.0498 17.4925C12.6101 17.4925 13.2267 17.3634 13.8293 17.1246V18.4652C13.8293 18.7252 14.0054 18.9503 14.2578 19.0128L16.1788 19.4873C16.3418 19.5273 16.5026 19.5837 16.6567 19.6548C16.7044 19.6769 16.7545 19.6873 16.8038 19.6873C16.9367 19.6873 17.0639 19.6116 17.1233 19.4831C17.2046 19.3068 17.1278 19.0979 16.9515 19.0165C16.7567 18.9266 16.5532 18.8552 16.347 18.8046L14.5324 18.3564V16.7915C15.5731 16.2139 16.433 15.3438 16.968 14.3212C17.058 14.1491 16.9914 13.9367 16.8194 13.8467C16.6473 13.7566 16.4349 13.8232 16.3449 13.9953C15.8445 14.9519 15.0192 15.759 14.0212 16.2677C13.3614 16.6041 12.6613 16.7894 12.0498 16.7894C11.4309 16.7894 10.7237 16.6004 10.0581 16.257C9.0918 15.76 8.28518 14.9781 7.7868 14.0554C7.69455 13.8845 7.48132 13.8209 7.31041 13.9132C7.13955 14.0055 7.0759 14.2188 7.16819 14.3896C7.70004 15.3742 8.53947 16.2161 9.54574 16.7795V18.3615L7.75286 18.8045C7.23344 18.9326 6.74604 19.1866 6.34348 19.5392C5.66473 20.1337 5.25949 20.9572 5.20235 21.8581L5.09079 23.6263C5.08465 23.7232 5.11892 23.8184 5.18534 23.8891C5.25176 23.9598 5.34453 24 5.44165 24H18.6581C18.7552 24 18.848 23.9599 18.9144 23.8891C18.9809 23.8183 19.0151 23.7232 19.009 23.6263Z" fill="#00264D"/>
<path d="M22.3982 5.50706C22.204 5.50706 22.0466 5.66441 22.0466 5.85862V13.0692C22.0466 15.5353 19.4375 16.7864 17.8822 17.3126C17.0553 17.5925 16.6331 17.4439 16.5511 17.2757C16.5022 17.1756 16.565 17.042 16.7037 16.9507C17.3026 16.557 19.722 14.7152 19.722 13.5559C19.722 13.0324 19.6721 12.5299 19.6303 12.2007C19.6064 12.0129 19.4935 11.8458 19.3283 11.7536C19.1628 11.6612 18.961 11.653 18.7885 11.7314L16.9112 12.5845C16.7764 12.6457 16.62 12.6123 16.5221 12.5012C16.4609 12.4318 16.4317 12.3429 16.4398 12.2508C16.4479 12.1587 16.4922 12.0762 16.5646 12.0186C16.8995 11.7518 17.1802 11.5408 17.4157 11.3731C17.4184 11.3711 17.4213 11.3693 17.424 11.3672C17.9817 10.9708 18.2814 10.8217 18.4277 10.7658C18.4346 10.7634 18.4415 10.761 18.4483 10.7582C18.5156 10.7341 18.5444 10.7323 18.5484 10.7322H19.6996C19.8938 10.7322 20.0512 10.5748 20.0512 10.3806V6.05854C20.0512 5.86434 19.8938 5.70698 19.6996 5.70698C19.5055 5.70698 19.348 5.86434 19.348 6.05854V10.029H18.7878C18.8842 9.61662 18.9688 9.08792 18.9445 8.55992C18.9101 7.81241 18.6585 7.24508 18.2135 6.90468C18.1756 5.66282 17.8508 4.65473 17.2467 3.906C16.8161 3.37223 16.2565 2.98228 15.5819 2.74369C15.3638 1.61634 14.468 0.613596 13.2886 0.204003C12.2723 -0.148872 10.18 -0.347809 7.58521 2.28553C7.44895 2.42381 7.45059 2.64637 7.58887 2.78264C7.72715 2.91895 7.94976 2.91731 8.08602 2.77898C10.4095 0.42108 12.1983 0.569814 13.0578 0.86822C13.3028 0.953298 13.5234 1.06594 13.7202 1.19752C13.4948 1.19034 13.2658 1.2097 13.0407 1.25695C12.3201 1.40855 11.6235 1.80872 10.9108 2.48044C10.7696 2.61361 10.763 2.83612 10.8961 2.97745C10.9653 3.05081 11.0585 3.08784 11.152 3.08784C11.2385 3.08784 11.3252 3.05611 11.3931 2.99212C12.0089 2.41172 12.5952 2.0692 13.1854 1.94503C13.6926 1.83853 14.2192 1.91733 14.6126 2.15489C14.785 2.45775 14.8868 2.7697 14.9176 3.04973C14.9291 3.15145 14.932 3.25115 14.9263 3.34645C14.9187 3.47681 14.8952 3.60904 14.856 3.74296C14.7327 4.16428 14.4534 4.60289 14.0209 5.05574C13.6721 5.42113 13.2633 5.75521 12.8556 6.05048C12.8555 6.05057 12.8554 6.05066 12.8553 6.05076C12.0233 6.65404 10.9564 7.26247 9.68404 7.85924C8.45783 8.43491 7.39124 9.49456 6.85813 10.6374C6.36745 10.3046 6.06056 10.1539 5.86237 10.0856C5.67501 8.34735 5.78428 5.9331 7.21373 3.83798C7.32313 3.67762 7.28184 3.4589 7.12148 3.34945C6.96107 3.24 6.74235 3.28134 6.63295 3.44175C5.12029 5.65874 4.96936 8.18057 5.14964 10.0289H4.75176V6.05849C4.75176 5.86429 4.59436 5.70693 4.4002 5.70693C4.20605 5.70693 4.04864 5.86429 4.04864 6.05849V10.3805C4.04864 10.5747 4.20605 10.7321 4.4002 10.7321H5.55112C5.56396 10.7324 5.82787 10.7495 6.80442 11.4597C6.80812 11.4625 6.81187 11.4652 6.81567 11.4679C7.02257 11.6187 7.26051 11.7996 7.53529 12.0185C7.60762 12.0762 7.65196 12.1586 7.66007 12.2507C7.66818 12.3428 7.63898 12.4317 7.5778 12.5011C7.47993 12.6122 7.32346 12.6456 7.1887 12.5844L5.31145 11.7313C5.13886 11.6529 4.93711 11.6612 4.77159 11.7535C4.60631 11.8457 4.49339 12.0128 4.46958 12.2006C4.42772 12.5298 4.37784 13.0323 4.37784 13.5559C4.37784 14.7151 6.7972 16.5569 7.39612 16.9506C7.53487 17.0418 7.59763 17.1755 7.54879 17.2756C7.46671 17.4438 7.04446 17.5923 6.21759 17.3125C4.66233 16.7863 2.05322 15.5352 2.05322 13.0691V5.85871C2.05322 5.66451 1.89582 5.50715 1.70166 5.50715C1.5075 5.50715 1.3501 5.66451 1.3501 5.85871V13.0693C1.3501 14.3337 1.90608 15.4459 3.00272 16.375C3.96459 17.19 5.15934 17.6969 5.99221 17.9788C6.39267 18.1143 6.73607 18.1715 7.02567 18.1715C7.64948 18.1715 8.02377 17.9058 8.18071 17.5842C8.38597 17.1635 8.21854 16.65 7.78246 16.3633C7.35904 16.0849 6.66552 15.5408 6.07059 14.953C5.34098 14.232 5.08101 13.7586 5.08101 13.556C5.08101 13.1384 5.11547 12.7326 5.15006 12.4305L6.89784 13.2247C7.3161 13.4147 7.80144 13.3109 8.10533 12.9662C8.29508 12.7509 8.38569 12.475 8.36057 12.1892C8.3354 11.9034 8.19796 11.6475 7.97352 11.4687C7.78082 11.3151 7.60452 11.1789 7.4414 11.0564C7.88076 10.0245 8.87235 9.01733 9.98286 8.49599C11.2198 7.91586 12.2727 7.32186 13.1161 6.72866C15.4985 7.60743 16.3538 9.40292 16.802 10.9496C16.6008 11.0977 16.3771 11.2689 16.1263 11.4687C15.9019 11.6475 15.7644 11.9034 15.7393 12.1892C15.7141 12.475 15.8048 12.7509 15.9945 12.9662C16.2983 13.3109 16.7836 13.4147 17.202 13.2247L18.9497 12.4305C18.9843 12.7326 19.0188 13.1385 19.0188 13.5561C19.0188 13.7587 18.7588 14.2321 18.0292 14.9531C17.4343 15.5409 16.7408 16.0849 16.3173 16.3633C15.8812 16.6501 15.7138 17.1635 15.9191 17.5842C16.076 17.9059 16.4502 18.1716 17.0741 18.1716C17.3637 18.1716 17.7072 18.1143 18.1075 17.9789C18.9405 17.697 20.1352 17.19 21.0971 16.3751C22.1937 15.4461 22.7497 14.3338 22.7497 13.0694V5.85876C22.7498 5.66446 22.5924 5.50706 22.3982 5.50706ZM13.7715 6.23409C14.6187 5.54291 15.4939 4.59988 15.6174 3.5144C16.8798 4.08679 17.3411 5.27207 17.4711 6.38657L17.3348 6.29057C17.176 6.17877 16.9567 6.21683 16.8449 6.37555C16.7331 6.53432 16.7711 6.7536 16.9298 6.86544L17.663 7.38196C17.667 7.38477 17.6713 7.38664 17.6754 7.38927C17.6802 7.39236 17.6846 7.39593 17.6896 7.39879C18.4095 7.81443 18.3268 9.11853 18.0239 10.1739C17.8676 10.2475 17.667 10.359 17.4089 10.5265C16.9467 9.04808 16.0385 7.23046 13.7715 6.23409Z" fill="#00264D"/>
</g>
<defs>
<clipPath id="clip0_1418_19202">
<rect width="24" height="24" fill="white" transform="translate(0.0498047)"/>
</clipPath>
</defs>
</svg>
