<svg width="19" height="12" viewBox="0 0 19 12" fill="none" xmlns="http://www.w3.org/2000/svg">
<path d="M3.71806 0.375005C3.63321 0.37469 3.54915 0.390582 3.4707 0.421997C3.39225 0.453411 3.32098 0.499613 3.26099 0.557928C3.20099 0.616242 3.15347 0.685501 3.12115 0.761752C3.08883 0.838004 3.07236 0.919722 3.07269 1.00219V2.25195H4.3584V1.62462H17.2143V7.87457H16.5727V9.12562H17.8596C18.0301 9.12496 18.1934 9.05846 18.3135 8.94082C18.4335 8.82319 18.5006 8.66401 18.5 8.49829V1.00219C18.5006 0.836467 18.4336 0.677299 18.3135 0.559658C18.1934 0.442016 18.0301 0.375666 17.8596 0.375005H3.71806ZM1.14537 2.87438C1.06053 2.87406 0.976464 2.8901 0.89802 2.92151C0.819576 2.95293 0.748304 2.99913 0.688312 3.05745C0.62832 3.11576 0.580795 3.18502 0.548476 3.26127C0.516157 3.33752 0.499683 3.41924 0.500005 3.50171V10.9977C0.49968 11.0801 0.516151 11.1619 0.548469 11.2381C0.580786 11.3144 0.628311 11.3838 0.688303 11.4421C0.748295 11.5004 0.819569 11.5466 0.898014 11.578C0.97646 11.6094 1.06053 11.6253 1.14537 11.625H15.287C15.4575 11.6243 15.6207 11.558 15.7408 11.4403C15.8609 11.3227 15.928 11.1634 15.9273 10.9977V3.50171C15.928 3.33599 15.8609 3.17681 15.7408 3.05917C15.6207 2.94154 15.4575 2.87504 15.287 2.87438H1.14537ZM1.78572 4.12543H2.95717C2.76522 4.66029 2.33596 5.07633 1.78572 5.2629V4.12543ZM4.29436 4.12543H12.1392C12.1396 4.12706 12.1399 4.12768 12.1405 4.13005C12.2265 4.53572 12.3937 4.91322 12.6252 5.2456C13.0882 5.9104 13.8069 6.39417 14.6416 6.56124V7.93914C13.3879 8.19008 12.3954 9.15574 12.1393 10.3751H4.2944C4.03787 9.15413 3.04187 8.18722 1.78575 7.93785V6.56239C3.04183 6.31304 4.03783 5.34627 4.29436 4.12529V4.12543ZM13.4764 4.12543H14.6416V5.26045C14.0939 5.07293 13.6678 4.65847 13.4764 4.12543ZM8.21679 5.37519C7.1593 5.37519 6.28446 6.21932 6.28446 7.24724C6.28446 8.27515 7.1593 9.12562 8.21679 9.12562C9.2743 9.12562 10.1429 8.27515 10.1429 7.24724C10.1429 6.21932 9.2743 5.37519 8.21679 5.37519V5.37519ZM8.21679 6.62481C8.57945 6.62481 8.85714 6.89473 8.85714 7.24724C8.85714 7.59975 8.57945 7.87457 8.21679 7.87457C7.85415 7.87457 7.57143 7.59975 7.57143 7.24724C7.57143 6.89473 7.85415 6.62481 8.21679 6.62481ZM1.78572 9.23777C2.33585 9.42434 2.76525 9.84047 2.95717 10.3752H1.78572V9.23777ZM14.6416 9.23907V10.3754H13.4764C13.6678 9.84229 14.0939 9.42649 14.6416 9.23907Z" fill="#FF5B00"/>
</svg>
