<svg width="21" height="17" viewBox="0 0 21 17" fill="none" xmlns="http://www.w3.org/2000/svg">
<path d="M10.7578 6.39246C11.1016 6.39246 11.3906 6.08777 11.3906 5.70496V2.77527L11.2969 1.59558L11.875 2.25964L12.8516 3.25183C12.9688 3.36121 13.1172 3.43152 13.2656 3.43152C13.5781 3.43152 13.8047 3.21277 13.8047 2.90808C13.8047 2.74402 13.75 2.61902 13.6172 2.49402L11.1797 0.220581C11.0156 0.0721436 10.8984 0.0174561 10.7578 0.0174561C10.6094 0.0174561 10.4922 0.0721436 10.3281 0.220581L7.89062 2.49402C7.75781 2.61902 7.70312 2.74402 7.70312 2.90808C7.70312 3.21277 7.92969 3.43152 8.24219 3.43152C8.39062 3.43152 8.53906 3.36121 8.65625 3.25183L9.71094 2.18152L10.2109 1.59558L10.1172 2.77527V5.70496C10.1172 6.08777 10.4062 6.39246 10.7578 6.39246ZM14.7812 8.56433C15.0312 8.80652 15.4453 8.80652 15.7266 8.51746L17.0859 7.15808C17.3828 6.86902 17.3672 6.47058 17.125 6.22058C16.8828 5.97058 16.4766 5.97058 16.1875 6.25964L14.8281 7.61902C14.5391 7.90808 14.5312 8.32214 14.7812 8.56433ZM6.72656 8.56433C6.96875 8.31433 6.96875 7.90808 6.67969 7.61902L5.32031 6.25964C5.03125 5.97058 4.63281 5.97839 4.38281 6.22058C4.13281 6.46277 4.125 6.86902 4.42188 7.15808L5.78125 8.51746C6.0625 8.80652 6.48438 8.81433 6.72656 8.56433ZM1.42188 16.3221H20.0859C20.4531 16.3221 20.7656 16.0409 20.7656 15.6971C20.7656 15.3534 20.4531 15.0721 20.0859 15.0721H14.2109C14.7266 14.3768 15.0234 13.5175 15.0234 12.5956C15.0234 10.2518 13.0859 8.31433 10.7578 8.31433C8.42188 8.31433 6.48438 10.2518 6.48438 12.5956C6.48438 13.5175 6.78125 14.3768 7.29688 15.0721H1.42188C1.05469 15.0721 0.742188 15.3534 0.742188 15.6971C0.742188 16.0409 1.05469 16.3221 1.42188 16.3221ZM7.73438 12.5956C7.73438 10.9393 9.10156 9.57214 10.7578 9.57214C12.4062 9.57214 13.7734 10.9393 13.7734 12.5956C13.7734 13.6268 13.2344 14.5409 12.4375 15.0721H9.07031C8.27344 14.5409 7.73438 13.6268 7.73438 12.5956ZM2.4375 13.0253H4.35938C4.76562 13.0253 5.07031 12.744 5.0625 12.3925C5.05469 12.0409 4.75781 11.7596 4.35938 11.7596H2.4375C2.03125 11.7596 1.74219 12.0409 1.74219 12.3925C1.74219 12.744 2.03125 13.0253 2.4375 13.0253ZM17.1484 13.0253H19.0703C19.4766 13.0253 19.7656 12.744 19.7656 12.3925C19.7656 12.0409 19.4766 11.7596 19.0703 11.7596H17.1484C16.75 11.7596 16.4375 12.0409 16.4453 12.3925C16.4531 12.744 16.75 13.0253 17.1484 13.0253Z" fill="#00264D"/>
</svg>
