<svg width="25" height="24" viewBox="0 0 25 24" fill="none" xmlns="http://www.w3.org/2000/svg">
<g clip-path="url(#clip0_1418_19530)">
<path d="M2.4937 13.8232L2.7187 13.8791C2.13858 14.2022 1.68205 14.7087 1.42067 15.3192C1.15929 15.9296 1.10784 16.6095 1.27437 17.2523C1.44089 17.8952 1.816 18.4646 2.34088 18.8713C2.86577 19.2781 3.51078 19.4992 4.17483 19.5C4.95851 19.5017 5.71092 19.1927 6.26733 18.6409L6.71733 18.741C6.74442 18.747 6.77208 18.75 6.79983 18.75C6.88336 18.7499 6.96448 18.7219 7.0303 18.6705C7.09613 18.6191 7.14291 18.5472 7.1632 18.4661L7.26745 18.0491L7.84233 18.1785C7.91759 18.1952 7.99615 18.1882 8.06733 18.1586L10.2498 17.25H15.7998C15.8553 17.25 15.9101 17.2377 15.9602 17.2139C16.0103 17.1902 16.0545 17.1556 16.0897 17.1127C16.0923 17.1097 16.0927 17.1052 16.095 17.1022H16.0968L17.1382 15.75H17.3981C17.3335 15.9948 17.3005 16.2468 17.2998 16.5C17.2989 17.0019 17.4238 17.4961 17.6633 17.9372C17.9028 18.3783 18.2491 18.7522 18.6706 19.0248C19.092 19.2974 19.5752 19.4599 20.0757 19.4974C20.5762 19.5349 21.0781 19.4462 21.5355 19.2395C21.9929 19.0327 22.391 18.7146 22.6936 18.3141C22.9961 17.9136 23.1933 17.4436 23.2672 16.9471C23.341 16.4506 23.2891 15.9436 23.1162 15.4724C22.9433 15.0012 22.655 14.5809 22.2776 14.25H22.5498C22.6162 14.25 22.6814 14.2324 22.7387 14.1989C22.796 14.1655 22.8435 14.1174 22.8762 14.0596C22.9088 14.0019 22.9256 13.9365 22.9247 13.8701C22.9239 13.8037 22.9054 13.7388 22.8712 13.6819C22.5486 13.1213 22.0989 12.6444 21.5583 12.2895C21.0177 11.9346 20.4013 11.7116 19.7587 11.6385L17.2503 7.875H17.2661C17.2702 7.875 17.2732 7.87275 17.2773 7.87275C17.2815 7.87275 17.292 7.875 17.2998 7.875C17.6977 7.875 18.0792 7.71696 18.3605 7.43566C18.6418 7.15436 18.7998 6.77282 18.7998 6.375C18.7998 5.97718 18.6418 5.59564 18.3605 5.31434C18.0792 5.03304 17.6977 4.875 17.2998 4.875C17.0459 4.8767 16.7967 4.94358 16.5761 5.06925C16.5554 5.07585 16.5354 5.08412 16.5161 5.094L14.9493 6H13.5498C13.4504 6 13.355 6.03951 13.2847 6.10983C13.2143 6.18016 13.1748 6.27554 13.1748 6.375V7.5C13.1748 7.59946 13.2143 7.69484 13.2847 7.76517C13.355 7.83549 13.4504 7.875 13.5498 7.875H14.7731L16.1512 12.3536L15.1777 14.625H11.9287L11.3351 13.1411L11.4176 12.9739C11.5921 12.6264 11.6525 12.2327 11.5901 11.8489C11.761 11.9262 11.9486 11.9594 12.1357 11.9454C12.3228 11.9315 12.5034 11.871 12.661 11.7692C12.8186 11.6675 12.9483 11.5279 13.038 11.3632C13.1278 11.1985 13.1748 11.0138 13.1748 10.8263C13.1755 10.5862 13.1287 10.3485 13.0371 10.1266C12.9456 9.90475 12.8111 9.70317 12.6414 9.53346C12.4717 9.36375 12.2701 9.22925 12.0482 9.1377C11.8264 9.04615 11.5886 8.99936 11.3486 9H8.70145L4.89558 8.45625C4.69473 8.42702 4.48971 8.45289 4.30241 8.53107C4.1151 8.60926 3.95254 8.73684 3.83208 8.90019C3.71162 9.06354 3.63777 9.25654 3.61842 9.45858C3.59906 9.66062 3.63494 9.86413 3.7222 10.0474L3.64458 10.125H1.54983C1.45037 10.125 1.35499 10.1645 1.28466 10.2348C1.21434 10.3052 1.17483 10.4005 1.17483 10.5V12C1.17514 12.0763 1.19891 12.1507 1.24291 12.2131C1.28691 12.2755 1.34902 12.3228 1.42083 12.3488L0.909704 12.8599C0.861789 12.9078 0.827746 12.9678 0.811195 13.0335C0.794643 13.0992 0.7962 13.1681 0.8157 13.233C0.8352 13.2979 0.871916 13.3563 0.921944 13.402C0.971973 13.4477 1.03345 13.4789 1.09983 13.4925C1.1962 13.512 1.35033 13.5469 1.54983 13.5938L0.574829 14.325L1.02483 14.925L2.4937 13.8232ZM4.31508 10.515L9.86095 11.0419C10.0403 11.0584 10.213 11.1184 10.3638 11.2169C10.5146 11.3154 10.6391 11.4492 10.7264 11.6068C10.8136 11.7644 10.861 11.9409 10.8644 12.121C10.8679 12.3011 10.8272 12.4793 10.746 12.6401L10.5888 12.9589C10.5654 13.0061 10.5522 13.0577 10.5501 13.1104C10.5479 13.163 10.5569 13.2155 10.5765 13.2645L11.169 14.745L10.1741 15.0075C9.36595 14.7986 3.97608 13.4059 1.9192 12.9124L4.31508 10.515ZM8.3092 15.3L9.73833 15.6683C9.70432 15.7465 9.65756 15.8186 9.59995 15.8816C9.53043 15.9585 9.44553 16.0199 9.35076 16.0618C9.25599 16.1037 9.15346 16.1252 9.04983 16.125C8.85092 16.125 8.66015 16.046 8.5195 15.9053C8.37885 15.7647 8.29983 15.5739 8.29983 15.375C8.29983 15.3495 8.30695 15.3251 8.3092 15.3ZM4.17483 18.75C3.87935 18.7483 3.58712 18.6883 3.3148 18.5736C3.04249 18.4589 2.79543 18.2917 2.58774 18.0816C2.16828 17.6571 1.93461 17.0834 1.93814 16.4867C1.94167 15.89 2.18211 15.3191 2.60656 14.8996C3.03102 14.4801 3.60472 14.2465 4.20145 14.25L5.21395 14.5072C5.55183 14.6822 5.83932 14.9406 6.04904 15.2581C6.25876 15.5755 6.38374 15.9413 6.41208 16.3207L3.88083 15.7582C3.78545 15.737 3.68555 15.7539 3.60242 15.8052C3.51928 15.8566 3.45946 15.9383 3.4357 16.0331L3.31945 16.5H2.67483V17.25H3.13195L3.06108 17.5339C3.04892 17.5825 3.04661 17.633 3.05429 17.6825C3.06198 17.732 3.07949 17.7794 3.10581 17.822C3.13213 17.8646 3.16672 17.9015 3.20754 17.9306C3.24835 17.9596 3.29457 17.9801 3.34345 17.991L5.32795 18.432C4.97957 18.6407 4.58094 18.7506 4.17483 18.75ZM6.52458 17.9299L3.88195 17.3426L4.07508 16.5705L6.7177 17.1574L6.52458 17.9299ZM7.8907 17.4206L7.4497 17.3212L7.53858 16.9661C7.55074 16.9175 7.55305 16.867 7.54537 16.8175C7.53768 16.768 7.52016 16.7206 7.49384 16.678C7.46752 16.6354 7.43294 16.5985 7.39212 16.5694C7.35131 16.5404 7.30509 16.5199 7.2562 16.509L7.17483 16.4906C7.17405 15.9228 7.01144 15.367 6.70608 14.8883L7.57645 15.1114C7.52596 15.3448 7.53361 15.587 7.59875 15.8167C7.66388 16.0464 7.7845 16.2566 7.94998 16.4288C8.11545 16.6009 8.32071 16.7297 8.54769 16.8039C8.77466 16.878 9.01639 16.8952 9.25158 16.854L7.8907 17.4206ZM22.5498 16.5C22.5498 17.0967 22.3128 17.669 21.8908 18.091C21.4689 18.5129 20.8966 18.75 20.2998 18.75C19.7031 18.75 19.1308 18.5129 18.7088 18.091C18.2869 17.669 18.0498 17.0967 18.0498 16.5C18.0496 16.2342 18.0975 15.9706 18.1912 15.7219C18.2375 15.7031 18.2796 15.6753 18.315 15.6401L19.0458 14.9093L19.479 15.7343C19.2754 15.9405 19.1522 16.2126 19.1314 16.5015C19.1106 16.7905 19.1937 17.0775 19.3656 17.3107C19.5375 17.5439 19.7871 17.7081 20.0693 17.7737C20.3515 17.8393 20.6479 17.802 20.905 17.6686C21.1622 17.5351 21.3633 17.3143 21.4722 17.0458C21.581 16.7772 21.5904 16.4787 21.4988 16.2038C21.4071 15.929 21.2203 15.6959 20.972 15.5465C20.7238 15.3971 20.4304 15.3412 20.1446 15.3889L19.6076 14.3636C19.8308 14.2889 20.0645 14.2505 20.2998 14.25C20.8964 14.2506 21.4683 14.4878 21.8902 14.9097C22.312 15.3315 22.5492 15.9034 22.5498 16.5ZM20.2998 16.125C20.374 16.125 20.4465 16.147 20.5082 16.1882C20.5698 16.2294 20.6179 16.288 20.6463 16.3565C20.6747 16.425 20.6821 16.5004 20.6676 16.5732C20.6532 16.6459 20.6174 16.7127 20.565 16.7652C20.5125 16.8176 20.4457 16.8533 20.373 16.8678C20.3002 16.8823 20.2248 16.8748 20.1563 16.8465C20.0878 16.8181 20.0292 16.77 19.988 16.7083C19.9468 16.6467 19.9248 16.5742 19.9248 16.5C19.9248 16.4005 19.9643 16.3052 20.0347 16.2348C20.105 16.1645 20.2004 16.125 20.2998 16.125ZM21.8137 13.5H19.5498C19.4504 13.5 19.355 13.5395 19.2847 13.6099L17.8946 15H17.7153L19.7242 12.3885C20.5331 12.4913 21.2764 12.8867 21.8137 13.5ZM18.0498 6.375C18.0498 6.52334 18.0058 6.66834 17.9234 6.79168C17.841 6.91501 17.7239 7.01114 17.5868 7.06791C17.4498 7.12468 17.299 7.13953 17.1535 7.11059C17.008 7.08165 16.8744 7.01022 16.7695 6.90533C16.6646 6.80044 16.5932 6.6668 16.5642 6.52132C16.5353 6.37583 16.5502 6.22503 16.6069 6.08799C16.6637 5.95094 16.7598 5.83381 16.8832 5.7514C17.0065 5.66899 17.1515 5.625 17.2998 5.625C17.4987 5.625 17.6895 5.70402 17.8302 5.84467C17.9708 5.98532 18.0498 6.17609 18.0498 6.375ZM13.9248 6.75H15.0498C15.1157 6.75 15.1803 6.73267 15.2373 6.69975L15.7998 6.375C15.8014 6.63909 15.8734 6.89799 16.0083 7.125H13.9248V6.75ZM16.9083 12.2648L15.5576 7.875H16.3492L19.089 11.9843L16.0057 15.9923L15.8152 15.0405L16.8945 12.5228C16.9295 12.4411 16.9344 12.3497 16.9083 12.2648ZM15.1173 15.375L15.3423 16.5H10.5498V15.6829L11.7232 15.375H15.1173ZM4.43245 9.3495C4.47167 9.29338 4.52598 9.24951 4.58909 9.22297C4.6522 9.19642 4.72154 9.18829 4.78908 9.1995L8.62158 9.747C8.63923 9.7493 8.65703 9.75031 8.67483 9.75H11.3486C11.4901 9.7494 11.6303 9.77684 11.7611 9.83071C11.892 9.88459 12.0109 9.96384 12.1109 10.0639C12.211 10.164 12.2902 10.2828 12.3441 10.4137C12.398 10.5445 12.4254 10.6847 12.4248 10.8263C12.4243 10.8889 12.4081 10.9505 12.3777 11.0053C12.3473 11.0601 12.3036 11.1064 12.2507 11.1399C12.1978 11.1735 12.1373 11.1933 12.0747 11.1974C12.0122 11.2016 11.9496 11.19 11.8927 11.1638L10.9552 10.7303C10.6672 10.4824 10.3094 10.3301 9.93108 10.2945L4.41858 9.7695L4.40095 9.73425C4.37021 9.67345 4.35688 9.60533 4.36244 9.53743C4.368 9.46953 4.39223 9.40449 4.43245 9.3495ZM1.92483 11.625V10.875H2.89458L2.14458 11.625H1.92483Z" fill="#00264D"/>
</g>
<defs>
<clipPath id="clip0_1418_19530">
<rect width="24" height="24" fill="white" transform="translate(0.0498047)"/>
</clipPath>
</defs>
</svg>
