<svg width="13" height="13" viewBox="0 0 13 13" fill="none" xmlns="http://www.w3.org/2000/svg">
<path d="M11.3932 8.96375C10.9851 9.73215 10.3924 10.3871 9.66848 10.8697C8.94454 11.3523 8.11201 11.6474 7.24575 11.7284C6.37949 11.8095 5.50666 11.6741 4.70574 11.3342C3.90482 10.9943 3.20092 10.4608 2.65732 9.78144C2.11372 9.10212 1.74748 8.29834 1.59152 7.44239C1.43556 6.58644 1.49477 5.70514 1.76383 4.87775C2.03289 4.05035 2.50336 3.30279 3.13294 2.70229C3.76252 2.10178 4.53148 1.66716 5.37066 1.4375C5.45192 1.41016 5.54009 1.41148 5.62048 1.44125C5.70088 1.47102 5.76865 1.52744 5.8125 1.60111C5.85635 1.67478 5.87363 1.76125 5.86147 1.84611C5.84931 1.93098 5.80844 2.00911 5.74566 2.0675C5.16514 2.64179 4.76812 3.37547 4.60491 4.17558C4.44171 4.9757 4.51965 5.80626 4.82887 6.56204C5.13809 7.31782 5.66467 7.96482 6.34191 8.42108C7.01915 8.87734 7.81657 9.12232 8.63316 9.125C9.42324 9.12818 10.1972 8.90147 10.8607 8.4725C10.9304 8.42836 11.0128 8.40847 11.0951 8.41594C11.1773 8.4234 11.2547 8.45779 11.3154 8.51378C11.3761 8.56976 11.4166 8.64421 11.4307 8.72557C11.4447 8.80693 11.4316 8.89065 11.3932 8.96375V8.96375Z" fill="#698096"/>
</svg>
