<svg width="17" height="16" viewBox="0 0 17 16" fill="none" xmlns="http://www.w3.org/2000/svg">
<g clip-path="url(#clip0_213_1477)">
<path d="M15.8335 10H15.3888C15.2222 10 15.0568 10.0127 14.8922 10.038L10.1948 6.51534L11.3202 5.43801C11.5862 5.18334 11.5955 4.76067 11.3408 4.49534C11.0855 4.22934 10.6628 4.22067 10.3982 4.47467L7.61618 7.13801C7.47751 7.27667 7.28885 7.34801 7.09085 7.33134C6.89218 7.31534 6.71751 7.21467 6.59818 7.04801C6.41551 6.79467 6.47151 6.39801 6.71018 6.15867L9.84551 3.20601C10.4395 2.64801 11.3682 2.51134 12.0948 2.87601L13.6388 3.64801C14.0988 3.87801 14.6148 3.99934 15.1288 3.99934H15.8328C16.2015 3.99934 16.4995 3.70134 16.4995 3.33267C16.4995 2.96401 16.2015 2.66601 15.8328 2.66601H15.1288C14.8202 2.66601 14.5102 2.59334 14.2342 2.45534L12.6915 1.68334C11.4755 1.07467 9.92285 1.30067 8.93085 2.23534L8.51885 2.62334L8.05218 2.19801C7.43951 1.64001 6.64618 1.33267 5.79218 1.33267C5.27818 1.33267 4.76551 1.45401 4.30751 1.68267L2.76485 2.45467C2.48818 2.59267 2.17818 2.66534 1.86951 2.66534H1.16685C0.798178 2.66534 0.500178 2.96334 0.500178 3.33201C0.500178 3.70067 0.798178 3.99867 1.16685 3.99867H1.87085C2.38485 3.99867 2.90085 3.87667 3.36151 3.64734L4.90551 2.87534C5.58685 2.53267 6.54418 2.62534 7.15485 3.18334L7.54618 3.54001L5.78218 5.20134C5.06685 5.91601 4.95285 7.04601 5.51685 7.82667C5.86351 8.30867 6.55218 8.66601 7.14618 8.66601C7.67485 8.66601 8.18218 8.45801 8.54885 8.09067L9.21951 7.44867L13.4502 10.6213C13.4295 10.636 9.31818 13.7187 9.31818 13.7187C8.83618 14.0933 8.16351 14.0933 7.67151 13.7113L3.61085 10.666C3.03818 10.236 2.32751 9.99934 1.61085 9.99934H1.16618C0.797512 9.99934 0.499512 10.2973 0.499512 10.666C0.499512 11.0347 0.797512 11.3327 1.16618 11.3327H1.61085C2.04085 11.3327 2.46685 11.4747 2.81085 11.7327L6.86218 14.7713C7.34551 15.1473 7.92485 15.3353 8.50285 15.3353C9.07751 15.3353 9.65151 15.1493 10.1275 14.7787L14.1895 11.7333C14.5328 11.4753 14.9588 11.3333 15.3888 11.3333H15.8335C16.2022 11.3333 16.5002 11.0353 16.5002 10.6667C16.5002 10.298 16.2022 10 15.8335 10Z" fill="#B7CCD9"/>
</g>
<defs>
<clipPath id="clip0_213_1477">
<rect width="16" height="16" fill="white" transform="translate(0.5)"/>
</clipPath>
</defs>
</svg>
