<svg width="16" height="16" viewBox="0 0 16 16" fill="none" xmlns="http://www.w3.org/2000/svg">
<g clip-path="url(#clip0_1_3)">
<path d="M13.125 11.625C13.125 12.3153 12.5653 12.875 11.875 12.875H6.11981C5.31976 12.875 4.59669 12.3982 4.28153 11.6629L0.739719 3.39884C0.666094 3.2395 0.625 3.06206 0.625 2.875C0.625 2.18466 1.18466 1.625 1.875 1.625C2.40303 1.625 2.85456 1.95241 3.03775 2.41525L5.92948 9.16282C6.24463 9.8982 6.96771 10.375 7.76778 10.375H11.875C12.5653 10.375 13.125 10.9347 13.125 11.625Z" stroke="#698096" stroke-width="1.2" stroke-miterlimit="10"/>
<path d="M5.37756 7.875H10" stroke="#698096" stroke-width="1.2" stroke-miterlimit="10"/>
<path d="M12.875 6.875C11.4943 6.875 10.375 5.75572 10.375 4.375V3.125C10.375 1.74428 11.4943 0.625 12.875 0.625C14.2557 0.625 15.375 1.74428 15.375 3.125V4.375C15.375 5.75572 14.2557 6.875 12.875 6.875Z" stroke="#698096" stroke-width="1.2" stroke-miterlimit="10"/>
<path d="M10.375 3.125H15.375" stroke="#698096" stroke-width="1.2" stroke-miterlimit="10"/>
<path d="M10.625 12.875V12.875C11.1993 14.0236 10.3641 15.375 9.07992 15.375H8.42008C7.13592 15.375 6.30071 14.0236 6.875 12.875V12.875" stroke="#698096" stroke-width="1.2" stroke-miterlimit="10"/>
</g>
<defs>
<clipPath id="clip0_1_3">
<rect width="16" height="16" fill="white"/>
</clipPath>
</defs>
</svg>
