<svg width="13" height="12" viewBox="0 0 13 12" fill="none" xmlns="http://www.w3.org/2000/svg">
<path d="M0.860352 6.06445C0.860352 6.39941 1.14062 6.67285 1.46875 6.67285H5.8916V11.0957C5.8916 11.4238 6.16504 11.7041 6.5 11.7041C6.83496 11.7041 7.11523 11.4238 7.11523 11.0957V6.67285H11.5312C11.8594 6.67285 12.1396 6.39941 12.1396 6.06445C12.1396 5.72949 11.8594 5.44922 11.5312 5.44922H7.11523V1.0332C7.11523 0.705078 6.83496 0.424805 6.5 0.424805C6.16504 0.424805 5.8916 0.705078 5.8916 1.0332V5.44922H1.46875C1.14062 5.44922 0.860352 5.72949 0.860352 6.06445Z" fill="#8C9FB1"/>
</svg>
