<svg width="7" height="11" viewBox="0 0 7 11" fill="none" xmlns="http://www.w3.org/2000/svg">
<path d="M0.630319 5.5638C0.630319 5.85677 0.735787 6.09701 0.976022 6.32552L5.40571 10.6673C5.58149 10.8431 5.79829 10.931 6.0561 10.931C6.57172 10.931 6.9936 10.5091 6.9936 9.99935C6.9936 9.74154 6.88813 9.5013 6.69477 9.3138L2.83344 5.56966L6.69477 1.81966C6.88813 1.6263 6.9936 1.39193 6.9936 1.12826C6.9936 0.612633 6.57173 0.196617 6.0561 0.196617C5.79829 0.196617 5.58149 0.284507 5.40571 0.460289L0.976022 4.80209C0.729928 5.03646 0.630319 5.27669 0.630319 5.5638Z" fill="#00264D"/>
</svg>
