<svg width="24" height="24" viewBox="0 0 24 24" fill="none" xmlns="http://www.w3.org/2000/svg">
<rect width="24" height="24" rx="7" fill="#8C9FB1"/>
<path d="M6.24317 11.5645C6.24317 11.8994 6.52344 12.1729 6.85156 12.1729H11.2744V16.5957C11.2744 16.9238 11.5479 17.2041 11.8828 17.2041C12.2178 17.2041 12.498 16.9238 12.498 16.5957V12.1729H16.9141C17.2422 12.1729 17.5225 11.8994 17.5225 11.5645C17.5225 11.2295 17.2422 10.9492 16.9141 10.9492H12.498V6.5332C12.498 6.20508 12.2178 5.9248 11.8828 5.9248C11.5479 5.9248 11.2744 6.20508 11.2744 6.5332V10.9492H6.85156C6.52344 10.9492 6.24317 11.2295 6.24317 11.5645Z" fill="white"/>
</svg>
