<svg width="15" height="14" viewBox="0 0 15 14" fill="none" xmlns="http://www.w3.org/2000/svg">
<path d="M14.4815 5.68302H13.6964C13.2787 2.56363 10.7815 0.163602 7.75461 0.163602C5.41542 0.163602 3.39347 1.59866 2.4001 3.68867L4.01251 4.35284C4.74789 2.95183 6.14693 2.00339 7.75463 2.00339C9.83151 2.00339 11.5637 3.5838 11.9612 5.683H10.9266C10.794 5.82098 10.6669 5.90656 10.8571 6.14573L12.4587 7.89078C12.5914 8.02876 12.8065 8.02876 12.9391 7.89078L14.5515 6.14573C14.6837 6.00777 14.6142 5.82147 14.4815 5.68302ZM7.75461 11.2025C5.83268 11.2025 4.20611 9.84882 3.65877 7.98278H4.59806C4.73071 7.84479 4.80024 7.65806 4.6676 7.52005L3.05563 5.775C2.92299 5.63701 2.70791 5.63701 2.57526 5.775L0.973564 7.52005C0.783374 7.75922 0.910452 7.84477 1.0431 7.98278H1.83043C2.2962 10.7112 4.76718 13.0422 7.75503 13.0422C9.94141 13.0422 11.8491 11.7871 12.9009 9.91688L11.276 9.22973C10.4999 10.4215 9.2133 11.2025 7.75461 11.2025Z" fill="#F73B2F"/>
</svg>
