<svg width="16" height="15" viewBox="0 0 16 15" fill="none" xmlns="http://www.w3.org/2000/svg">
<path d="M12.6666 0.83339H6.63731C6.12945 0.831821 5.62805 0.94711 5.17188 1.17034C4.71571 1.39357 4.31702 1.71875 4.00664 2.12072L0.139974 7.09072C0.048938 7.20775 -0.000488281 7.35179 -0.000488281 7.50006C-0.000488281 7.64832 0.048938 7.79236 0.139974 7.90939L4.00664 12.8794C4.31702 13.2814 4.71571 13.6065 5.17188 13.8298C5.62805 14.053 6.12945 14.1683 6.63731 14.1667H12.6666C13.5504 14.1657 14.3976 13.8141 15.0225 13.1892C15.6474 12.5644 15.9989 11.7171 16 10.8334V4.16672C15.9989 3.28299 15.6474 2.43576 15.0225 1.81087C14.3976 1.18598 13.5504 0.834448 12.6666 0.83339ZM11.8046 9.02872C11.8683 9.09022 11.9191 9.16378 11.954 9.24512C11.989 9.32646 12.0074 9.41394 12.0081 9.50246C12.0089 9.59098 11.992 9.67876 11.9585 9.76069C11.925 9.84262 11.8755 9.91706 11.8129 9.97965C11.7503 10.0422 11.6759 10.0918 11.5939 10.1253C11.512 10.1588 11.4242 10.1757 11.3357 10.1749C11.2472 10.1741 11.1597 10.1557 11.0784 10.1208C10.997 10.0859 10.9235 10.0351 10.862 9.97139L9.33331 8.44272L7.80464 9.97139C7.67891 10.0928 7.51051 10.16 7.33571 10.1585C7.16091 10.157 6.9937 10.0869 6.8701 9.96327C6.74649 9.83966 6.67638 9.67245 6.67486 9.49766C6.67334 9.32286 6.74054 9.15446 6.86197 9.02872L8.39064 7.50006L6.86197 5.97139C6.74054 5.84565 6.67334 5.67725 6.67486 5.50246C6.67638 5.32766 6.74649 5.16045 6.8701 5.03684C6.9937 4.91324 7.16091 4.84313 7.33571 4.84161C7.51051 4.84009 7.67891 4.90728 7.80464 5.02872L9.33331 6.55739L10.862 5.02872C10.9877 4.90728 11.1561 4.84009 11.3309 4.84161C11.5057 4.84313 11.6729 4.91324 11.7965 5.03684C11.9201 5.16045 11.9902 5.32766 11.9918 5.50246C11.9933 5.67725 11.9261 5.84565 11.8046 5.97139L10.276 7.50006L11.8046 9.02872Z" fill="#F73B2F"/>
</svg>
