<svg width="24" height="24" viewBox="0 0 24 24" fill="none" xmlns="http://www.w3.org/2000/svg">
<path d="M12.2034 8.13623C9.55929 8.13623 7.32202 10.3735 7.32202 13.0176C7.32202 15.6617 9.55929 17.8989 12.2034 17.8989C14.8475 17.8989 17.0847 15.6617 17.0847 13.0176C17.0847 10.3735 14.8475 8.13623 12.2034 8.13623ZM12.2034 17.0854C10.0068 17.0854 8.1356 15.2142 8.1356 13.0176C8.1356 10.821 10.0068 8.94981 12.2034 8.94981C14.4 8.94981 16.2712 10.821 16.2712 13.0176C16.2712 15.2142 14.4 17.0854 12.2034 17.0854Z" fill="#00264D"/>
<path d="M23.1864 11.6105V2.44139C23.1864 2.27869 23.105 2.15666 22.9423 2.07529C22.7796 1.99392 22.6169 2.03463 22.4949 2.15666C21.3559 3.29563 20.7457 4.80074 20.7457 6.38718V8.82786C20.7457 9.76347 20.9491 10.699 21.3559 11.5126L21.4479 11.6814C21.0245 11.9759 20.7457 12.4657 20.7457 13.0177V20.3397C20.7457 21.2346 21.4779 21.9668 22.3728 21.9668C23.2677 21.9668 23.9999 21.2346 23.9999 20.3397V13.0177C24 12.4187 23.6717 11.893 23.1864 11.6105ZM22.2101 11.3906L22.0881 11.1465C21.7627 10.4143 21.5593 9.64143 21.5593 8.82786V6.34652C21.5593 5.37025 21.844 4.39398 22.3729 3.5804V11.3906H22.2101ZM23.1864 20.3397C23.1864 20.7872 22.8203 21.1533 22.3728 21.1533C21.9254 21.1533 21.5593 20.7872 21.5593 20.3397V13.0177C21.5593 12.5702 21.9254 12.2041 22.3728 12.2041C22.8203 12.2041 23.1864 12.5702 23.1864 13.0177V20.3397Z" fill="#00264D"/>
<path d="M3.66101 2.44141C3.41695 2.44141 3.25425 2.6041 3.25425 2.84817V7.32276C3.25425 7.87053 2.92233 8.31586 2.44068 8.4775V2.84822C2.44068 2.60415 2.27798 2.44145 2.03391 2.44145C1.78985 2.44145 1.62715 2.60415 1.62715 2.84822V8.47755C1.14554 8.3159 0.813575 7.87053 0.813575 7.32281V2.84822C0.813575 2.60415 0.650879 2.44145 0.406811 2.44145C0.162744 2.44145 0 2.60415 0 2.84822V7.32281C0 8.3221 0.688919 9.13334 1.6271 9.31734V11.4424C0.927362 11.6243 0.406763 12.2631 0.406763 13.0177V20.3398C0.406763 21.2347 1.13897 21.9669 2.03387 21.9669C2.92876 21.9669 3.66097 21.2347 3.66097 20.3398V13.0177C3.66097 12.2632 3.14037 11.6243 2.44063 11.4424V9.31734C3.37881 9.13334 4.06773 8.3221 4.06773 7.32281V2.84822C4.06778 2.60415 3.90508 2.44141 3.66101 2.44141ZM2.84744 13.0177V20.3397C2.84744 20.7872 2.48134 21.1533 2.03387 21.1533C1.58639 21.1533 1.22034 20.7872 1.22034 20.3397V13.0177C1.22034 12.5702 1.58644 12.2041 2.03391 12.2041C2.48139 12.2041 2.84744 12.5702 2.84744 13.0177Z" fill="#00264D"/>
<path d="M1.62708 14.6448C1.62708 14.8889 1.78977 15.0516 2.03384 15.0516C2.27791 15.0516 2.4406 14.8889 2.4406 14.6448C2.4406 14.4007 2.27791 14.238 2.03384 14.238C1.78977 14.238 1.62708 14.4007 1.62708 14.6448Z" fill="#00264D"/>
<path d="M22.3728 14.238C22.1288 14.238 21.9661 14.4007 21.9661 14.6448C21.9661 14.8889 22.1288 15.0516 22.3728 15.0516C22.6169 15.0516 22.7796 14.8889 22.7796 14.6448C22.7796 14.4007 22.6169 14.238 22.3728 14.238Z" fill="#00264D"/>
<path d="M12.2034 5.28882C7.93222 5.28882 4.47461 8.74643 4.47461 13.0176C4.47461 17.2888 7.93222 20.7464 12.2034 20.7464C16.4746 20.7464 19.9322 17.2888 19.9322 13.0176C19.9322 8.74643 16.4746 5.28882 12.2034 5.28882ZM12.2034 19.9329C8.37969 19.9329 5.28814 16.8414 5.28814 13.0176C5.28814 9.19385 8.37969 6.10235 12.2034 6.10235C16.0271 6.10235 19.1187 9.19385 19.1187 13.0176C19.1187 16.8414 16.0271 19.9329 12.2034 19.9329Z" fill="#00264D"/>
</svg>
