<svg width="20" height="21" viewBox="0 0 20 21" fill="none" xmlns="http://www.w3.org/2000/svg">
<path d="M16.6667 9.22921H16.5708C16.6864 8.84862 16.7126 8.44647 16.6473 8.0541C16.582 7.66174 16.4269 7.28975 16.1943 6.96714C15.9616 6.64453 15.6575 6.38001 15.3058 6.1942C14.9541 6.00838 14.5643 5.90629 14.1667 5.89587H2.5C-2.0425 6.20587 0.833333 13.105 2.00917 14.9892C2.53647 15.788 3.25544 16.442 4.10044 16.8915C4.94545 17.341 5.88958 17.5717 6.84667 17.5625H9.81917C10.7608 17.5712 11.69 17.3475 12.5246 16.9115C13.3592 16.4754 14.0735 15.8404 14.6042 15.0625H16.6667C20.6783 14.985 21.4658 9.08087 16.6667 9.22921ZM9.81917 15.8959H6.84667C6.16682 15.905 5.49551 15.7436 4.89413 15.4264C4.29276 15.1092 3.78049 14.6463 3.40417 14.08C2.95083 13.6459 0.411667 7.56254 2.5 7.56254H14.1667C14.2813 7.56217 14.3947 7.58611 14.4995 7.6328C14.6042 7.67948 14.6978 7.74785 14.7742 7.83337C14.8554 7.92287 14.9168 8.02853 14.9543 8.14343C14.9917 8.25833 15.0045 8.37986 14.9917 8.50004C14.5225 12.0492 13.64 15.7384 9.81917 15.8959ZM16.6667 13.3959H15.49C15.8326 12.5892 16.0987 11.7522 16.285 10.8959C17.2925 10.8284 18.4067 11.0759 18.3333 11.8484C18.3063 12.2706 18.1184 12.6664 17.8084 12.9542C17.4983 13.2421 17.0897 13.4002 16.6667 13.3959ZM7.52083 3.39587V1.72921C7.52083 1.50819 7.60863 1.29623 7.76491 1.13995C7.92119 0.983671 8.13315 0.895874 8.35417 0.895874C8.57518 0.895874 8.78714 0.983671 8.94342 1.13995C9.0997 1.29623 9.1875 1.50819 9.1875 1.72921V3.39587C9.1875 3.61689 9.0997 3.82885 8.94342 3.98513C8.78714 4.14141 8.57518 4.22921 8.35417 4.22921C8.13315 4.22921 7.92119 4.14141 7.76491 3.98513C7.60863 3.82885 7.52083 3.61689 7.52083 3.39587ZM10.8542 3.39587V1.72921C10.8542 1.50819 10.942 1.29623 11.0982 1.13995C11.2545 0.983671 11.4665 0.895874 11.6875 0.895874C11.9085 0.895874 12.1205 0.983671 12.2768 1.13995C12.433 1.29623 12.5208 1.50819 12.5208 1.72921V3.39587C12.5208 3.61689 12.433 3.82885 12.2768 3.98513C12.1205 4.14141 11.9085 4.22921 11.6875 4.22921C11.4665 4.22921 11.2545 4.14141 11.0982 3.98513C10.942 3.82885 10.8542 3.61689 10.8542 3.39587ZM4.1875 3.39587V1.72921C4.1875 1.50819 4.2753 1.29623 4.43158 1.13995C4.58786 0.983671 4.79982 0.895874 5.02083 0.895874C5.24185 0.895874 5.45381 0.983671 5.61009 1.13995C5.76637 1.29623 5.85417 1.50819 5.85417 1.72921V3.39587C5.85417 3.61689 5.76637 3.82885 5.61009 3.98513C5.45381 4.14141 5.24185 4.22921 5.02083 4.22921C4.79982 4.22921 4.58786 4.14141 4.43158 3.98513C4.2753 3.82885 4.1875 3.61689 4.1875 3.39587ZM16.6667 20.0625C16.6667 20.2836 16.5789 20.4955 16.4226 20.6518C16.2663 20.8081 16.0543 20.8959 15.8333 20.8959H0.833333C0.61232 20.8959 0.400358 20.8081 0.244078 20.6518C0.0877974 20.4955 0 20.2836 0 20.0625C0 19.8415 0.0877974 19.6296 0.244078 19.4733C0.400358 19.317 0.61232 19.2292 0.833333 19.2292H15.8333C16.0543 19.2292 16.2663 19.317 16.4226 19.4733C16.5789 19.6296 16.6667 19.8415 16.6667 20.0625Z" fill="#00264D"/>
</svg>
