<svg width="25" height="24" viewBox="0 0 25 24" fill="none" xmlns="http://www.w3.org/2000/svg">
<g clip-path="url(#clip0_1418_19695)">
<path d="M2.91667 21.56V22.4C2.91667 23.2837 3.63302 24 4.51667 24H8.44987C9.33353 24 10.0499 23.2837 10.0499 22.4V21.6H14.0499V22.4C14.0499 23.2837 14.7662 24 15.6499 24H19.5831C20.4667 24 21.1831 23.2837 21.1831 22.4V21.5664C22.1433 21.4042 22.8471 20.5739 22.8499 19.6V2C22.8485 0.895979 21.9539 0.00132245 20.8499 0H3.31787C2.21385 0.00132245 1.31919 0.895979 1.31787 2V3.6C1.31787 3.82091 1.49696 4 1.71787 4C1.93879 4 2.11787 3.82091 2.11787 3.6V2C2.11787 1.33726 2.65513 0.8 3.31787 0.8H20.8499C21.5126 0.8 22.0499 1.33726 22.0499 2V19.6C22.0499 20.2627 21.5126 20.8 20.8499 20.8H3.31787C2.65513 20.8 2.11787 20.2627 2.11787 19.6V5.6C2.11787 5.37909 1.93879 5.2 1.71787 5.2C1.49696 5.2 1.31787 5.37909 1.31787 5.6V19.6C1.31895 20.5497 1.98658 21.3681 2.91667 21.56ZM20.3831 21.6V22.4C20.3831 22.8418 20.0249 23.2 19.5831 23.2H15.6499C15.208 23.2 14.8499 22.8418 14.8499 22.4V21.6H20.3831ZM9.24987 21.6V22.4C9.24987 22.8418 8.8917 23.2 8.44987 23.2H4.51667C4.07484 23.2 3.71667 22.8418 3.71667 22.4V21.6H9.24987Z" fill="#00264D"/>
<path d="M4.4498 13.6C4.22889 13.6 4.0498 13.7791 4.0498 14V17.6C4.0498 18.2628 4.58706 18.8 5.2498 18.8H18.8498C19.5125 18.8 20.0498 18.2628 20.0498 17.6V17.2C20.7125 17.2 21.2498 16.6628 21.2498 16V13.6C21.2498 12.9373 20.7125 12.4 20.0498 12.4V9.20005C20.7125 9.20005 21.2498 8.66279 21.2498 8.00005V5.60005C21.2498 4.93731 20.7125 4.40005 20.0498 4.40005V4.00005C20.0498 3.33731 19.5125 2.80005 18.8498 2.80005H5.2498C4.58706 2.80005 4.0498 3.33731 4.0498 4.00005V12C4.0498 12.221 4.22889 12.4 4.4498 12.4C4.67072 12.4 4.8498 12.221 4.8498 12V4.00005C4.8498 3.77913 5.02889 3.60005 5.2498 3.60005H18.8498C19.0707 3.60005 19.2498 3.77913 19.2498 4.00005V4.40005C18.5871 4.40005 18.0498 4.93731 18.0498 5.60005V8.00005C18.0498 8.66279 18.5871 9.20005 19.2498 9.20005V12.4C18.5871 12.4 18.0498 12.9373 18.0498 13.6V16C18.0498 16.6628 18.5871 17.2 19.2498 17.2V17.6C19.2498 17.821 19.0707 18 18.8498 18H5.2498C5.02889 18 4.8498 17.821 4.8498 17.6V14C4.8498 13.7791 4.67072 13.6 4.4498 13.6ZM18.8498 8.00005V5.60005C18.8498 5.37913 19.0289 5.20005 19.2498 5.20005H20.0498C20.2707 5.20005 20.4498 5.37913 20.4498 5.60005V8.00005C20.4498 8.22096 20.2707 8.40005 20.0498 8.40005H19.2498C19.0289 8.40005 18.8498 8.22096 18.8498 8.00005ZM18.8498 16V13.6C18.8498 13.3791 19.0289 13.2 19.2498 13.2H20.0498C20.2707 13.2 20.4498 13.3791 20.4498 13.6V16C20.4498 16.221 20.2707 16.4 20.0498 16.4H19.2498C19.0289 16.4 18.8498 16.221 18.8498 16Z" fill="#00264D"/>
<path d="M7.61558 12.6368C8.49188 14.7525 10.7407 15.9545 12.9866 15.5078C15.2326 15.061 16.8502 13.09 16.8502 10.8C16.8502 8.51001 15.2326 6.53894 12.9866 6.09221C10.7407 5.64548 8.49188 6.84751 7.61558 8.96319C7.12456 10.1385 7.12456 11.4615 7.61558 12.6368ZM10.1572 7.27679L10.3028 7.62799C10.3554 7.76304 10.477 7.85904 10.6206 7.87892C10.7642 7.8988 10.9073 7.83945 10.9946 7.72379C11.082 7.60813 11.1 7.45426 11.0416 7.32159L10.8964 6.97039C11.6484 6.7416 12.4515 6.7416 13.2036 6.97039L13.0584 7.32159C13 7.45426 13.018 7.60813 13.1053 7.72379C13.1927 7.83945 13.3358 7.8988 13.4794 7.87892C13.6229 7.85904 13.7445 7.76304 13.7972 7.62799L13.9428 7.27639C14.6362 7.64655 15.204 8.21446 15.574 8.90799L15.2228 9.05359C15.0877 9.10623 14.9917 9.22782 14.9719 9.3714C14.952 9.51498 15.0113 9.65808 15.127 9.74545C15.2426 9.83281 15.3965 9.85077 15.5292 9.79239L15.8804 9.64719C16.1092 10.3992 16.1092 11.2023 15.8804 11.9544L15.5292 11.8092C15.3965 11.7508 15.2426 11.7688 15.127 11.8561C15.0113 11.9435 14.952 12.0866 14.9719 12.2302C14.9917 12.3738 15.0877 12.4953 15.2228 12.548L15.5744 12.6936C15.2042 13.387 14.6363 13.9548 13.9428 14.3248L13.7972 13.9736C13.7445 13.8385 13.6229 13.7425 13.4794 13.7227C13.3358 13.7028 13.1927 13.7621 13.1053 13.8778C13.018 13.9934 13 14.1473 13.0584 14.28L13.2036 14.6312C12.4515 14.86 11.6484 14.86 10.8964 14.6312L11.0416 14.28C11.1 14.1473 11.082 13.9934 10.9946 13.8778C10.9073 13.7621 10.7642 13.7028 10.6206 13.7227C10.477 13.7425 10.3554 13.8385 10.3028 13.9736L10.1572 14.3252C9.46375 13.955 8.89598 13.3871 8.52598 12.6936L8.87718 12.548C9.01223 12.4953 9.10823 12.3738 9.12812 12.2302C9.148 12.0866 9.08865 11.9435 8.97299 11.8561C8.85733 11.7688 8.70345 11.7508 8.57078 11.8092L8.21958 11.9544C7.9908 11.2023 7.9908 10.3992 8.21958 9.64719L8.57078 9.79239C8.70345 9.85077 8.85733 9.83281 8.97299 9.74545C9.08865 9.65808 9.148 9.51498 9.12812 9.3714C9.10823 9.22782 9.01223 9.10623 8.87718 9.05359L8.52558 8.90799C8.89562 8.21425 9.46354 7.64619 10.1572 7.27599V7.27679Z" fill="#00264D"/>
<path d="M12.053 13.2C13.11 13.1984 14.0414 12.5055 14.3469 11.4936C14.6524 10.4818 14.2599 9.38922 13.3804 8.803C12.5009 8.21678 11.3415 8.27493 10.5251 8.9462C9.70865 9.61747 9.42748 10.7438 9.83264 11.72C10.2058 12.6166 11.0819 13.2006 12.053 13.2ZM11.4374 9.32003C12.2539 8.9832 13.1889 9.37166 13.5263 10.1879C13.8637 11.0041 13.4759 11.9393 12.6599 12.2773C11.8439 12.6153 10.9084 12.2282 10.5698 11.4124C10.4058 11.0201 10.4052 10.5785 10.5681 10.1856C10.731 9.7928 11.0439 9.48122 11.4374 9.32003Z" fill="#00264D"/>
<path d="M8.0499 4.40002H6.0499C5.82899 4.40002 5.6499 4.57911 5.6499 4.80002V6.80002C5.6499 7.02094 5.82899 7.20002 6.0499 7.20002C6.27082 7.20002 6.4499 7.02094 6.4499 6.80002V5.20002H8.0499C8.27082 5.20002 8.4499 5.02094 8.4499 4.80002C8.4499 4.57911 8.27082 4.40002 8.0499 4.40002Z" fill="#00264D"/>
</g>
<defs>
<clipPath id="clip0_1418_19695">
<rect width="24" height="24" fill="white" transform="translate(0.0498047)"/>
</clipPath>
</defs>
</svg>
