<svg width="25" height="24" viewBox="0 0 25 24" fill="none" xmlns="http://www.w3.org/2000/svg">
<path d="M21.6556 2.12741C21.6547 2.12647 21.6536 2.12565 21.6527 2.12471C21.4872 1.96077 21.2593 1.86682 21.0266 1.86682H21.0254C20.8243 1.86682 20.6274 1.93596 20.4712 2.06131C18.3442 3.76014 16.2095 5.51366 14.1259 7.27303C13.6193 7.70081 13.1122 8.13194 12.6056 8.56545L6.82131 2.78124C6.25014 2.21014 5.32084 2.21022 4.74971 2.78124L2.00256 5.52842C1.88814 5.64288 1.88814 5.82834 2.00256 5.94276C2.11697 6.05713 2.30248 6.05713 2.41686 5.94276L4.33541 4.02424L4.75467 4.4435L2.83615 6.36202C2.72174 6.47647 2.72174 6.66194 2.83615 6.77635C2.89334 6.83354 2.96834 6.86213 3.0433 6.86213C3.11826 6.86213 3.19326 6.83354 3.25045 6.77635L5.169 4.85784L5.58826 5.27709L3.66971 7.19561C3.55529 7.31006 3.55529 7.49553 3.66971 7.60995C3.72689 7.66713 3.80189 7.69573 3.87686 7.69573C3.95182 7.69573 4.02682 7.66713 4.084 7.60995L6.00256 5.69139L6.42182 6.11065L4.5033 8.02916C4.38889 8.14362 4.38889 8.32909 4.5033 8.4435C4.56049 8.50069 4.63549 8.52928 4.71045 8.52928C4.78541 8.52928 4.86041 8.50069 4.9176 8.4435L6.83611 6.52499L7.25537 6.94424L5.33686 8.86276C5.22244 8.97721 5.22244 9.16268 5.33686 9.27709C5.39404 9.33428 5.46904 9.36288 5.544 9.36288C5.61896 9.36288 5.69396 9.33428 5.75115 9.27709L7.66967 7.35858L8.08893 7.77784L6.17041 9.69635C6.056 9.81081 6.056 9.99627 6.17041 10.1107C6.2276 10.1679 6.3026 10.1965 6.37756 10.1965C6.45252 10.1965 6.52752 10.1679 6.58471 10.1107L8.50322 8.19217L8.92248 8.61143L7.00396 10.5299C6.88955 10.6444 6.88955 10.8299 7.00396 10.9443C7.06115 11.0015 7.13615 11.0301 7.21111 11.0301C7.28607 11.0301 7.36107 11.0015 7.41826 10.9443L9.33678 9.02577L9.75607 9.44506L7.83756 11.3636C7.72314 11.478 7.72314 11.6635 7.83756 11.7779C7.89475 11.8351 7.96975 11.8637 8.04471 11.8637C8.11967 11.8637 8.19467 11.8351 8.25185 11.7779L10.1704 9.85936L10.6044 10.2934C9.70486 11.0768 8.80994 11.8648 7.9251 12.6539C7.92471 12.6539 7.92471 12.6539 7.92471 12.6543C7.66186 12.8881 7.37514 13.1574 7.09229 13.4124C6.919 13.5378 6.95201 13.7581 7.03799 13.8441C7.03799 13.8441 7.03799 13.8445 7.03838 13.8445C7.32041 14.1859 7.47627 14.6219 7.47627 15.0726C7.47627 15.5996 7.27353 16.0925 6.90521 16.4605C6.9015 16.4642 6.02545 17.3403 6.02162 17.3441C4.7476 18.6478 2.50396 17.7581 2.50268 15.9117C2.50346 14.7908 3.40881 13.8649 4.55264 13.8641C5.17564 13.8645 5.75728 14.1418 6.1483 14.6242C6.25435 14.7549 6.44908 14.7691 6.57252 14.6571C6.57408 14.6559 6.57525 14.6547 6.57682 14.6531L6.57955 14.6508C6.71678 14.5274 6.70709 14.3051 6.55377 14.1953C6.05299 13.6125 5.32447 13.2781 4.55459 13.2781H4.55068C3.08592 13.2781 1.91506 14.4709 1.91678 15.9117C1.91549 16.9974 2.57896 17.9564 3.56049 18.3551C4.1433 18.5911 4.78174 18.6074 5.35846 18.4225C4.80877 20.1325 6.08811 21.8668 7.86623 21.8668H7.86935C9.32232 21.8668 10.5065 20.6906 10.5049 19.2317C10.5056 18.5383 10.2385 17.884 9.75369 17.3887C9.75396 17.3883 10.3519 16.7086 10.3519 16.7086C11.4074 15.5341 12.4514 14.3543 13.4828 13.1716L13.9242 13.613L12.0056 15.5315C11.8912 15.646 11.8912 15.8314 12.0056 15.9458C12.0629 16.003 12.1379 16.0316 12.2128 16.0316C12.2878 16.0316 12.3628 16.003 12.42 15.9458L14.3385 14.0273L14.7578 14.4466L12.8393 16.3651C12.7249 16.4796 12.7249 16.665 12.8393 16.7794C12.8965 16.8366 12.9715 16.8652 13.0465 16.8652C13.1214 16.8652 13.1964 16.8366 13.2537 16.7794L15.1722 14.8609L15.5914 15.2801L13.6729 17.1987C13.5585 17.3131 13.5585 17.4986 13.6729 17.613C13.7301 17.6702 13.8051 17.6988 13.8801 17.6988C13.955 17.6988 14.03 17.6702 14.0872 17.613L16.0058 15.6945L16.425 16.1137L14.5065 18.0323C14.392 18.1467 14.392 18.3322 14.5065 18.4466C14.5637 18.5038 14.6387 18.5324 14.7137 18.5324C14.7886 18.5324 14.8636 18.5038 14.9208 18.4466L16.8394 16.528L17.2586 16.9473L15.3401 18.8658C15.2257 18.9803 15.2257 19.1657 15.3401 19.2801C15.3973 19.3373 15.4723 19.3659 15.5473 19.3659C15.6222 19.3659 15.6972 19.3373 15.7545 19.2801L17.673 17.3616L18.0922 17.7808L16.1737 19.6994C16.0593 19.8138 16.0593 19.9993 16.1737 20.1137C16.2309 20.1709 16.3059 20.1995 16.3809 20.1995C16.4558 20.1995 16.5308 20.1709 16.5881 20.1137L18.5066 18.1952L18.9258 18.6144L17.0073 20.5329C16.8929 20.6474 16.8929 20.8328 17.0073 20.9473C17.0645 21.0044 17.1395 21.033 17.2145 21.033C17.2894 21.033 17.3644 21.0044 17.4217 20.9473L19.3402 19.0287L19.7594 19.448L17.8409 21.3665C17.7265 21.4809 17.7265 21.6664 17.8409 21.7808C17.8981 21.838 17.9731 21.8666 18.0481 21.8666C18.123 21.8666 18.198 21.838 18.2553 21.7808L20.3806 19.6554C20.3807 19.6553 20.3808 19.6552 20.381 19.6551C20.3811 19.655 20.3812 19.6549 20.3812 19.6548L21.0024 19.0336C21.2791 18.7569 21.4315 18.3891 21.4315 17.9978C21.4315 17.6065 21.2791 17.2387 21.0024 16.962L15.2117 11.1717C17.458 8.55131 19.6356 5.92299 21.722 3.31174C22.0051 2.95741 21.9765 2.44827 21.6556 2.12741ZM4.74975 3.60991L5.16404 3.19561C5.5067 2.85295 6.06432 2.85295 6.40701 3.19561L12.1597 8.94831C11.7885 9.26713 11.4177 9.58682 11.0476 9.90788L4.74975 3.60991ZM20.588 17.3766C20.754 17.5426 20.8454 17.7633 20.8454 17.998C20.8454 18.2328 20.754 18.4535 20.588 18.6195L20.1737 19.0338C19.9801 18.8403 14.284 13.1442 13.8684 12.7285C14.1899 12.3585 14.5103 11.9882 14.8291 11.6177L20.588 17.3766ZM10.0791 16.1349C9.93709 16.0262 9.5585 15.838 9.49553 15.3035C9.47795 15.1559 9.35334 15.0449 9.20529 15.0449C9.0283 15.0449 8.89342 15.1986 8.9135 15.3723C8.91389 15.3723 8.91389 15.3723 8.91389 15.3723C8.96975 15.85 9.22912 16.2723 9.62521 16.5305C9.64592 16.5442 9.66662 16.5582 9.68811 16.5738C9.4849 16.8056 9.31717 17.0008 9.12482 17.2133C9.07131 17.2726 9.04396 17.3527 9.05021 17.4324C9.05607 17.5121 9.09553 17.5871 9.15764 17.6374C9.64932 18.0388 9.9185 18.6165 9.91896 19.2316C9.91814 20.3607 9.00857 21.2801 7.86822 21.2808C6.74111 21.2794 5.81748 20.371 5.81748 19.2316C5.81881 18.3044 6.40525 17.8078 6.45029 17.7441L7.31943 16.875C7.79826 16.3962 8.06236 15.7483 8.06236 15.0726C8.06275 14.5789 7.92135 14.1019 7.6542 13.6941C7.88357 13.4844 8.08307 13.2982 8.31475 13.0917L8.31592 13.0902C14.668 7.42643 20.762 2.5578 20.8766 2.49221C20.798 2.57077 9.3674 13.9965 9.31467 14.0559C9.20725 14.177 9.21857 14.3625 9.33928 14.4696C9.46061 14.5776 9.64643 14.5649 9.75295 14.4449C9.78799 14.405 21.2072 2.98999 21.2909 2.90627C21.267 2.94842 16.5488 8.92459 10.0791 16.1349Z" fill="#00264D"/>
<path d="M5.82223 14.5675C4.7133 13.4587 2.8212 14.2577 2.82129 15.8102C2.82129 16.2795 3.00424 16.7208 3.33645 17.053C3.67915 17.3956 4.12915 17.5669 4.57934 17.5669C5.02938 17.5669 5.47957 17.3955 5.82223 17.053C6.50834 16.367 6.50843 15.2535 5.82223 14.5675ZM5.32512 16.5557C4.91388 16.9668 4.24479 16.9669 3.83355 16.5557C3.17496 15.8972 3.63612 14.7563 4.57934 14.7563C5.52527 14.7564 5.98071 15.9002 5.32512 16.5557Z" fill="#00264D"/>
<path d="M7.85968 17.396C7.13682 17.396 6.51586 17.811 6.23911 18.4792C5.96101 19.1506 6.10576 19.8852 6.61683 20.3962C6.9563 20.7356 7.3936 20.9135 7.84519 20.9135C8.07333 20.9135 8.30518 20.868 8.52971 20.775C9.20063 20.4971 9.61744 19.8757 9.61744 19.1534C9.6174 18.1844 8.82891 17.396 7.85968 17.396ZM8.26055 20.1255C7.94602 20.2557 7.47966 20.2647 7.1139 19.899C6.74794 19.5331 6.75765 19.0647 6.88866 18.7482C7.01865 18.4344 7.34199 18.0991 7.85963 18.0991C8.44116 18.0991 8.91427 18.572 8.91427 19.1534C8.91427 19.6704 8.57658 19.9946 8.26055 20.1255Z" fill="#00264D"/>
</svg>
