<svg width="21" height="20" viewBox="0 0 21 20" fill="none" xmlns="http://www.w3.org/2000/svg">
<path d="M20.3843 17.871L16.5134 13.9984C19.4098 10.1278 18.6201 4.64195 14.7494 1.74552C10.8788 -1.15092 5.39293 -0.361157 2.49649 3.50949C-0.399944 7.38014 0.38982 12.866 4.26047 15.7624C7.36969 18.0891 11.6401 18.0891 14.7494 15.7624L18.622 19.635C19.1087 20.1217 19.8977 20.1217 20.3843 19.635C20.871 19.1483 20.871 18.3593 20.3843 17.8727L20.3843 17.871ZM9.53721 15.015C6.09716 15.015 3.30849 12.2263 3.30849 8.78624C3.30849 5.34619 6.09716 2.55751 9.53721 2.55751C12.9773 2.55751 15.7659 5.34619 15.7659 8.78624C15.7623 12.2247 12.9757 15.0113 9.53721 15.015Z" fill="white"/>
</svg>
