<svg width="13" height="18" viewBox="0 0 13 18" fill="none" xmlns="http://www.w3.org/2000/svg">
<path d="M12.248 6.62681C12.1605 6.44449 11.9761 6.32812 11.7732 6.32812H8.40725L11.1902 0.763207C11.2716 0.599941 11.2633 0.405809 11.1675 0.250277C11.0708 0.0947461 10.9008 0 10.7185 0H4.39037C4.17099 0 3.97426 0.136477 3.89702 0.341965L0.732955 8.77946C0.67217 8.94168 0.694846 9.12298 0.792686 9.26508C0.89158 9.40721 1.05326 9.49219 1.2263 9.49219H4.76938L2.82377 17.3449C2.76404 17.5854 2.87939 17.8352 3.10185 17.9454C3.32365 18.0547 3.592 17.996 3.74764 17.8022L12.1851 7.18506C12.3119 7.02643 12.3366 6.80962 12.248 6.62681V6.62681Z" fill="#FF5B00"/>
</svg>
