<svg width="16" height="16" viewBox="0 0 16 16" fill="none" xmlns="http://www.w3.org/2000/svg">
<g clip-path="url(#clip0_2294_61090)">
<path d="M12.8395 2.97913C12.8395 3.07936 12.9205 3.16038 13.0208 3.16038C13.121 3.16038 13.202 3.07936 13.202 2.97913C13.202 2.87889 13.121 2.79788 13.0208 2.79788C12.9205 2.79788 12.8395 2.87889 12.8395 2.97913Z" fill="black" stroke="#00264D" stroke-width="1.3"/>
<path d="M15.237 7.7921C15.4256 7.60357 15.5312 7.34826 15.5312 7.08188V1.47291C15.5312 1.20654 15.4256 0.951227 15.237 0.762946C15.0487 0.574415 14.7935 0.468727 14.5271 0.468727H8.91809C8.65175 0.468727 8.39644 0.574415 8.20787 0.762946L0.763031 8.20782C0.370656 8.6002 0.370656 9.23582 0.763031 9.62795L6.37203 15.2369C6.76416 15.6294 7.39978 15.6294 7.79219 15.2369C9.54919 13.4799 14.0446 8.98454 15.237 7.7921Z" stroke="#00264D" stroke-width="1.3" stroke-miterlimit="10" stroke-linecap="round" stroke-linejoin="round"/>
<path d="M8.00001 4.15554C8.55429 4.15554 9.00416 4.60566 9.00416 5.15969C9.00416 5.714 8.55429 6.16388 8.00001 6.16388C7.44572 6.16388 6.99585 5.714 6.99585 5.15969C6.99585 4.60566 7.44572 4.15554 8.00001 4.15554Z" stroke="#00264D" stroke-width="1.3" stroke-miterlimit="10" stroke-linecap="round" stroke-linejoin="round"/>
<path d="M8.00001 9.83608C8.55429 9.83608 9.00416 10.286 9.00416 10.8402C9.00416 11.3943 8.55429 11.8444 8.00001 11.8444C7.44572 11.8444 6.99585 11.3943 6.99585 10.8402C6.99585 10.286 7.44572 9.83608 8.00001 9.83608Z" stroke="#00264D" stroke-width="1.3" stroke-miterlimit="10" stroke-linecap="round" stroke-linejoin="round"/>
<path d="M4.98755 7.99994H11.0125" stroke="#00264D" stroke-width="1.3" stroke-miterlimit="10" stroke-linecap="round" stroke-linejoin="round"/>
</g>
<defs>
<clipPath id="clip0_2294_61090">
<rect width="16" height="16" fill="white"/>
</clipPath>
</defs>
</svg>
