<svg width="16" height="16" viewBox="0 0 16 16" fill="none" xmlns="http://www.w3.org/2000/svg">
<g clip-path="url(#clip0_2294_61063)">
<path d="M15.6732 5.52117L15.0321 4.40233C14.8612 4.10414 14.4816 3.99973 14.1823 4.16892C14.0878 4.22227 13.9847 4.24933 13.8757 4.24933C13.5311 4.24933 13.2507 3.96895 13.2507 3.6243C13.2507 3.40298 13.3699 3.19592 13.5618 3.08398C13.8583 2.91098 13.9599 2.5312 13.7892 2.23336L13.2227 1.2447C12.8942 0.671516 12.3622 0.260516 11.7247 0.0874846C11.0872 -0.0855779 10.4204 7.83503e-05 9.84731 0.328672L1.24341 5.26167C0.478188 5.70039 0.00175 6.52148 0 7.4057V9.78083C0 10.126 0.279812 10.4059 0.625031 10.4059C0.969687 10.4059 1.25006 10.6862 1.25006 11.0309C1.25006 11.3755 0.969687 11.6559 0.625031 11.6559C0.279812 11.6559 0 11.9358 0 12.281V13.4998C0 14.8783 1.12156 15.9999 2.50012 15.9999H12.5631C13.9417 15.9999 15.0632 14.8783 15.0632 13.4998V12.281C15.0632 11.9357 14.7834 11.6559 14.4382 11.6559C14.0936 11.6559 13.8132 11.3755 13.8132 11.0309C13.8132 10.6862 14.0936 10.4059 14.4382 10.4059C14.7834 10.4059 15.0632 10.126 15.0632 9.78083V8.68983C16.0064 7.94339 16.2888 6.59573 15.6732 5.52117ZM14.6768 7.16673C14.2334 6.46602 13.452 5.99939 12.5632 5.99939H11.0099C11.1174 5.81295 11.1263 5.57614 11.0115 5.37595C10.8398 5.07648 10.4579 4.97283 10.1584 5.14452C9.85894 5.3162 9.75528 5.69811 9.92697 5.99758C9.92731 5.9982 9.92775 5.99877 9.92813 5.99939H6.59409C6.24888 5.99939 5.96906 6.2792 5.96906 6.62442C5.96906 6.96964 6.24888 7.24945 6.59409 7.24945H12.5632C13.2524 7.24945 13.8132 7.81023 13.8132 8.49952V9.26289C13.0857 9.52086 12.5632 10.216 12.5632 11.0309C12.5632 11.8458 13.0857 12.5409 13.8132 12.7989V13.4998C13.8132 14.189 13.2524 14.7498 12.5632 14.7498H2.50012C1.81084 14.7498 1.25006 14.189 1.25006 13.4998V12.7989C1.97762 12.5409 2.50012 11.8458 2.50012 11.0309C2.50012 10.216 1.97762 9.52089 1.25006 9.26289V8.49952C1.25006 7.81023 1.81084 7.24945 2.50012 7.24945H3.46894C3.81416 7.24945 4.09397 6.96964 4.09397 6.62442C4.09397 6.2792 3.81416 5.99939 3.46894 5.99939H2.50012C2.48953 5.99939 2.47909 6.00008 2.46853 6.0002L10.4691 1.41311C10.7524 1.25067 11.0821 1.20827 11.3973 1.29386C11.7125 1.37945 11.9756 1.58267 12.138 1.86617L12.4491 2.40898C12.1646 2.74386 12.0006 3.17408 12.0006 3.62427C12.0006 4.6582 12.8418 5.49936 13.8757 5.49936C13.9858 5.49936 14.0954 5.48958 14.2033 5.47042L14.5885 6.14261C14.774 6.46652 14.7945 6.84039 14.6768 7.16673Z" fill="#00264D"/>
<path d="M10.3755 9.43707C10.7207 9.43707 11.0006 9.15724 11.0006 8.81204C11.0006 8.46685 10.7207 8.18701 10.3755 8.18701C10.0303 8.18701 9.75049 8.46685 9.75049 8.81204C9.75049 9.15724 10.0303 9.43707 10.3755 9.43707Z" fill="#00264D"/>
<path d="M10.3755 11.6247C10.7207 11.6247 11.0006 11.3449 11.0006 10.9997C11.0006 10.6545 10.7207 10.3746 10.3755 10.3746C10.0303 10.3746 9.75049 10.6545 9.75049 10.9997C9.75049 11.3449 10.0303 11.6247 10.3755 11.6247Z" fill="#00264D"/>
<path d="M10.3755 13.8123C10.7207 13.8123 11.0006 13.5325 11.0006 13.1873C11.0006 12.8421 10.7207 12.5623 10.3755 12.5623C10.0303 12.5623 9.75049 12.8421 9.75049 13.1873C9.75049 13.5325 10.0303 13.8123 10.3755 13.8123Z" fill="#00264D"/>
<path d="M9.37527 4.40546C9.72047 4.40546 10.0003 4.12562 10.0003 3.78043C10.0003 3.43523 9.72047 3.1554 9.37527 3.1554C9.03008 3.1554 8.75024 3.43523 8.75024 3.78043C8.75024 4.12562 9.03008 4.40546 9.37527 4.40546Z" fill="#00264D"/>
</g>
<defs>
<clipPath id="clip0_2294_61063">
<rect width="16" height="16" fill="white"/>
</clipPath>
</defs>
</svg>
