<svg width="25" height="24" viewBox="0 0 25 24" fill="none" xmlns="http://www.w3.org/2000/svg">
<g clip-path="url(#clip0_1418_19758)">
<path fill-rule="evenodd" clip-rule="evenodd" d="M13.9188 6.09822C13.812 6.09822 13.7091 6.05455 13.6325 5.97386C13.5687 5.90664 13.5291 5.82738 13.4564 5.68351C13.3288 5.4295 13.0909 4.95569 12.5989 4.3327C12.3953 4.07465 12.3133 3.9866 12.2555 3.92951C12.2105 3.88517 12.0956 3.77765 11.9302 3.65599C11.8053 3.80318 11.6621 3.92749 11.5022 4.02694C11.027 4.32331 10.56 4.31187 10.1843 4.30316L10.1581 4.30249C10.1466 4.30249 9.00015 4.27628 7.77638 4.36097C6.91011 4.42079 6.6561 4.52625 6.47063 4.62844C6.30193 4.72183 5.9881 4.89523 5.8436 5.21647C5.78108 5.35491 5.76295 5.49063 5.74751 5.5995C5.73944 5.65999 5.73203 5.71241 5.71794 5.76478C5.65677 5.98926 5.48471 6.08198 5.34429 6.09338C5.25961 6.10078 5.04792 6.08867 4.90413 5.82524C4.86787 5.75873 4.83286 5.67202 4.80064 5.56854C4.74149 5.38036 4.69379 5.14512 4.6696 4.9227C4.5789 4.09943 4.79727 3.42474 4.93505 3.0961C5.0244 2.88306 5.29326 2.32932 5.85504 1.78563C6.82812 0.845445 7.99076 0.604184 8.76028 0.44424C9.40207 0.311178 9.85098 0.2917 10.4155 0.278954C10.855 0.268857 11.3745 0.287704 11.9 0.505407C12.1688 0.616257 12.3651 0.748688 12.5183 0.922094C12.6352 1.05516 12.6822 1.15936 12.7367 1.27963C12.7649 1.34147 12.7965 1.41202 12.8475 1.51012C12.9752 1.75273 13.0525 1.89989 13.1801 2.03228C13.2379 2.0921 13.2601 2.10489 13.3421 2.15322C13.4295 2.20497 13.5491 2.27488 13.748 2.42406C13.9926 2.60752 14.1546 2.72918 14.3294 2.93952C14.4409 3.0746 14.6741 3.35549 14.7662 3.77285C14.8253 4.03898 14.7978 4.24864 14.7521 4.59613C14.7225 4.8206 14.5706 5.23254 14.5243 5.35285C14.328 5.86831 14.2286 6.01749 14.0417 6.07798C14.0022 6.09153 13.9598 6.09822 13.9188 6.09822ZM11.8382 2.77638C12.0244 2.77638 12.1856 2.88929 12.2878 2.96055L12.2985 2.96796C12.5425 3.13728 12.7158 3.29655 12.7971 3.37657C12.8852 3.4626 12.9887 3.57686 13.2071 3.85308C13.5136 4.24149 13.7306 4.57686 13.8865 4.84568C13.9376 4.69713 13.9772 4.56277 13.986 4.49554C14.0276 4.17498 14.0397 4.06746 14.0115 3.93978C13.9597 3.70521 13.824 3.54194 13.7346 3.43374C13.6184 3.29327 13.5068 3.20998 13.2851 3.04326C13.1211 2.92025 13.027 2.86447 12.9511 2.82013C12.8503 2.76098 12.7555 2.70524 12.6245 2.56881C12.4201 2.35713 12.3073 2.14207 12.1641 1.86989C12.1016 1.75092 12.062 1.66224 12.0324 1.59771C11.9874 1.49826 11.978 1.47811 11.939 1.43377C11.8899 1.37799 11.808 1.30403 11.6056 1.22006C11.2139 1.0581 10.8113 1.04397 10.4343 1.05208C9.89461 1.06416 9.49744 1.08166 8.91879 1.20126C8.19568 1.35115 7.20577 1.55678 6.39398 2.34169C5.92222 2.798 5.70448 3.26303 5.64937 3.39478C5.56199 3.60243 5.43499 3.98349 5.42355 4.45995C5.48875 4.38671 5.56065 4.31679 5.63994 4.25163C5.81667 4.10515 5.99143 4.00835 6.09626 3.95055C6.42351 3.76906 6.79518 3.65216 7.72329 3.58767C8.98467 3.50029 10.1292 3.5265 10.1769 3.52785L10.2038 3.52852C10.5176 3.53592 10.8147 3.54328 11.0922 3.36992C11.2374 3.27922 11.3617 3.1502 11.4612 2.98617C11.5237 2.88269 11.6232 2.81142 11.7421 2.78589C11.775 2.77903 11.8066 2.77638 11.8382 2.77638Z" fill="#00264D"/>
<path fill-rule="evenodd" clip-rule="evenodd" d="M9.73008 12.5431C9.46997 12.5431 9.17431 12.5183 8.85577 12.4477C8.57219 12.3852 7.83364 12.1755 7.10846 11.5814C6.76102 11.2965 6.12327 10.6681 5.76102 9.66007C5.66224 9.38519 5.59771 9.08954 5.56073 8.88723C5.30735 8.77365 5.07484 8.6023 4.87792 8.38254C4.6266 8.10165 4.45118 7.76161 4.37121 7.39936C4.20857 6.66283 4.45858 5.93967 5.05734 5.41685C5.21863 5.27638 5.46326 5.2925 5.60368 5.45383C5.74415 5.61512 5.72804 5.85974 5.5667 6.00017C5.0472 6.45379 5.06807 6.96723 5.12717 7.23268C5.23201 7.70713 5.58883 8.10905 6.01494 8.23269C6.16214 8.27568 6.2703 8.40067 6.29045 8.55258C6.32002 8.76965 6.38922 9.12176 6.48939 9.39933C6.79989 10.2635 7.36908 10.7952 7.5989 10.984C8.195 11.4719 8.79313 11.6426 9.02228 11.6936C9.67551 11.8374 10.2138 11.7427 10.4154 11.695C10.9652 11.5653 11.3354 11.3099 11.494 11.201C11.6083 11.1224 11.9067 10.9006 12.2104 10.5411C12.6492 10.0216 12.9725 9.31523 13.1472 8.49738C13.1802 8.34215 13.3052 8.22251 13.4618 8.1963C13.6325 8.1674 13.8187 8.0202 13.9719 7.79312C14.1385 7.54513 14.2467 7.23332 14.2682 6.93829C14.2911 6.62244 14.2279 6.21653 13.7951 6.07741C13.5915 6.0122 13.48 5.79382 13.5452 5.59017C13.6104 5.38656 13.8287 5.27499 14.0324 5.3402C14.3993 5.4585 14.6849 5.69303 14.8577 6.0196C15.0035 6.29448 15.0666 6.63115 15.0405 6.9934C15.0096 7.41879 14.8543 7.86771 14.6144 8.22457C14.4027 8.53912 14.1386 8.76624 13.853 8.88382C13.6413 9.74067 13.2885 10.4651 12.8026 11.0404C12.4518 11.4557 12.1077 11.7184 11.9337 11.8381C11.7562 11.9597 11.2851 12.2843 10.5943 12.4476C10.4081 12.4907 10.1064 12.5431 9.73008 12.5431Z" fill="#00264D"/>
<path fill-rule="evenodd" clip-rule="evenodd" d="M7.41482 14.0262C7.35702 14.0262 7.29855 14.0134 7.24281 13.9859C7.05127 13.8912 6.97264 13.6587 7.06806 13.4671C7.18702 13.2272 7.38862 12.746 7.40275 12.2171C7.40814 12.0095 7.38125 11.9147 7.33687 11.7568C7.3248 11.7144 7.31134 11.6661 7.2972 11.613C7.24411 11.406 7.3691 11.1949 7.57611 11.1418C7.78309 11.0888 7.99415 11.2137 8.04724 11.4208C8.05868 11.4638 8.07008 11.5054 8.08152 11.5457C8.13259 11.7259 8.18568 11.912 8.17698 12.2373C8.15952 12.9147 7.90951 13.5141 7.76235 13.8105C7.69441 13.9476 7.55727 14.0262 7.41482 14.0262Z" fill="#00264D"/>
<path fill-rule="evenodd" clip-rule="evenodd" d="M12.1063 14.2802C11.9746 14.2802 11.8469 14.213 11.7743 14.0927C11.519 13.668 11.2105 13.0013 11.1903 12.2379C11.1815 11.9119 11.2346 11.7258 11.2857 11.5464C11.2972 11.5061 11.3086 11.465 11.32 11.4214C11.3731 11.2144 11.5841 11.0894 11.7911 11.1425C11.9982 11.1955 12.1231 11.4066 12.0701 11.6136C12.0566 11.666 12.0425 11.7144 12.0304 11.7574C11.986 11.9146 11.9585 12.01 11.9645 12.2177C11.98 12.8132 12.2306 13.3494 12.4376 13.6942C12.5478 13.8777 12.4887 14.1155 12.3052 14.2251C12.2427 14.2621 12.1742 14.2802 12.1063 14.2802Z" fill="#00264D"/>
<path fill-rule="evenodd" clip-rule="evenodd" d="M19.4154 23.723H0.437047C0.224014 23.723 0.0506081 23.5503 0.0499771 23.3373C0.0459385 21.9878 0.107779 18.6149 0.780493 16.4456C0.959283 15.8703 1.17564 15.4005 1.46124 14.9677C1.70116 14.6049 2.39339 13.6922 3.6299 13.0638C4.76297 12.4873 5.84699 12.4019 6.55664 12.4315C6.6494 12.4355 6.73812 12.4725 6.8053 12.5363L9.84495 15.3904L13.0526 12.5303C13.1191 12.4704 13.2044 12.4361 13.2945 12.4321C14.0042 12.4025 15.0875 12.4885 16.2212 13.0645C17.4578 13.6935 18.15 14.6055 18.3899 14.9684C18.6762 15.4012 18.8926 15.8703 19.0707 16.4462C19.3798 17.4415 19.5949 18.803 19.7104 20.4911C19.7729 21.4024 19.8045 22.3863 19.8011 23.3372C19.8018 23.551 19.6284 23.723 19.4154 23.723ZM9.90271 22.9488H19.0276C19.0222 22.1384 18.992 21.3145 18.9389 20.5443C18.8273 18.9153 18.623 17.6135 18.332 16.6754C18.1734 16.1653 17.9927 15.7701 17.7447 15.3951C17.5384 15.0833 16.9429 14.299 15.8703 13.754C14.9564 13.289 14.078 13.1915 13.4631 13.201L10.0962 16.2029C9.94633 16.336 9.71988 16.3333 9.57335 16.1962L6.38319 13.2002C5.76895 13.1922 4.8933 13.2896 3.9813 13.7533C2.90873 14.2983 2.31334 15.0826 2.10699 15.3944C1.859 15.7694 1.67823 16.1639 1.51963 16.6739C1.22865 17.6121 1.02432 18.9139 0.912756 20.5429C0.859665 21.3131 0.829418 22.137 0.824034 22.9474L9.90271 22.9488Z" fill="#00264D"/>
<path fill-rule="evenodd" clip-rule="evenodd" d="M4.11046 23.723C3.89675 23.723 3.72339 23.5496 3.72339 23.3359V18.8716C3.72339 18.6579 3.89679 18.4845 4.11046 18.4845C4.32412 18.4845 4.49753 18.6579 4.49753 18.8716V23.3359C4.49761 23.5496 4.32421 23.723 4.11046 23.723Z" fill="#00264D"/>
<path fill-rule="evenodd" clip-rule="evenodd" d="M16.0538 23.723C15.8401 23.723 15.6667 23.5496 15.6667 23.3359V18.8716C15.6667 18.6579 15.8401 18.4845 16.0538 18.4845C16.2675 18.4845 16.4409 18.6579 16.4409 18.8716V23.3359C16.4409 23.5496 16.2675 23.723 16.0538 23.723Z" fill="#00264D"/>
<path fill-rule="evenodd" clip-rule="evenodd" d="M17.6109 12.5525C17.3972 12.5525 17.2239 12.3792 17.2239 12.1654V1.18773C17.2239 0.974023 17.3972 0.800659 17.6109 0.800659C17.8247 0.800659 17.998 0.974065 17.998 1.18773V12.1654C17.9981 12.3791 17.8247 12.5525 17.6109 12.5525Z" fill="#00264D"/>
<path fill-rule="evenodd" clip-rule="evenodd" d="M23.6626 7.19425H17.6109C17.3972 7.19425 17.2239 7.02089 17.2239 6.80718V2.14055C17.2239 1.99272 17.3079 1.85831 17.4403 1.79311C17.5727 1.7279 17.7306 1.74405 17.8475 1.83412L23.8992 6.50072C24.0303 6.60151 24.0827 6.77559 24.029 6.93217C23.9758 7.08879 23.828 7.19425 23.6626 7.19425ZM17.9981 6.42007H22.5269L17.9981 2.92819V6.42007Z" fill="#00264D"/>
<path fill-rule="evenodd" clip-rule="evenodd" d="M11.8409 22.3225H7.81407C7.60037 22.3225 7.427 22.1491 7.427 21.9354V17.1969C7.427 16.9832 7.60037 16.8098 7.81407 16.8098H11.8409C12.0546 16.8098 12.228 16.9832 12.228 17.1969V21.9354C12.228 22.1498 12.0553 22.3225 11.8409 22.3225ZM8.20186 21.5483H11.4545V17.584H8.20186V21.5483Z" fill="#00264D"/>
<path fill-rule="evenodd" clip-rule="evenodd" d="M10.5324 18.8098H9.12315C8.90945 18.8098 8.73608 18.6364 8.73608 18.4227C8.73608 18.209 8.90945 18.0356 9.12315 18.0356H10.5324C10.7461 18.0356 10.9195 18.209 10.9195 18.4227C10.9195 18.6364 10.7461 18.8098 10.5324 18.8098Z" fill="#00264D"/>
<path fill-rule="evenodd" clip-rule="evenodd" d="M10.5324 19.9536H9.12315C8.90945 19.9536 8.73608 19.7802 8.73608 19.5665C8.73608 19.3528 8.90945 19.1794 9.12315 19.1794H10.5324C10.7461 19.1794 10.9195 19.3528 10.9195 19.5665C10.9195 19.7802 10.7461 19.9536 10.5324 19.9536Z" fill="#00264D"/>
<path fill-rule="evenodd" clip-rule="evenodd" d="M10.5324 21.0974H9.12315C8.90945 21.0974 8.73608 20.924 8.73608 20.7103C8.73608 20.4966 8.90945 20.3232 9.12315 20.3232H10.5324C10.7461 20.3232 10.9195 20.4966 10.9195 20.7103C10.9195 20.924 10.7461 21.0974 10.5324 21.0974Z" fill="#00264D"/>
<path fill-rule="evenodd" clip-rule="evenodd" d="M7.81471 17.5841C7.68299 17.5841 7.5546 17.5168 7.48207 17.3959L4.9149 13.1143C4.80468 12.9308 4.8645 12.6929 5.04796 12.5834C5.23142 12.4731 5.46931 12.533 5.5789 12.7164L8.14608 16.998C8.2563 17.1814 8.19648 17.4193 8.01302 17.5289C7.95113 17.5666 7.88256 17.5841 7.81471 17.5841Z" fill="#00264D"/>
<path fill-rule="evenodd" clip-rule="evenodd" d="M11.8408 17.584C11.773 17.584 11.7044 17.5666 11.6419 17.529C11.4584 17.4187 11.3993 17.1815 11.5088 16.998L14.076 12.7165C14.1862 12.533 14.4235 12.4739 14.607 12.5834C14.7904 12.6936 14.8496 12.9309 14.74 13.1144L12.1728 17.3959C12.1009 17.5168 11.9726 17.584 11.8408 17.584Z" fill="#00264D"/>
</g>
<defs>
<clipPath id="clip0_1418_19758">
<rect width="24" height="24" fill="white" transform="translate(0.0498047)"/>
</clipPath>
</defs>
</svg>
