<svg width="70" height="60" viewBox="0 0 70 60" fill="none" xmlns="http://www.w3.org/2000/svg">
<path d="M36.6366 14.7459L36.7291 14.7735L36.7331 14.7689C37.1707 14.8481 37.6047 14.5861 37.7332 14.152C38.9049 10.2153 42.596 7.46516 46.7084 7.46516C47.1953 7.46516 47.5901 7.07028 47.5901 6.58342C47.5901 6.09655 47.1952 5.70168 46.7084 5.70168C41.6542 5.70168 37.4071 9.06677 36.0433 13.6495C35.9042 14.1163 36.1701 14.6068 36.6366 14.7459Z" fill="#1254FF" stroke="#F9FFF9" stroke-width="0.3"/>
<path d="M56.9523 42.4384H52.562C52.158 42.4384 51.8302 42.1107 51.8302 41.7067C51.8302 41.3027 52.1579 40.9749 52.562 40.9749H56.9523C63.0042 40.9749 67.9283 36.0509 67.9283 29.999C67.9283 23.9471 63.0042 19.023 56.9523 19.023H56.8467C56.6345 19.023 56.4328 18.9311 56.2937 18.7706C56.1547 18.6101 56.092 18.3974 56.1223 18.1873C56.1877 17.7315 56.2206 17.2737 56.2206 16.8279C56.2206 11.5829 51.953 7.31531 46.708 7.31531C44.6675 7.31531 42.7216 7.95296 41.0804 9.15978C40.7198 9.42478 40.2076 9.30718 39.999 8.91047C35.351 0.0596993 23.2108 -1.12887 16.9168 6.57053C14.2653 9.81417 13.2236 14.0336 14.0583 18.146C14.1503 18.6002 13.8028 19.0236 13.3412 19.0236H13.048C6.99615 19.0236 2.07208 23.9477 2.07208 29.9996C2.07208 36.0514 6.99615 40.9755 13.048 40.9755H17.4384C17.8424 40.9755 18.1701 41.3032 18.1701 41.7072C18.1701 42.1113 17.8424 42.439 17.4384 42.439H13.048C6.18905 42.439 0.608551 36.8585 0.608551 29.9995C0.608551 23.3329 5.8801 17.8742 12.4736 17.5731C11.8543 13.3066 13.0386 9.00295 15.7836 5.64437C22.5223 -2.5996 35.4365 -1.67556 40.8957 7.51707C42.6372 6.42522 44.6301 5.85244 46.7078 5.85244C53.0623 5.85244 58.0977 11.261 57.6571 17.58C64.1899 17.9463 69.3915 23.3763 69.3915 29.999C69.3915 36.8585 63.811 42.4384 56.952 42.4384L56.9523 42.4384Z" fill="#1254FF"/>
<path d="M16.4586 41.2935C16.4586 51.4634 24.7322 59.737 34.902 59.737C45.072 59.737 53.3455 51.4633 53.3455 41.2935C53.3455 31.1235 45.072 22.85 34.902 22.85C24.7321 22.85 16.4586 31.1237 16.4586 41.2935ZM18.2224 41.2935C18.2224 32.0966 25.705 24.6138 34.902 24.6138C44.0989 24.6138 51.5817 32.0964 51.5817 41.2935C51.5817 50.4904 44.0989 57.9732 34.902 57.9732C25.7051 57.9732 18.2224 50.4905 18.2224 41.2935Z" fill="#1254FF" stroke="#F9FFF9" stroke-width="0.3"/>
<path d="M34.5513 48.6578C34.5513 49.0364 34.8584 49.3435 35.237 49.3435C35.6156 49.3435 35.9227 49.0368 35.9227 48.6578V34.7292C35.9227 34.3506 35.6157 34.0435 35.237 34.0435C34.8584 34.0435 34.5513 34.3506 34.5513 34.7292V48.6578Z" fill="#1254FF" stroke="#1254FF" stroke-width="0.3"/>
<path d="M35.2367 35.7003L31.436 39.501C31.1684 39.769 30.7339 39.7689 30.4661 39.5011C30.1982 39.2332 30.1982 38.7992 30.4661 38.5313L34.7517 34.2457C34.7517 34.2457 34.7517 34.2457 34.7517 34.2456C35.0193 33.9777 35.4537 33.9778 35.7215 34.2456L40.0072 38.5313C40.275 38.7991 40.275 39.233 40.0074 39.5009C39.8734 39.6353 39.6972 39.7019 39.5223 39.7019L35.2367 35.7003ZM35.2367 35.7003L39.0374 39.5011C39.1711 39.6348 39.3472 39.7019 39.5223 39.7019L35.2367 35.7003Z" fill="#1254FF" stroke="#1254FF" stroke-width="0.3"/>
</svg>
