<svg width="34" height="34" viewBox="0 0 34 34" fill="none" xmlns="http://www.w3.org/2000/svg">
<path d="M17 0.125C7.685 0.125 0.125 7.685 0.125 17C0.125 26.315 7.685 33.875 17 33.875C26.315 33.875 33.875 26.315 33.875 17C33.875 7.685 26.315 0.125 17 0.125ZM17 27.125C15.7625 27.125 14.75 26.1125 14.75 24.875C14.75 23.6375 15.7625 22.625 17 22.625C18.2375 22.625 19.25 23.6375 19.25 24.875C19.25 26.1125 18.2375 27.125 17 27.125ZM19.5763 9.67625L18.8225 18.6987C18.7438 19.6438 17.9562 20.375 17 20.375C16.0437 20.375 15.2563 19.6438 15.1775 18.6987L14.4237 9.67625C14.3 8.16875 15.4812 6.875 17 6.875C18.44 6.875 19.5875 8.045 19.5875 9.4625C19.5875 9.53 19.5875 9.60875 19.5763 9.67625Z" fill="#F73B2F"/>
</svg>
