<svg width="15" height="14" viewBox="0 0 15 14" fill="none" xmlns="http://www.w3.org/2000/svg">
<path d="M2.0625 13.5244H12.8018C13.8271 13.5244 14.4697 12.7861 14.4697 11.8564C14.4697 11.5762 14.4014 11.2959 14.251 11.0361L8.87109 1.43164C8.56348 0.87793 7.99609 0.583984 7.43555 0.583984C6.86816 0.583984 6.30078 0.87793 5.99316 1.43164L0.620117 11.043C0.476562 11.3027 0.394531 11.5762 0.394531 11.8564C0.394531 12.7861 1.03711 13.5244 2.0625 13.5244ZM7.43555 8.95801C7.08008 8.95801 6.88867 8.75293 6.88184 8.39062L6.78613 4.67188C6.7793 4.30957 7.0459 4.0498 7.42871 4.0498C7.80469 4.0498 8.08496 4.31641 8.07812 4.67871L7.98242 8.39062C7.97559 8.75977 7.77734 8.95801 7.43555 8.95801ZM7.43555 11.248C7.03223 11.248 6.67676 10.9199 6.67676 10.5166C6.67676 10.1064 7.02539 9.77832 7.43555 9.77832C7.85254 9.77832 8.20117 10.0996 8.20117 10.5166C8.20117 10.9268 7.8457 11.248 7.43555 11.248Z" fill="#D09111"/>
</svg>
