<svg width="25" height="24" viewBox="0 0 25 24" fill="none" xmlns="http://www.w3.org/2000/svg">
<path d="M22.4399 8.73488C19.7095 6.00412 16.0191 4.5 12.0498 4.5C8.08038 4.5 4.39038 6.00412 1.65963 8.73488C1.30863 9.08588 1.83925 9.61575 2.18988 9.26513C4.77888 6.67613 8.28025 5.25 12.0498 5.25C15.8193 5.25 19.321 6.67613 21.9096 9.26513C22.2554 9.61088 22.7954 9.09037 22.4399 8.73488Z" fill="#00264D"/>
<path d="M12.0497 12.306C10.2287 12.306 8.51611 13.0155 7.22836 14.3033C6.87736 14.6543 7.40798 15.1842 7.75861 14.8335C8.90498 13.6872 10.429 13.056 12.0497 13.056C13.6705 13.056 15.1945 13.6875 16.3409 14.8335C16.6866 15.1793 17.2266 14.6588 16.8711 14.3033C15.5834 13.0155 13.8707 12.306 12.0497 12.306Z" fill="#00264D"/>
<path d="M4.40462 11.4454C4.05362 11.7964 4.58425 12.3263 4.93487 11.9756C8.85812 8.05238 15.2414 8.05238 19.1646 11.9756C19.5149 12.3259 20.0459 11.7964 19.6949 11.4454C15.4795 7.22963 8.62 7.22963 4.40462 11.4454Z" fill="#00264D"/>
<path d="M12.0498 15.75C11.0159 15.75 10.1748 16.5911 10.1748 17.625C10.1748 18.6589 11.0159 19.5 12.0498 19.5C13.0837 19.5 13.9248 18.6589 13.9248 17.625C13.9248 16.5911 13.0837 15.75 12.0498 15.75ZM12.0498 18.75C11.4296 18.75 10.9248 18.2452 10.9248 17.625C10.9248 17.0048 11.4296 16.5 12.0498 16.5C12.6701 16.5 13.1748 17.0048 13.1748 17.625C13.1748 18.2452 12.6701 18.75 12.0498 18.75Z" fill="#00264D"/>
</svg>
